<svg width="289" height="249" viewBox="0 0 289 249" fill="none" xmlns="http://www.w3.org/2000/svg">
<g clip-path="url(#clip0)">
<path d="M157.747 69.3439C172.444 69.3439 184.358 57.4496 184.358 42.7771C184.358 28.1046 172.444 16.2102 157.747 16.2102C143.051 16.2102 131.137 28.1046 131.137 42.7771C131.137 57.4496 143.051 69.3439 157.747 69.3439Z" fill="#A0616A"/>
<path d="M137.886 56.0604C137.886 56.0604 142.899 93.7931 135.186 98.0284C127.473 102.264 181.08 102.649 181.08 102.649C181.08 102.649 169.124 69.9214 174.523 59.9107L137.886 56.0604Z" fill="#A0616A"/>
<path d="M220.224 102.84L215.766 123.107L206.339 165.987L206.057 168.335L202.803 195.521L200.639 213.582L199.188 225.713C190.366 230.24 183.972 233.365 183.972 233.365C183.972 233.365 183.422 230.612 182.535 227.09C176.343 228.943 164.887 232.018 155.178 232.632C158.713 236.566 160.338 240.262 158.134 242.99C151.483 251.212 124.024 233.987 114.42 227.563C114.197 229.101 114.112 230.656 114.167 232.209L106.817 226.566L107.545 213.582L108.771 191.612L110.313 164.062C109.827 162.882 109.419 161.671 109.093 160.438C106.843 152.446 104.11 136.489 102.015 123.107C100.329 112.338 99.0623 103.237 98.7945 101.301C98.7583 101.048 98.7402 100.918 98.7402 100.918L139.425 82.9694C142.317 89.6638 155.818 91.6761 155.818 91.6761C167.004 90.9066 175.772 85.0178 175.772 85.0178L220.224 102.84Z" fill="#D0CDE1"/>
<path d="M187.058 225.666C187.058 225.666 185.336 226.255 182.535 227.09C176.343 228.943 164.886 232.018 155.177 232.632C146.818 233.166 139.755 231.88 138.463 226.436C137.909 224.095 138.694 222.169 140.406 220.587C145.516 215.858 158.861 214.163 169.446 213.582C172.435 213.419 175.2 213.343 177.501 213.314C181.409 213.264 183.972 213.343 183.972 213.343L184.033 213.582L187.058 225.666Z" fill="#A0616A"/>
<path d="M135.61 17.6472L130.634 15.6585C130.634 15.6585 141.038 4.22386 155.512 5.21822L151.441 0.74373C151.441 0.74373 161.392 -3.23351 170.438 7.20681C175.194 12.695 180.696 19.1462 184.126 26.4134H189.455L187.231 31.3021L195.014 36.1908L187.025 35.3127C187.501 37.9898 187.574 40.7229 187.242 43.4215C186.899 46.121 185.519 48.582 183.394 50.285C183.394 50.285 177.223 37.5335 177.223 35.5449V40.5165C177.223 40.5165 172.248 36.0421 172.248 33.0591L169.534 36.5392L168.177 31.0705L151.441 36.5392L154.155 32.0648L143.752 33.5563L147.823 28.0875C147.823 28.0875 136.062 34.5506 135.61 40.0194C135.158 45.4881 131.715 50.6701 131.715 50.6701C131.715 50.6701 122.493 25.1046 135.61 17.6472Z" fill="#2F2E41"/>
<path d="M249.148 196.016C246.438 198.95 239.722 203.368 231.579 208.152C228.551 209.929 225.326 211.761 222.037 213.582C214.188 217.928 205.97 222.234 199.188 225.713C190.366 230.24 183.972 233.365 183.972 233.365C183.972 233.365 183.422 230.612 182.535 227.09C181.348 222.375 179.561 216.28 177.697 213.582C177.632 213.488 177.567 213.401 177.501 213.314C176.959 212.603 176.412 212.187 175.873 212.187L202.803 195.522L214.441 188.318L206.057 168.335L195.541 143.27L201.888 123.107L208.268 102.84H220.224C220.224 102.84 224.183 111.467 229.245 123.497C230.002 125.297 230.783 127.172 231.579 129.108C241.994 154.397 254.978 189.712 249.148 196.016Z" fill="#D0CDE1"/>
<path d="M158.134 242.99C151.483 251.212 124.024 233.987 114.42 227.563C112.328 226.165 111.083 225.28 111.083 225.28L119.87 213.582L122.653 209.879C122.653 209.879 125.142 211.197 128.822 213.343C128.956 213.423 129.09 213.502 129.228 213.582C132.401 215.442 136.386 217.874 140.406 220.587C145.953 224.333 151.562 228.607 155.177 232.632C158.713 236.566 160.338 240.262 158.134 242.99Z" fill="#A0616A"/>
<path d="M128.822 213.343C127.84 213.34 126.86 213.419 125.891 213.582C117.572 215.009 115.118 222.527 114.42 227.563C114.196 229.101 114.112 230.656 114.167 232.209L106.817 226.566L104.139 224.51C97.6943 222.267 91.9514 218.282 86.9721 213.582C82.6524 209.432 78.7775 204.844 75.4103 199.893C72.0564 195.013 69.0665 189.893 66.4648 184.575C65.7389 183.091 65.3487 181.466 65.3218 179.814C65.2949 178.163 65.632 176.526 66.3092 175.019L75.4103 154.769L88.7127 125.174C88.8104 124.469 88.9177 123.78 89.0347 123.107C91.6728 108.006 98.7401 101.301 98.7401 101.301H104.139L107.751 123.107L112.238 150.199L109.093 160.438L101.827 184.083L108.771 191.612L128.822 213.343Z" fill="#D0CDE1"/>
<path d="M134.933 150.221L139.549 155.597C141.264 155.271 143.054 154.887 144.899 154.456L143.573 150.221L146.815 153.996C166.355 149.198 190.574 139.87 190.574 139.87C190.574 139.87 164.427 141.784 144.903 137.526C136.265 135.642 127.378 139.917 123.833 148.004C121.773 152.704 122.096 156.777 129.404 156.777C131.873 156.734 134.335 156.503 136.769 156.085L134.933 150.221Z" fill="#FC6681"/>
<path d="M240.156 238.582V240.775C240.157 241.377 240.045 241.974 239.827 242.534C239.729 242.784 239.612 243.026 239.476 243.257C239.044 243.98 238.432 244.578 237.7 244.994C236.967 245.409 236.139 245.627 235.296 245.627H73.7025C72.8598 245.627 72.0316 245.409 71.2988 244.994C70.5661 244.578 69.9541 243.98 69.5229 243.257C69.3864 243.026 69.269 242.784 69.1718 242.534C68.953 241.974 68.8413 241.377 68.8425 240.775V238.582C68.8424 237.945 68.968 237.314 69.2121 236.725C69.4563 236.136 69.8143 235.601 70.2656 235.151C70.7169 234.7 71.2527 234.343 71.8425 234.099C72.4322 233.855 73.0642 233.73 73.7025 233.73H83.017V232.708C83.017 232.681 83.0222 232.655 83.0324 232.63C83.0425 232.606 83.0575 232.583 83.0763 232.565C83.0951 232.546 83.1175 232.531 83.1421 232.521C83.1667 232.511 83.1931 232.505 83.2197 232.505H88.0796C88.1062 232.505 88.1326 232.511 88.1572 232.521C88.1818 232.531 88.2042 232.546 88.223 232.565C88.2418 232.583 88.2568 232.606 88.2669 232.63C88.2771 232.655 88.2823 232.681 88.2822 232.708V233.73H91.3183V232.708C91.3183 232.681 91.3235 232.655 91.3337 232.63C91.3438 232.606 91.3588 232.583 91.3776 232.565C91.3964 232.546 91.4188 232.531 91.4434 232.521C91.468 232.511 91.4944 232.505 91.521 232.505H96.3809C96.4075 232.505 96.4339 232.511 96.4585 232.521C96.4831 232.531 96.5055 232.546 96.5243 232.565C96.5431 232.583 96.5581 232.606 96.5682 232.63C96.5784 232.655 96.5836 232.681 96.5836 232.708V233.73H99.6233V232.708C99.6232 232.681 99.6284 232.655 99.6386 232.63C99.6488 232.606 99.6637 232.583 99.6825 232.565C99.7014 232.546 99.7237 232.531 99.7483 232.521C99.7729 232.511 99.7993 232.505 99.8259 232.505H104.686C104.712 232.505 104.739 232.511 104.763 232.521C104.788 232.531 104.81 232.546 104.829 232.565C104.848 232.583 104.863 232.606 104.873 232.63C104.883 232.655 104.889 232.681 104.888 232.708V233.73H107.925V232.708C107.925 232.681 107.93 232.655 107.94 232.63C107.95 232.606 107.965 232.583 107.984 232.565C108.003 232.546 108.025 232.531 108.05 232.521C108.074 232.511 108.101 232.505 108.127 232.505H112.987C113.014 232.505 113.04 232.511 113.065 232.521C113.089 232.531 113.112 232.546 113.131 232.565C113.149 232.583 113.164 232.606 113.174 232.63C113.185 232.655 113.19 232.681 113.19 232.708V233.73H116.226V232.708C116.226 232.681 116.231 232.655 116.241 232.63C116.251 232.606 116.266 232.583 116.285 232.565C116.304 232.546 116.326 232.531 116.351 232.521C116.376 232.511 116.402 232.505 116.429 232.505H121.288C121.315 232.505 121.341 232.511 121.366 232.521C121.391 232.531 121.413 232.546 121.432 232.565C121.451 232.583 121.466 232.606 121.476 232.63C121.486 232.655 121.491 232.681 121.491 232.708V233.73H124.531V232.708C124.531 232.681 124.536 232.655 124.546 232.63C124.556 232.606 124.571 232.583 124.59 232.565C124.609 232.546 124.631 232.531 124.656 232.521C124.681 232.511 124.707 232.505 124.734 232.505H129.593C129.62 232.505 129.646 232.511 129.671 232.521C129.696 232.531 129.718 232.546 129.737 232.565C129.756 232.583 129.771 232.606 129.781 232.63C129.791 232.655 129.796 232.681 129.796 232.708V233.73H132.832V232.708C132.832 232.681 132.837 232.655 132.848 232.63C132.858 232.606 132.873 232.583 132.891 232.565C132.91 232.546 132.933 232.531 132.957 232.521C132.982 232.511 133.008 232.505 133.035 232.505H171.104C171.13 232.505 171.157 232.511 171.181 232.521C171.206 232.531 171.228 232.546 171.247 232.565C171.266 232.583 171.281 232.606 171.291 232.63C171.301 232.655 171.306 232.681 171.306 232.708V233.73H174.346V232.708C174.346 232.681 174.351 232.655 174.361 232.63C174.372 232.606 174.386 232.583 174.405 232.565C174.424 232.546 174.446 232.531 174.471 232.521C174.496 232.511 174.522 232.505 174.549 232.505H179.409C179.462 232.506 179.513 232.527 179.551 232.565C179.589 232.603 179.611 232.654 179.611 232.708V233.73H182.647V232.708C182.647 232.681 182.653 232.655 182.663 232.63C182.673 232.606 182.688 232.583 182.707 232.565C182.725 232.546 182.748 232.531 182.772 232.521C182.797 232.511 182.823 232.505 182.85 232.505H187.71C187.737 232.505 187.763 232.511 187.788 232.521C187.812 232.531 187.835 232.546 187.853 232.565C187.872 232.583 187.887 232.606 187.897 232.63C187.907 232.655 187.913 232.681 187.913 232.708V233.73H190.949V232.708C190.949 232.681 190.954 232.655 190.964 232.63C190.974 232.606 190.989 232.583 191.008 232.565C191.027 232.546 191.049 232.531 191.074 232.521C191.098 232.511 191.125 232.505 191.151 232.505H196.011C196.038 232.505 196.064 232.511 196.089 232.521C196.113 232.531 196.136 232.546 196.155 232.565C196.173 232.583 196.188 232.606 196.199 232.63C196.209 232.655 196.214 232.681 196.214 232.708V233.73H199.254V232.708C199.254 232.681 199.259 232.655 199.269 232.63C199.279 232.606 199.294 232.583 199.313 232.565C199.332 232.546 199.354 232.531 199.379 232.521C199.403 232.511 199.43 232.505 199.456 232.505H204.316C204.369 232.506 204.42 232.528 204.457 232.566C204.495 232.603 204.516 232.655 204.515 232.708V233.73H207.555V232.708C207.555 232.681 207.56 232.655 207.57 232.63C207.58 232.606 207.595 232.583 207.614 232.565C207.633 232.546 207.655 232.531 207.68 232.521C207.705 232.511 207.731 232.505 207.758 232.505H212.618C212.644 232.505 212.671 232.511 212.695 232.521C212.72 232.531 212.742 232.546 212.761 232.565C212.78 232.583 212.795 232.606 212.805 232.63C212.815 232.655 212.82 232.681 212.82 232.708V233.73H215.856V232.708C215.856 232.681 215.861 232.655 215.872 232.63C215.882 232.606 215.897 232.583 215.916 232.565C215.934 232.546 215.957 232.531 215.981 232.521C216.006 232.511 216.032 232.505 216.059 232.505H220.919C220.945 232.505 220.972 232.511 220.996 232.521C221.021 232.531 221.043 232.546 221.062 232.565C221.081 232.583 221.096 232.606 221.106 232.63C221.116 232.655 221.122 232.681 221.121 232.708V233.73H235.296C235.934 233.73 236.566 233.855 237.156 234.099C237.746 234.343 238.282 234.7 238.733 235.151C239.184 235.601 239.542 236.136 239.786 236.725C240.03 237.314 240.156 237.945 240.156 238.582Z" fill="#36344A"/>
<path d="M287.145 242.534H21.8933V243.257H287.145V242.534Z" fill="#36344A"/>
<path d="M227.144 146.229H166.914V144.99H139.603V146.229H79.1235C78.0429 146.229 77.0067 146.658 76.2426 147.42C75.4786 148.183 75.0493 149.218 75.0493 150.297V232.636C75.0493 233.714 75.4785 234.749 76.2426 235.512C77.0067 236.275 78.0429 236.703 79.1235 236.703H227.144C228.225 236.703 229.261 236.275 230.025 235.512C230.789 234.749 231.219 233.714 231.219 232.636V150.297C231.219 149.762 231.113 149.234 230.909 148.74C230.704 148.247 230.404 147.798 230.025 147.42C229.647 147.043 229.198 146.743 228.704 146.539C228.209 146.334 227.68 146.229 227.144 146.229Z" fill="#3F3D56"/>
<path fill-rule="evenodd" clip-rule="evenodd" d="M150.591 192.633C143.458 191.521 138 185.351 138 177.906C138 169.674 144.674 163 152.906 163C161.138 163 167.812 169.674 167.812 177.906C167.812 185.351 162.353 191.521 155.22 192.633V197H150.591V192.633ZM155.22 188.235V186.76C155.234 186.705 155.248 186.65 155.262 186.596C155.634 185.182 156.294 183.861 157.202 182.715C158.11 181.569 159.245 180.624 160.536 179.939C161.451 179.453 162.43 179.106 163.442 178.906C163.011 183.506 159.636 187.25 155.22 188.235ZM155.22 178.491V167.577C158.87 168.391 161.809 171.09 162.962 174.599C161.41 174.867 159.906 175.379 158.51 176.121C157.307 176.759 156.201 177.557 155.22 178.491ZM150.591 188.235V167.577C145.86 168.632 142.323 172.856 142.323 177.906C142.323 182.956 145.86 187.179 150.591 188.235Z" fill="#D0CDE1"/>
<path d="M39.2435 238.884H29.1111V249H39.2435V238.884Z" fill="#FC6681"/>
<path d="M33.093 230.936V243.22H45.3966V230.936H33.093ZM44.8611 242.685H33.625V231.471H44.8611V242.685Z" fill="#3F3D56"/>
<path d="M273.736 238.884H263.604V249H273.736V238.884Z" fill="#FC6681"/>
<path d="M267.585 230.936V243.22H279.889V230.936H267.585ZM279.353 242.685H268.117V231.471H279.353V242.685Z" fill="#3F3D56"/>
<path d="M54.4954 216.677C54.833 228.22 48.0775 232.45 39.5996 232.697C39.4027 232.703 39.2066 232.706 39.0115 232.708C38.6183 232.711 38.229 232.704 37.8434 232.688C30.176 232.37 24.1068 228.307 23.7928 217.572C23.4678 206.463 37.2793 192.029 38.3155 190.961L38.3174 190.96C38.3568 190.92 38.3769 190.899 38.3769 190.899C38.3769 190.899 54.1577 205.135 54.4954 216.677Z" fill="#05B962"/>
<path d="M38.9893 230.948L44.3748 222.952L39.0003 231.808L39.0115 232.708C38.6183 232.711 38.229 232.704 37.8435 232.688L38.1106 221.123L38.1033 221.034L38.1131 221.017L38.1387 219.924L32.241 211.375L38.1317 219.106L38.1526 219.337L38.3544 210.599L33.2603 201.736L38.3689 209.064L38.3156 190.961L38.3157 190.901L38.3174 190.96L38.6556 205.228L43.2982 199.432L38.6708 206.457L38.7721 214.273L43.0443 206.645L38.7878 215.422L38.8442 219.768L45.0571 209.142L38.8631 221.284L38.9893 230.948Z" fill="#3F3D56"/>
<path d="M288.988 216.677C289.326 228.22 282.57 232.45 274.092 232.697C273.895 232.703 273.699 232.706 273.504 232.708C273.111 232.711 272.722 232.704 272.336 232.688C264.669 232.37 258.599 228.307 258.285 217.572C257.96 206.463 271.772 192.029 272.808 190.961L272.81 190.96C272.849 190.92 272.87 190.899 272.87 190.899C272.87 190.899 288.65 205.135 288.988 216.677Z" fill="#05B962"/>
<path d="M273.482 230.948L278.867 222.952L273.493 231.808L273.504 232.708C273.111 232.711 272.721 232.704 272.336 232.688L272.603 221.123L272.596 221.034L272.606 221.017L272.631 219.924L266.733 211.375L272.624 219.106L272.645 219.337L272.847 210.599L267.753 201.736L272.861 209.064L272.808 190.961L272.808 190.901L272.81 190.96L273.148 205.228L277.791 199.432L273.163 206.457L273.265 214.273L277.537 206.645L273.28 215.422L273.337 219.768L279.55 209.142L273.356 221.284L273.482 230.948Z" fill="#3F3D56"/>
</g>
<defs>
<clipPath id="clip0">
<rect width="289" height="249" fill="white"/>
</clipPath>
</defs>
</svg>
