<svg width="655" height="516" viewBox="0 0 655 516" fill="none" xmlns="http://www.w3.org/2000/svg">
<g clip-path="url(#clip0)">
<path d="M594.63 0.337158H0.253906V381.252H594.63V0.337158Z" fill="#E6E6E6"/>
<path d="M577.634 48.1133H17.25V358.717H577.634V48.1133Z" fill="white"/>
<path d="M594.376 0H0V25.2678H594.376V0Z" fill="#2A2F43"/>
<path d="M18.7646 17.6015C21.3494 17.6015 23.4447 15.5048 23.4447 12.9183C23.4447 10.3318 21.3494 8.23511 18.7646 8.23511C16.1798 8.23511 14.0845 10.3318 14.0845 12.9183C14.0845 15.5048 16.1798 17.6015 18.7646 17.6015Z" fill="#FC6681"/>
<path d="M36.5292 17.6015C39.114 17.6015 41.2094 15.5048 41.2094 12.9183C41.2094 10.3318 39.114 8.23511 36.5292 8.23511C33.9445 8.23511 31.8491 10.3318 31.8491 12.9183C31.8491 15.5048 33.9445 17.6015 36.5292 17.6015Z" fill="#05B962"/>
<path d="M54.2939 17.6015C56.8787 17.6015 58.974 15.5048 58.974 12.9183C58.974 10.3318 56.8787 8.23511 54.2939 8.23511C51.7091 8.23511 49.6138 10.3318 49.6138 12.9183C49.6138 15.5048 51.7091 17.6015 54.2939 17.6015Z" fill="#FDCB6E"/>
<path d="M202.161 80.3411H78.1685C72.6456 80.3411 68.1685 84.8182 68.1685 90.3411V316.489C68.1685 322.012 72.6456 326.489 78.1685 326.489H202.161C207.684 326.489 212.161 322.012 212.161 316.489V90.3411C212.161 84.8182 207.684 80.3411 202.161 80.3411Z" fill="#E6E6E6"/>
<path d="M347.01 80.3411H247.017C241.494 80.3411 237.017 84.8182 237.017 90.3411V138.096C237.017 143.619 241.494 148.096 247.017 148.096H347.01C352.533 148.096 357.01 143.619 357.01 138.096V90.3411C357.01 84.8182 352.533 80.3411 347.01 80.3411Z" fill="#FF6961"/>
<path d="M347.01 166.965H247.017C241.494 166.965 237.017 171.442 237.017 176.965V229.866C237.017 235.388 241.494 239.866 247.017 239.866H347.01C352.533 239.866 357.01 235.388 357.01 229.866V176.965C357.01 171.442 352.533 166.965 347.01 166.965Z" fill="#E6E6E6"/>
<path d="M347.01 258.734H247.017C241.494 258.734 237.017 263.211 237.017 268.734V316.489C237.017 322.012 241.494 326.489 247.017 326.489H347.01C352.533 326.489 357.01 322.012 357.01 316.489V268.734C357.01 263.211 352.533 258.734 347.01 258.734Z" fill="#E6E6E6"/>
<path d="M516.715 80.3411H392.723C387.2 80.3411 382.723 84.8182 382.723 90.3411V177.611C382.723 183.134 387.2 187.611 392.723 187.611H516.715C522.238 187.611 526.715 183.134 526.715 177.611V90.3411C526.715 84.8182 522.238 80.3411 516.715 80.3411Z" fill="#E6E6E6"/>
<path d="M516.715 219.219H392.723C387.2 219.219 382.723 223.696 382.723 229.219V316.489C382.723 322.012 387.2 326.489 392.723 326.489H516.715C522.238 326.489 526.715 322.012 526.715 316.489V229.219C526.715 223.696 522.238 219.219 516.715 219.219Z" fill="#E6E6E6"/>
<path d="M471.245 195.317V172.224C471.245 164.016 474.503 156.145 480.302 150.342C486.102 144.538 493.968 141.278 502.17 141.278C510.372 141.278 518.238 144.538 524.037 150.342C529.837 156.145 533.095 164.016 533.095 172.224V195.317C533.094 196.419 532.656 197.476 531.877 198.255C531.098 199.035 530.042 199.473 528.941 199.474H475.399C474.297 199.473 473.242 199.035 472.463 198.255C471.684 197.476 471.246 196.419 471.245 195.317Z" fill="#2F2E41"/>
<path d="M547.898 495.855L536.99 498.876L520.156 458.214L536.254 453.756L547.898 495.855Z" fill="#FFB8B8"/>
<path d="M528.337 497.915L549.373 492.09L553.039 505.343L518.758 514.837C518.276 513.096 518.142 511.278 518.363 509.485C518.584 507.693 519.156 505.962 520.045 504.391C520.935 502.819 522.125 501.439 523.548 500.328C524.97 499.217 526.598 498.397 528.337 497.915Z" fill="#575A88"/>
<path d="M434.18 504.251H422.862L417.478 460.569H434.182L434.18 504.251Z" fill="#FFB8B8"/>
<path d="M414.778 501.015H436.605V514.766H401.035C401.035 512.96 401.391 511.172 402.081 509.504C402.772 507.835 403.784 506.319 405.06 505.042C406.336 503.765 407.851 502.753 409.519 502.061C411.186 501.37 412.973 501.015 414.778 501.015Z" fill="#575A88"/>
<path d="M420.533 260.126C421.341 261.217 422.378 262.117 423.571 262.764C424.764 263.411 426.085 263.788 427.44 263.869C428.794 263.95 430.15 263.732 431.412 263.232C432.674 262.732 433.81 261.961 434.742 260.973L464.827 274.513L462.091 257.58L433.941 247.318C432.179 245.861 429.945 245.102 427.662 245.184C425.378 245.266 423.204 246.184 421.552 247.762C419.899 249.341 418.882 251.472 418.695 253.75C418.507 256.029 419.161 258.297 420.533 260.126H420.533Z" fill="#FFB8B8"/>
<path d="M483.042 361.958C473.59 361.958 463.805 360.549 455.58 356.358C451.214 354.178 447.344 351.119 444.214 347.373C441.083 343.628 438.759 339.276 437.386 334.59C433.1 321.012 438.504 307.672 443.729 294.772C446.967 286.778 450.026 279.228 450.819 271.785L451.096 269.143C452.332 257.275 453.4 247.026 459.31 243.181C462.373 241.189 466.491 241.075 471.902 242.833L522.716 259.351L520.848 355.873L520.539 355.977C520.273 356.066 502.36 361.958 483.042 361.958Z" fill="#575A88"/>
<path d="M471.014 212.784C471.014 212.784 495.938 205.394 515.324 208.165C515.324 208.165 504.247 269.132 507.939 289.455C511.632 309.777 443.781 297.307 457.628 277.908L462.244 254.814C462.244 254.814 453.012 245.577 461.321 234.492L471.014 212.784Z" fill="#12E8A1"/>
<path d="M458.754 360.128L428.035 354.364L438.76 271.775C439.481 269.469 456.095 217.142 463.64 214.31C469.119 212.38 474.722 210.822 480.41 209.648L481.503 209.43L475.344 218.675L450.821 277.476L458.754 360.128Z" fill="#575A88"/>
<path d="M442.748 494.13L403.058 487.511L425.331 396.499L458.475 272.036L458.802 274.246C458.828 274.411 461.924 290.67 507.868 283.456L508.272 283.393L508.384 283.786L563.913 480.118L518.687 487.66L477.439 344.417L442.748 494.13Z" fill="#2A2F43"/>
<path d="M497.76 375.584L497.785 374.885C497.813 374.109 500.543 296.946 499.631 265.913C498.716 234.774 508.791 207.808 508.893 207.539L508.975 207.323L509.197 207.259C522.232 203.533 533.539 214.654 533.652 214.767L533.811 214.925L530.099 245.572L545.992 357.014L497.76 375.584Z" fill="#575A88"/>
<path d="M495.815 198.936C508.337 198.936 518.488 188.779 518.488 176.248C518.488 163.718 508.337 153.56 495.815 153.56C483.293 153.56 473.142 163.718 473.142 176.248C473.142 188.779 483.293 198.936 495.815 198.936Z" fill="#FFB8B8"/>
<path d="M463.928 174.071C463.936 167.581 466.515 161.359 471.101 156.77C475.688 152.181 481.906 149.599 488.392 149.592H493.007C499.493 149.599 505.711 152.181 510.297 156.77C514.884 161.359 517.463 167.581 517.47 174.071V174.533H507.716L504.389 165.211L503.724 174.533H498.682L497.004 169.829L496.668 174.533H463.928V174.071Z" fill="#2F2E41"/>
<path d="M493.584 202.071C493.126 201.451 492.852 200.713 492.795 199.944C492.737 199.175 492.898 198.405 493.258 197.723C498.15 188.413 504.998 171.211 495.908 160.603L495.255 159.84H521.645V199.487L497.671 203.72C497.429 203.763 497.183 203.785 496.936 203.785C496.282 203.785 495.637 203.63 495.054 203.332C494.471 203.034 493.967 202.602 493.584 202.071Z" fill="#2F2E41"/>
<path d="M387.333 38.3784C368.866 22.7858 346.268 12.9003 322.29 9.92484C298.311 6.94935 273.985 11.0122 252.271 21.6189C230.558 32.2256 212.394 48.9188 199.989 69.6674C187.584 90.4159 181.473 114.325 182.4 138.486C183.327 162.646 191.252 186.016 205.21 205.752C219.168 225.488 238.558 240.738 261.02 249.648C283.482 258.558 308.048 260.742 331.728 255.936C355.408 251.13 377.182 239.54 394.399 222.576L547.288 351.668C549.615 353.636 552.627 354.599 555.663 354.344C558.698 354.09 561.508 352.639 563.475 350.312C565.442 347.984 566.404 344.969 566.15 341.932C565.896 338.894 564.446 336.082 562.12 334.114L562.103 334.1L409.213 205.008C426.974 179.501 434.576 148.276 430.528 117.452C426.481 86.6286 411.076 58.4286 387.333 38.3784ZM377.476 192.577C365.566 206.702 349.737 216.976 331.991 222.099C314.245 227.222 295.38 226.964 277.781 221.358C260.181 215.752 244.639 205.05 233.118 190.605C221.597 176.159 214.616 158.62 213.056 140.204C211.497 121.789 215.431 103.324 224.359 87.1456C233.287 70.9668 246.809 57.8006 263.214 49.3119C279.62 40.8232 298.174 37.3932 316.528 39.4557C334.882 41.5182 352.212 48.9806 366.328 60.8992H366.328C375.7 68.8128 383.423 78.4962 389.056 89.3964C394.689 100.297 398.121 112.2 399.156 124.428C400.191 136.655 398.809 148.967 395.09 160.66C391.37 172.353 385.385 183.199 377.476 192.577Z" fill="#3F3D56"/>
<path opacity="0.3" d="M245.884 203.733C227.969 188.606 216.395 167.29 213.46 144.018C210.524 120.747 216.442 97.2215 230.038 78.1138C228.252 79.9131 226.526 81.7975 224.859 83.767C216.951 93.1456 210.966 103.991 207.246 115.684C203.526 127.377 202.145 139.689 203.18 151.917C204.215 164.144 207.647 176.048 213.28 186.948C218.912 197.848 226.635 207.532 236.008 215.445C245.38 223.359 256.219 229.348 267.904 233.07C279.59 236.792 291.893 238.175 304.113 237.139C316.332 236.103 328.228 232.669 339.121 227.033C350.014 221.396 359.691 213.668 367.6 204.29C369.263 202.318 370.829 200.298 372.298 198.231C355.762 214.856 333.583 224.651 310.164 225.671C286.745 226.69 263.8 218.859 245.884 203.733Z" fill="black"/>
<path d="M503.094 299.79C504.413 300.112 505.786 300.141 507.117 299.876C508.447 299.61 509.704 299.055 510.797 298.251C511.891 297.446 512.795 296.412 513.445 295.22C514.096 294.029 514.478 292.709 514.564 291.353L546.35 282.525L533.429 271.252L505.225 281.364C502.94 281.371 500.737 282.216 499.033 283.739C497.329 285.263 496.243 287.359 495.981 289.63C495.718 291.901 496.297 294.19 497.608 296.062C498.92 297.935 500.872 299.261 503.094 299.79Z" fill="#FFB8B8"/>
<path d="M516.306 295.116L514.372 276.728L540.924 262.069L523.613 241.1L526.437 217.545L533.472 214.528L533.69 214.81C537.007 219.077 566.098 256.638 566.098 261.281C566.098 266.05 560.532 280.054 552.918 283.864C545.574 287.538 517.995 294.68 516.825 294.983L516.306 295.116Z" fill="#575A88"/>
<path d="M654.077 516H302.36C302.115 516 301.88 515.903 301.707 515.73C301.534 515.556 301.437 515.321 301.437 515.076C301.437 514.831 301.534 514.596 301.707 514.423C301.88 514.25 302.115 514.153 302.36 514.153H654.077C654.322 514.153 654.557 514.25 654.73 514.423C654.903 514.596 655 514.831 655 515.076C655 515.321 654.903 515.556 654.73 515.73C654.557 515.903 654.322 516 654.077 516Z" fill="#CCCCCC"/>
<path d="M306.03 113.5L318.823 100.707C320.392 99.1371 320.392 96.5918 318.823 95.0206L315.979 92.1774C314.41 90.6075 311.864 90.6075 310.293 92.1774L297.5 104.97L284.707 92.1774C283.137 90.6075 280.592 90.6075 279.021 92.1774L276.177 95.0206C274.608 96.5905 274.608 99.1358 276.177 100.707L288.97 113.5L276.177 126.293C274.608 127.863 274.608 130.408 276.177 131.979L279.021 134.823C280.59 136.392 283.137 136.392 284.707 134.823L297.5 122.03L310.293 134.823C311.863 136.392 314.41 136.392 315.979 134.823L318.823 131.979C320.392 130.41 320.392 127.864 318.823 126.293L306.03 113.5Z" fill="white"/>
</g>
<defs>
<clipPath id="clip0">
<rect width="655" height="516" fill="white"/>
</clipPath>
</defs>
</svg>
