<svg width="214" height="150" viewBox="0 0 214 150" fill="none" xmlns="http://www.w3.org/2000/svg">
<path d="M105.765 86.0532L103.625 85.6821C103.42 85.646 103.216 85.6021 103.011 85.5648C106.398 83.4558 108.968 80.254 110.301 76.4853C111.634 72.7165 111.649 68.6051 110.344 64.8265C109.04 61.0479 106.493 57.8268 103.123 55.6925C99.752 53.5582 95.758 52.6376 91.797 53.082L94.6012 59.7768L87.9573 53.9564C87.9418 53.9603 87.9267 53.9654 87.912 53.9717C85.7363 54.7404 83.7329 55.9316 82.0162 57.4772C80.2994 59.0228 78.9029 60.8925 77.9064 62.9796C76.9098 65.0667 76.3328 67.3303 76.2083 69.6411C76.0837 71.9519 76.414 74.2647 77.1804 76.4475C77.2916 76.7649 77.4239 77.068 77.5508 77.3747C75.6752 76.4292 73.8759 75.3285 72.4086 73.9192C69.438 71.0633 67.8104 67.1223 65.9915 62.2669C62.3881 52.6451 58.9188 42.8841 55.588 33.1018C59.2617 31.1073 62.1063 27.8639 63.6107 23.9543C65.1151 20.0446 65.1808 15.7249 63.7959 11.7711C63.6175 11.2624 63.4107 10.7725 63.1916 10.2915C63.1368 10.1711 63.0815 10.0515 63.0243 9.93278C62.8016 9.47156 62.5665 9.01968 62.3085 8.58599C62.2663 8.51489 62.219 8.44836 62.176 8.37803C61.9514 8.01237 61.7145 7.65754 61.4653 7.31352C61.3726 7.18436 61.2801 7.05556 61.1842 6.92946C60.9018 6.55905 60.6094 6.19862 60.3011 5.85452C60.1981 5.73938 60.0887 5.63181 59.983 5.51965C59.7461 5.26889 59.5027 5.0257 59.2528 4.79007C59.1211 4.66603 58.9908 4.54109 58.8556 4.42144C58.8209 4.39075 58.7885 4.35724 58.7536 4.3268C58.7518 4.32904 58.7505 4.33145 58.7488 4.33367C55.655 1.62873 51.7143 0.0969127 47.6116 0.00444499C43.509 -0.0880227 39.5037 1.26471 36.2919 3.82753L39.941 12.5396L33.3726 6.78853C31.0739 9.72682 29.7711 13.3252 29.6543 17.0586C29.5375 20.7921 30.6128 24.4653 32.7234 27.5425C32.7173 27.5446 32.7111 27.5462 32.705 27.5484C32.7767 27.6541 32.8582 27.7509 32.932 27.8548C33.0705 28.0497 33.2122 28.2412 33.3573 28.4292C33.544 28.6703 33.7377 28.9033 33.9356 29.1331C34.085 29.3066 34.2322 29.4815 34.3877 29.6483C34.6152 29.8924 34.8534 30.1236 35.0933 30.3534C35.2333 30.4875 35.3672 30.6283 35.5112 30.7575C35.8888 31.0959 36.2794 31.4169 36.6831 31.7207C36.8247 31.8271 36.974 31.9209 37.1185 32.0228C37.402 32.2228 37.6869 32.4199 37.9811 32.6024C38.1637 32.7157 38.3511 32.8191 38.5375 32.9255C38.8073 33.0797 39.079 33.2291 39.3564 33.3687C39.5531 33.4676 39.7512 33.5615 39.9514 33.653C40.2362 33.7832 40.5247 33.904 40.8161 34.019C41.0117 34.096 41.2063 34.1741 41.4046 34.2442C41.7317 34.3598 42.0636 34.4602 42.3975 34.5563C42.566 34.6049 42.7319 34.6605 42.902 34.7041C43.4029 34.8322 43.9093 34.9413 44.4217 35.0249C44.5181 35.0407 44.6162 35.0467 44.7129 35.0608C45.1376 35.1228 45.5646 35.1728 45.995 35.2034C46.18 35.2165 46.3661 35.2183 46.5519 35.2256C46.8998 35.2392 47.248 35.2461 47.5981 35.2386C47.8023 35.2342 48.0064 35.2237 48.2111 35.2121C48.552 35.1927 48.8932 35.1629 49.2348 35.1227C49.4367 35.0992 49.6381 35.0759 49.8402 35.0452C50.2061 34.9895 50.5715 34.9167 50.9371 34.8369C50.9611 34.8317 50.9851 34.8285 51.0092 34.8232C52.415 38.9502 53.8469 43.0684 55.3049 47.1777C53.5267 45.5735 51.4406 44.3507 49.1745 43.5845C46.9083 42.8182 44.5101 42.5246 42.1268 42.7217C39.7435 42.9188 37.4255 43.6025 35.3151 44.7307C33.2046 45.8589 31.3462 47.4079 29.8539 49.2826L35.9262 56.0202L27.7045 52.7273C25.7075 56.9288 25.4547 61.7539 27.0018 66.1422C27.5378 67.6843 28.289 69.1423 29.2329 70.4729C31.2642 73.3557 34.1121 75.5595 37.4072 76.7985C40.7022 78.0376 44.2923 78.2547 47.7118 77.4217C51.1313 76.5886 54.2224 74.7439 56.5842 72.1268C58.9459 69.5098 60.4694 66.241 60.9569 62.7446C61.1114 63.1587 61.2606 63.5779 61.4155 63.9916C63.0206 68.2751 65.0174 73.6059 69.0275 77.46C71.7458 80.0723 75.0902 81.7296 78.2989 83.1308C80.3883 84.0432 82.5056 84.8866 84.6506 85.6612C87.0353 87.1119 89.7294 87.9733 92.511 88.1746C95.8956 89.1178 99.3228 89.9053 102.782 90.5133L104.939 90.8863C106.878 91.2195 108.865 91.5625 110.838 91.9577C110.554 92.0423 110.27 92.1229 109.987 92.2227C106.472 93.4639 103.441 95.7943 101.333 98.877C99.2246 101.96 98.1478 105.635 98.2582 109.372L111.781 113.537L99.5444 115.486C100.664 118.246 102.462 120.676 104.772 122.55C107.081 124.424 109.826 125.68 112.75 126.2C115.674 126.721 118.683 126.489 121.494 125.528C124.305 124.566 126.827 122.905 128.824 120.7C128.7 121.117 128.575 121.534 128.45 121.95C128.202 122.777 127.955 123.6 127.719 124.414C124.499 135.515 125.884 144.246 131.621 149L134.734 145.219C129.151 140.592 130.883 131.057 132.412 125.784C132.644 124.984 132.886 124.176 133.13 123.364C135.228 116.374 137.605 108.451 134.526 101.17C129.885 90.197 116.511 87.8994 105.765 86.0532Z" fill="#E2E2E2"/>
<path d="M162.122 148.689H69.4688C66.4304 148.689 63.5165 147.482 61.368 145.332C59.2196 143.183 58.0126 140.268 58.0126 137.228V94.7592C58.0126 94.1425 58.1382 93.5322 58.3817 92.9656C58.6252 92.3991 58.9815 91.8881 59.4288 91.4638L108.526 44.9025C110.489 43.0409 113.091 42.0032 115.795 42.0032C118.5 42.0032 121.102 43.0409 123.065 44.9025L169.876 89.2962C171.046 90.4052 171.977 91.7409 172.614 93.2218C173.25 94.7028 173.578 96.2979 173.578 97.9099V137.228C173.578 138.733 173.282 140.223 172.706 141.614C172.131 143.005 171.287 144.268 170.223 145.332C169.159 146.397 167.896 147.241 166.506 147.817C165.116 148.393 163.627 148.689 162.122 148.689Z" fill="#3F3D56"/>
<path opacity="0.1" d="M58.0126 95.4565H172.615V141.768C172.615 143.604 171.886 145.364 170.589 146.662C169.292 147.96 167.532 148.689 165.698 148.689H64.9302C63.0956 148.689 61.336 147.96 60.0387 146.662C58.7414 145.364 58.0126 143.604 58.0126 141.768V95.4565Z" fill="black"/>
<path d="M151.987 58.4643H79.3636C75.606 58.4643 72.5602 61.5118 72.5602 65.2706V137.927C72.5602 141.686 75.606 144.733 79.3636 144.733H151.987C155.744 144.733 158.79 141.686 158.79 137.927V65.2706C158.79 61.5118 155.744 58.4643 151.987 58.4643Z" fill="white" stroke="#3F3D56"/>
<path opacity="0.1" d="M158.29 97.3715V144.233H73.0602V97.3715L115.675 117.978L158.29 97.3715Z" fill="black"/>
<path d="M115.675 120.628L61.0718 94.2239C60.7341 94.0606 60.3604 93.9858 59.9858 94.0064C59.6113 94.0271 59.2481 94.1425 58.9303 94.342C58.6126 94.5414 58.3506 94.8183 58.1691 95.1467C57.9875 95.4751 57.8922 95.8442 57.8922 96.2195V141.648C57.8922 142.557 58.0712 143.457 58.4188 144.297C58.7665 145.136 59.276 145.899 59.9184 146.542C60.5607 147.184 61.3233 147.694 62.1626 148.042C63.0019 148.39 63.9014 148.569 64.8099 148.569H166.54C167.449 148.569 168.348 148.39 169.188 148.042C170.027 147.694 170.789 147.184 171.432 146.542C172.074 145.899 172.584 145.136 172.931 144.297C173.279 143.457 173.458 142.557 173.458 141.648V96.9978C173.458 96.5398 173.342 96.0893 173.12 95.6886C172.899 95.2879 172.579 94.95 172.191 94.7066C171.803 94.4632 171.36 94.3224 170.903 94.2972C170.446 94.272 169.99 94.3633 169.578 94.5626L115.675 120.628Z" fill="#3F3D56"/>
<path d="M104.239 66.7927H80.4034V70.1649H104.239V66.7927Z" fill="#E2E2EC"/>
<path d="M149.261 79.0771H78.4774V81.0041H149.261V79.0771Z" fill="#C1C1C1"/>
<path d="M149.261 85.5807H78.4774V87.5077H149.261V85.5807Z" fill="#C1C1C1"/>
<path d="M149.261 92.0843H78.4774V94.0112H149.261V92.0843Z" fill="#C1C1C1"/>
<path d="M14.6755 148.569H213.063" stroke="#3F3D56" stroke-miterlimit="10"/>
<path d="M0 118.908C0 133.11 8.90544 144.602 19.9109 144.602L0 118.908Z" fill="#46455B"/>
<path d="M19.9109 144.602C19.9109 130.241 29.8488 118.62 42.1302 118.62L19.9109 144.602Z" fill="#05B962"/>
<path d="M7.21411 120.196C7.21411 133.686 12.8929 144.602 19.9109 144.602L7.21411 120.196Z" fill="#05B962"/>
<path d="M19.9109 144.602C19.9109 126.251 31.3976 111.402 45.593 111.402L19.9109 144.602Z" fill="#46455B"/>
<path d="M15.7222 144.783C15.7222 144.783 18.5459 144.696 19.3968 144.09C20.2478 143.484 23.7404 142.76 23.9515 143.732C24.1626 144.704 28.195 148.568 25.007 148.594C21.8191 148.619 17.5997 148.097 16.7504 147.579C15.901 147.062 15.7222 144.783 15.7222 144.783Z" fill="#A8A8A8"/>
<path opacity="0.2" d="M25.0639 148.255C21.876 148.281 17.6566 147.758 16.8073 147.241C16.1604 146.847 15.9027 145.432 15.8164 144.78C15.7567 144.782 15.7222 144.783 15.7222 144.783C15.7222 144.783 15.901 147.062 16.7504 147.579C17.5997 148.097 21.8191 148.619 25.007 148.594C25.9273 148.586 26.2451 148.259 26.2277 147.774C26.0998 148.067 25.7489 148.25 25.0639 148.255Z" fill="black"/>
<path d="M173.279 41.2069C173.135 42.4967 172.152 43.5357 171.787 44.7813C171.239 46.6561 172.187 48.668 173.484 50.1281C174.531 51.2939 175.798 52.2402 177.213 52.9123C178.628 53.5844 180.162 53.9688 181.726 54.0434C182.186 54.0838 182.649 54.0333 183.089 53.8948C183.482 53.7366 183.836 53.4947 184.126 53.1859C185.103 52.2046 185.627 50.845 185.836 49.476C186.045 48.1069 185.964 46.7121 185.882 45.3296C185.882 45.0439 185.831 44.7604 185.729 44.4933C185.596 44.2389 185.413 44.0139 185.191 43.8316C184.488 43.1862 183.713 42.6232 182.882 42.1536C182.506 41.9852 182.175 41.7316 181.914 41.4129C181.757 41.1399 181.656 40.8386 181.615 40.5262L181.36 39.2257C181.315 38.851 181.187 38.491 180.986 38.1716C180.535 37.5634 179.673 37.4807 178.917 37.451L176.147 37.3423C175.285 37.3085 174.15 37.0613 173.309 37.2306C172.524 37.3887 172.784 38.1128 172.927 38.7722C173.134 39.5683 173.252 40.3848 173.279 41.2069Z" fill="#A0616A"/>
<path opacity="0.1" d="M173.279 41.2069C173.135 42.4967 172.152 43.5357 171.787 44.7813C171.239 46.6561 172.187 48.668 173.484 50.1281C174.531 51.2939 175.798 52.2402 177.213 52.9123C178.628 53.5844 180.162 53.9688 181.726 54.0434C182.186 54.0838 182.649 54.0333 183.089 53.8948C183.482 53.7366 183.836 53.4947 184.126 53.1859C185.103 52.2046 185.627 50.845 185.836 49.476C186.045 48.1069 185.964 46.7121 185.882 45.3296C185.882 45.0439 185.831 44.7604 185.729 44.4933C185.596 44.2389 185.413 44.0139 185.191 43.8316C184.488 43.1862 183.713 42.6232 182.882 42.1536C182.506 41.9852 182.175 41.7316 181.914 41.4129C181.757 41.1399 181.656 40.8386 181.615 40.5262L181.36 39.2257C181.315 38.851 181.187 38.491 180.986 38.1716C180.535 37.5634 179.673 37.4807 178.917 37.451L176.147 37.3423C175.285 37.3085 174.15 37.0613 173.309 37.2306C172.524 37.3887 172.784 38.1128 172.927 38.7722C173.134 39.5683 173.252 40.3848 173.279 41.2069Z" fill="black"/>
<path d="M190.9 99.2598C190.508 103.565 190.116 107.869 189.723 112.173C189.416 115.559 189.103 118.96 188.5 122.303C188.292 123.455 188.048 124.602 187.759 125.738C186.954 128.893 185.787 131.976 185.41 135.21C185.398 135.303 185.388 135.399 185.379 135.494C185.336 136.209 185.201 136.916 184.976 137.596C184.788 138.089 184.499 138.54 184.294 139.027C183.888 140.003 183.835 141.082 183.785 142.139C182.356 141.334 180.791 140.799 179.169 140.56C178.386 140.443 177.514 140.36 176.981 139.775C176.39 139.128 176.456 138.139 176.555 137.27C176.866 134.574 177.176 131.878 177.486 129.184C177.587 128.025 177.784 126.876 178.075 125.75C178.182 125.375 178.311 125.006 178.442 124.637C178.622 124.13 178.804 123.622 178.941 123.101C179.138 122.258 179.276 121.402 179.353 120.541C179.672 117.828 180.057 115.121 180.394 112.411L180.412 112.268C180.917 108.159 181.302 104.031 181.191 99.8924C181.175 99.2797 181.149 98.667 181.109 98.0523C181.054 97.1619 180.973 96.69 181.71 96.1328C182.524 95.5181 183.597 95.0878 184.528 94.6852C185.03 94.4671 190.552 92.506 190.68 92.9363C190.939 93.8541 191.075 94.8024 191.085 95.756C191.089 96.9265 191.027 98.0963 190.9 99.2598Z" fill="#605D82"/>
<path opacity="0.1" d="M188.5 122.303C188.292 123.455 188.048 124.602 187.759 125.738C186.954 128.893 185.787 131.976 185.41 135.21C185.398 135.303 185.388 135.399 185.379 135.494C182.917 131.976 180.844 128.193 178.441 124.637C178.622 124.13 178.804 123.622 178.941 123.1C179.138 122.258 179.276 121.402 179.353 120.541C179.672 117.828 180.057 115.121 180.394 112.411L180.412 112.268C180.553 112.843 180.754 113.402 181.012 113.935C182.625 117.215 186.459 118.873 188.334 122.012C188.391 122.109 188.447 122.206 188.5 122.303Z" fill="black"/>
<path d="M168.525 93.4638C168.607 96.0943 169.028 98.7011 169.448 101.299L170.314 106.659C170.789 109.593 171.282 112.587 172.67 115.214C173.708 117.18 175.204 118.857 176.557 120.621C179.883 124.956 182.382 129.867 185.536 134.329C186.452 135.626 187.763 137.029 189.327 136.758C190.354 136.58 191.1 135.725 191.907 135.066C192.859 134.288 194.006 133.719 194.755 132.745C195.503 131.77 195.65 130.15 194.636 129.457C194.269 129.253 193.879 129.094 193.475 128.981C191.902 128.383 190.884 126.847 190.237 125.293C189.589 123.74 189.197 122.069 188.334 120.625C186.459 117.486 182.625 115.828 181.011 112.547C180.107 110.709 180.021 108.591 179.952 106.545L179.776 101.327C179.757 100.756 179.742 100.163 179.974 99.641C180.591 98.2521 182.455 98.1227 183.964 97.9467C185.677 97.7458 187.336 97.2221 188.854 96.4032C189.723 95.9336 190.572 95.3349 191.037 94.463C191.461 93.6675 191.52 92.7344 191.57 91.8341L192.092 82.378C192.137 81.5645 192.178 80.7233 191.891 79.9606C191.172 78.0456 188.755 77.4198 186.712 77.5112C182.91 77.6812 179.401 79.3173 175.816 80.4221C174.928 80.7023 174.027 80.9375 173.115 81.1269C172.311 81.2884 171.337 81.2214 170.57 81.4802C169.206 81.9404 169.24 84.9257 169.047 86.1641C168.647 88.5759 168.473 91.0196 168.525 93.4638Z" fill="#605D82"/>
<path d="M188.811 137.155C189.146 137.493 189.256 137.988 189.343 138.457C189.828 141.054 190.079 143.689 190.096 146.331C190.074 146.578 190.123 146.826 190.238 147.045C190.332 147.176 190.46 147.278 190.608 147.343C191.577 147.805 192.701 147.161 193.509 146.453C195.005 145.142 196.272 143.381 196.357 141.392C196.341 140.88 196.359 140.367 196.41 139.857C196.542 139.109 196.979 138.456 197.364 137.801C198.019 136.685 198.548 135.5 198.94 134.267C199.087 133.804 199.185 133.22 198.822 132.897C198.693 132.796 198.547 132.72 198.391 132.673L194.014 131.047C193.635 130.906 192.691 133.331 192.541 133.596C192.175 134.245 191.81 134.613 191.075 134.763C190.325 134.916 189.432 134.696 188.732 135.071C187.547 135.705 188.141 136.478 188.811 137.155Z" fill="#535070"/>
<path d="M182.058 138.651C181.976 138.489 181.863 138.346 181.725 138.229C181.522 138.1 181.292 138.022 181.053 138C180.22 137.859 179.232 137.766 178.657 138.385C178.118 138.966 178.21 139.913 177.76 140.564C177.617 140.771 177.424 140.941 177.3 141.159C177.146 141.493 177.077 141.859 177.098 142.226C177.075 143.237 177.052 144.249 177.121 145.257C177.18 146.102 177.322 146.988 177.85 147.65C178.698 148.712 180.227 148.865 181.584 148.934L182.683 148.99C182.986 149.027 183.293 148.998 183.584 148.907C183.764 148.824 183.926 148.705 184.059 148.558C184.193 148.411 184.295 148.239 184.361 148.052C184.933 146.629 184.027 145.096 183.469 143.668C182.828 142.026 182.943 140.204 182.058 138.651Z" fill="#535070"/>
<path d="M172.961 33.9397C172.948 33.7955 172.969 33.6501 173.023 33.5157C173.184 33.2309 173.604 33.3085 173.921 33.3884C175.197 33.7101 176.54 33.4189 177.853 33.4941C179.166 33.5692 180.645 34.2259 180.909 35.5149C181.862 34.839 182.684 33.9945 183.333 33.023C183.698 32.4774 184.015 31.8525 183.966 31.1982C183.894 30.2545 183.103 29.5487 182.37 28.9502L180.186 27.166C179.899 26.9024 179.568 26.6918 179.207 26.5439C178.703 26.3714 178.153 26.4536 177.62 26.454C176.03 26.455 174.334 25.731 172.92 26.4583C172.329 26.7621 171.885 27.2827 171.456 27.7904L169.506 30.0994C169.359 30.2465 169.252 30.4284 169.195 30.6281C169.139 30.9099 169.284 31.1881 169.334 31.4709C169.426 31.9867 169.204 32.5372 169.375 33.0326C169.658 33.8549 170.657 33.9714 171.267 34.4428C171.494 34.6185 171.85 35.214 172.121 35.2067C172.61 35.1936 172.948 34.3197 172.961 33.9397Z" fill="#3F3D56"/>
<path d="M176.269 40.7459C179.717 40.7459 182.513 37.9493 182.513 34.4997C182.513 31.05 179.717 28.2535 176.269 28.2535C172.821 28.2535 170.026 31.05 170.026 34.4997C170.026 37.9493 172.821 40.7459 176.269 40.7459Z" fill="#A0616A"/>
<path d="M177.732 48.1696C177.52 47.5625 177.12 47.0388 176.591 46.6743C176.061 46.3098 175.43 46.1235 174.787 46.1424C174.603 46.1767 174.414 46.1526 174.244 46.0737C174.148 46 174.072 45.9043 174.021 45.7945C173.641 45.1115 173.336 44.3897 173.111 43.6415C173.011 43.3109 172.875 42.9211 172.54 42.8352C172.402 42.817 172.261 42.8369 172.133 42.8926C172.005 42.9483 171.895 43.0378 171.814 43.1514C171.655 43.3802 171.481 43.5984 171.294 43.8045C170.509 44.507 169.117 43.8667 168.284 44.5112C168.148 44.6164 168.035 44.7513 167.892 44.847C167.749 44.9332 167.595 44.9994 167.434 45.0436C165.824 45.5693 164.247 46.1875 162.709 46.8952C163.263 50.2353 163.831 53.6337 165.131 56.76C165.749 58.2478 166.45 59.7049 166.945 61.2382C168.042 64.6353 168.091 68.2702 168.103 71.8403C168.112 74.2837 168.099 76.7793 167.309 79.0913C167.097 79.6022 166.947 80.1371 166.863 80.6841C166.815 81.2351 166.976 81.8425 167.422 82.169C167.68 82.3382 167.976 82.4422 168.284 82.4719C169.653 82.6729 171.033 82.3084 172.382 81.996C175.995 81.1588 179.68 80.6798 183.358 80.202L189.522 79.4013C189.964 79.3713 190.396 79.2595 190.797 79.0716C191.925 78.4538 192.032 76.7565 191.332 75.6776C190.996 75.1604 190.522 74.7361 190.24 74.1878C189.958 73.6394 189.934 72.8727 190.419 72.4929C191.407 71.7203 191.113 70.287 191.16 69.0334C191.292 65.5281 191.274 62.0214 191.106 58.5134C191.057 57.7872 191.045 57.0589 191.072 56.3316C191.181 55.099 191.409 53.8798 191.751 52.6908L193.624 45.3134C193.135 44.5399 192.198 44.0491 191.311 43.8263C190.423 43.6035 189.499 43.538 188.625 43.267C186.835 42.712 185.241 41.3035 183.371 41.4347C183.23 41.4373 183.091 41.4712 182.964 41.5342C182.542 41.7732 182.609 42.3812 182.582 42.8653C182.522 43.9365 181.735 44.8317 180.865 45.4593C179.996 46.087 179.003 46.5447 178.204 47.2605C178.062 47.3672 177.946 47.5042 177.865 47.6615C177.783 47.8188 177.737 47.9924 177.732 48.1696Z" fill="#3F3D56"/>
<path d="M152.993 55.1673C152.579 55.4361 152.139 55.6626 151.68 55.8433C151.23 55.9772 150.806 56.1835 150.422 56.4541C150.245 56.607 150.097 56.7901 149.985 56.9948C149.773 57.3698 149.666 57.7946 149.675 58.225C149.684 58.6554 149.808 59.0755 150.035 59.4415C150.261 59.8076 150.581 60.1061 150.963 60.3059C151.344 60.5057 151.771 60.5996 152.201 60.5776C152.772 60.5136 153.327 60.348 153.84 60.0887L158.244 58.1796C158.989 57.8565 159.794 57.4778 160.146 56.7456C160.187 56.6773 160.203 56.5965 160.189 56.5179C160.154 56.4349 160.089 56.3673 160.008 56.3277C159.015 55.6824 158.146 54.8629 157.444 53.9088C157.263 53.6634 157.042 53.0839 156.787 52.9368C155.855 52.3998 153.739 54.6829 152.993 55.1673Z" fill="#A0616A"/>
<path d="M200.069 53.6008L201.692 55.4562C202.041 55.8545 202.39 56.2533 202.708 56.6767C203.488 57.7523 204.114 58.932 204.567 60.1812C204.92 61.1076 205.213 62.0945 205.089 63.0782C205.008 63.5825 204.871 64.0765 204.683 64.5515C204.386 65.4651 204.017 66.3539 203.58 67.2097C203.213 67.8599 202.798 68.4819 202.339 69.0709C201.082 70.7376 199.706 72.3115 198.223 73.7805C197.668 74.3302 197.436 75.219 197.194 75.962C196.748 77.3325 195.688 78.3999 194.662 79.4121C194.333 79.7602 193.969 80.0738 193.576 80.3479C192.986 80.7275 192.298 80.9236 191.597 80.9115C191.291 80.9137 190.987 80.8508 190.706 80.727C190.005 80.3936 189.648 79.5818 189.575 78.8081C189.51 78.1059 189.627 77.3988 189.916 76.7557C190.848 74.691 193.24 73.7963 194.931 72.2898C195.923 71.4065 196.681 70.2969 197.429 69.1993C197.937 68.514 198.361 67.7703 198.692 66.9841C199.07 65.976 198.923 64.7826 199.253 63.7578C199.392 63.3246 199.64 62.9335 199.79 62.5039C199.94 62.0742 199.978 61.5642 199.715 61.1924C199.518 60.9561 199.265 60.7714 198.98 60.654C197.9 60.1055 196.69 59.3996 196.484 58.2054C196.401 57.5431 196.574 56.8743 196.967 56.3352C197.359 55.8032 197.817 55.3232 198.329 54.9068C198.802 54.4889 199.596 54.0187 200.069 53.6008Z" fill="#A0616A"/>
<path d="M151.951 57.7573C151.664 57.178 151.306 56.5869 150.728 56.2988C150.447 56.177 150.145 56.1135 149.839 56.1122C149.533 56.1109 149.231 56.1719 148.949 56.2914C148.388 56.5333 147.863 56.851 147.388 57.2356L145.989 58.2676C145.672 58.4758 145.391 58.735 145.158 59.0348C144.937 59.3984 144.79 59.802 144.726 60.2225C144.482 61.1815 144.407 62.1757 144.505 63.1604C144.728 64.7391 145.679 66.1174 146.726 67.3192C147.381 68.0701 148.188 68.828 149.184 68.86C149.613 68.8738 150.091 68.7044 150.27 68.3133C150.332 68.1582 150.365 67.9931 150.367 67.8261C150.474 66.0652 149.845 64.3451 149.11 62.7411C148.876 62.3211 148.738 61.8545 148.705 61.3747C148.7 61.294 148.721 61.2137 148.765 61.1459C148.828 61.0799 148.913 61.0386 149.004 61.0292C150.009 60.8303 151.74 61.6113 152.445 60.4948C152.902 59.771 152.276 58.4137 151.951 57.7573Z" fill="#A0616A"/>
<path d="M172.634 31.9742C172.62 31.83 172.641 31.6846 172.695 31.5503C172.856 31.2655 173.277 31.343 173.594 31.423C174.869 31.7446 176.213 31.4535 177.526 31.5286C178.839 31.6038 180.318 32.2605 180.582 33.5494C181.535 32.8735 182.357 32.029 183.006 31.0575C183.37 30.512 183.688 29.887 183.638 29.2327C183.567 28.289 182.775 27.5832 182.043 26.9847L179.858 25.2006C179.571 24.937 179.24 24.7263 178.88 24.5784C178.376 24.406 177.826 24.4881 177.292 24.4885C175.702 24.4895 174.007 23.7655 172.593 24.4928C172.002 24.7966 171.557 25.3173 171.129 25.8249L169.179 28.1339C169.032 28.281 168.925 28.4629 168.867 28.6626C168.812 28.9445 168.956 29.2226 169.007 29.5054C169.099 30.0212 168.877 30.5717 169.048 31.0671C169.331 31.8895 170.329 32.0059 170.939 32.4773C171.167 32.6531 171.523 33.2486 171.794 33.2413C172.283 33.2282 172.621 32.3542 172.634 31.9742Z" fill="#3F3D56"/>
<path d="M159.373 49.0917C159.121 49.2544 158.9 49.4605 158.72 49.7004C158.491 50.0466 158.444 50.4837 158.248 50.8493C157.827 51.6315 156.843 51.9098 156.229 52.5516C156.131 52.6398 156.064 52.7562 156.035 52.8846C156.032 53.0587 156.09 53.2284 156.2 53.3638L159.16 58.0203C160.146 58.1071 161.092 57.4892 162.078 57.5713C162.446 57.6019 162.823 57.7291 163.176 57.6203C163.429 57.5081 163.666 57.3632 163.881 57.1891C164.469 56.8169 165.253 56.7736 165.746 56.2825C166.22 55.8113 166.28 55.074 166.275 54.4057C166.283 53.8253 166.224 53.246 166.099 52.6792C165.663 50.8918 164.297 49.5202 163.44 47.937C163.023 47.1662 162.796 46.715 161.913 47.2442C161.026 47.7762 160.208 48.4809 159.373 49.0917Z" fill="#3F3D56"/>
<path d="M195.329 46.737C195.885 47.0984 196.387 47.538 196.818 48.0421C197.269 48.624 197.525 49.336 197.958 49.9312C198.378 50.5081 198.95 50.9549 199.426 51.4861C200.148 52.2918 200.638 53.2747 201.118 54.2444C199.945 55.7757 198.665 57.2226 197.289 58.5746C197.135 58.7552 196.934 58.8879 196.707 58.957C196.553 58.9733 196.397 58.9513 196.254 58.8928C196.111 58.8343 195.984 58.7411 195.885 58.6217C195.672 58.3979 195.521 58.122 195.317 57.8896C194.836 57.3931 194.195 57.0828 193.507 57.0138C192.825 56.9479 192.139 56.9384 191.456 56.9855C191.306 57.0022 191.154 56.9767 191.018 56.9119C190.917 56.8419 190.835 56.7476 190.779 56.6377C189.978 55.2731 190.235 53.5598 190.518 52.0025L191.167 48.429C191.261 47.7466 191.443 47.0791 191.707 46.443C191.953 45.9175 192.503 45.0263 193.178 45.1836C193.86 45.3422 194.756 46.3245 195.329 46.737Z" fill="#3F3D56"/>
</svg>
