<svg width="179" height="159" viewBox="0 0 179 159" fill="none" xmlns="http://www.w3.org/2000/svg">
<g filter="url(#filter0_d)">
<path d="M75.1554 18.972H6.56818C5.18747 18.972 4.06818 20.0912 4.06818 21.472V58.1086C4.06818 59.4893 5.18747 60.6086 6.56818 60.6086H75.1554C76.5361 60.6086 77.6554 59.4893 77.6554 58.1086V21.472C77.6554 20.0912 76.5361 18.972 75.1554 18.972Z" fill="#05B962"/>
</g>
<path d="M52.6976 28.9267C52.5368 28.7963 52.349 28.7038 52.1479 28.6558C51.9467 28.6078 51.7374 28.6056 51.5353 28.6493L40.7707 31.0762L30.0061 28.6216C29.8008 28.5751 29.5876 28.5762 29.3828 28.6247C29.178 28.6733 28.9869 28.768 28.8242 28.9018C28.6614 29.0355 28.5312 29.2047 28.4435 29.3964C28.3558 29.5882 28.3129 29.7975 28.3181 30.0083V46.9269C28.3103 47.2475 28.4135 47.5608 28.6103 47.8137C28.8071 48.0665 29.0852 48.2432 29.3973 48.3137L40.4663 50.8098H41.0751L52.1441 48.3137C52.4562 48.2432 52.7344 48.0665 52.9311 47.8137C53.1279 47.5608 53.2312 47.2475 53.2234 46.9269V30.0083C53.2224 29.8 53.1746 29.5946 53.0836 29.4074C52.9926 29.2201 52.8606 29.0558 52.6976 28.9267ZM31.0853 31.7418L39.3871 33.6139V47.6896L31.0853 45.8175V31.7418ZM50.4561 45.8175L42.1543 47.6896V33.6139L50.4561 31.7418V45.8175Z" fill="white"/>
<path d="M176.153 0.136314H107.565C106.185 0.136314 105.065 1.2556 105.065 2.63631V39.273C105.065 40.6537 106.185 41.773 107.565 41.773H176.153C177.533 41.773 178.653 40.6537 178.653 39.273V2.63631C178.653 1.2556 177.533 0.136314 176.153 0.136314Z" fill="#E6E6E6"/>
<path d="M176.153 74.7498H107.565C106.185 74.7498 105.065 75.8691 105.065 77.2498V113.886C105.065 115.267 106.185 116.386 107.565 116.386H176.153C177.533 116.386 178.653 115.267 178.653 113.886V77.2498C178.653 75.8691 177.533 74.7498 176.153 74.7498Z" fill="#E6E6E6"/>
<path d="M149.203 88.5809H145.052V86.5555C145.052 85.6602 144.688 84.8016 144.039 84.1686C143.391 83.5355 142.511 83.1798 141.593 83.1798H137.442C136.525 83.1798 135.645 83.5355 134.997 84.1686C134.348 84.8016 133.983 85.6602 133.983 86.5555V88.5809H129.833C128.732 88.5809 127.676 89.0077 126.897 89.7674C126.119 90.5271 125.682 91.5574 125.682 92.6317V103.434C125.682 104.508 126.119 105.539 126.897 106.298C127.676 107.058 128.732 107.485 129.833 107.485H149.203C150.304 107.485 151.36 107.058 152.138 106.298C152.917 105.539 153.354 104.508 153.354 103.434V92.6317C153.354 91.5574 152.917 90.5271 152.138 89.7674C151.36 89.0077 150.304 88.5809 149.203 88.5809ZM143.669 91.2815V104.784H135.367V91.2815H143.669ZM136.751 86.5555C136.751 86.3765 136.824 86.2047 136.953 86.0781C137.083 85.9515 137.259 85.8804 137.442 85.8804H141.593C141.777 85.8804 141.953 85.9515 142.083 86.0781C142.212 86.2047 142.285 86.3765 142.285 86.5555V88.5809H136.751V86.5555ZM128.449 103.434V92.6317C128.449 92.2736 128.595 91.9302 128.854 91.677C129.114 91.4237 129.466 91.2815 129.833 91.2815H132.6V104.784H129.833C129.466 104.784 129.114 104.642 128.854 104.389C128.595 104.135 128.449 103.792 128.449 103.434ZM150.587 103.434C150.587 103.792 150.441 104.135 150.182 104.389C149.922 104.642 149.57 104.784 149.203 104.784H146.436V91.2815H149.203C149.57 91.2815 149.922 91.4237 150.182 91.677C150.441 91.9302 150.587 92.2736 150.587 92.6317V103.434Z" fill="#3F3D56" fill-opacity="0.5"/>
<path d="M149.832 33.8037C149.611 33.8046 149.393 33.7522 149.196 33.6511L142.14 29.9484L135.083 33.6511C134.854 33.7719 134.596 33.8258 134.337 33.8067C134.079 33.7876 133.831 33.6964 133.623 33.5432C133.414 33.3901 133.252 33.1813 133.155 32.9405C133.059 32.6997 133.031 32.4366 133.077 32.1811L134.46 24.3736L128.76 18.8266C128.582 18.6487 128.456 18.4256 128.395 18.1813C128.334 17.937 128.341 17.6807 128.414 17.4398C128.494 17.1934 128.642 16.9744 128.84 16.8077C129.038 16.641 129.279 16.5333 129.535 16.4968L137.421 15.3458L140.894 8.23169C141.008 7.99723 141.184 7.79949 141.405 7.66114C141.625 7.52278 141.88 7.4494 142.14 7.4494C142.399 7.4494 142.654 7.52278 142.874 7.66114C143.095 7.79949 143.271 7.99723 143.385 8.23169L146.899 15.3319L154.786 16.483C155.042 16.5194 155.283 16.6271 155.481 16.7938C155.679 16.9605 155.826 17.1795 155.907 17.426C155.98 17.6668 155.987 17.9231 155.926 18.1674C155.865 18.4118 155.739 18.6348 155.561 18.8127L149.86 24.3598L151.244 32.1673C151.293 32.4273 151.267 32.696 151.169 32.9417C151.071 33.1874 150.905 33.3999 150.69 33.554C150.44 33.73 150.138 33.8178 149.832 33.8037ZM142.14 27.0085C142.361 27.0029 142.581 27.0555 142.776 27.161L147.992 29.9346L146.996 24.0963C146.957 23.8734 146.974 23.6444 147.044 23.4292C147.114 23.2141 147.235 23.0194 147.397 22.8621L151.548 18.7989L145.737 17.9391C145.524 17.8961 145.324 17.8033 145.153 17.6684C144.982 17.5335 144.846 17.3602 144.755 17.1625L142.14 11.9621L139.524 17.1625C139.424 17.3617 139.278 17.5339 139.097 17.6643C138.916 17.7946 138.707 17.8794 138.487 17.9113L132.676 18.7711L136.826 22.8343C136.989 22.9916 137.11 23.1864 137.18 23.4015C137.25 23.6166 137.266 23.8456 137.228 24.0686L136.231 29.8375L141.448 27.064C141.669 26.9816 141.908 26.9624 142.14 27.0085Z" fill="#3F3D56" fill-opacity="0.5"/>
<path d="M130.528 159H36.4451C36.3796 159 36.3168 158.974 36.2705 158.927C36.2242 158.881 36.1982 158.818 36.1982 158.752C36.1982 158.686 36.2242 158.623 36.2705 158.577C36.3168 158.53 36.3796 158.504 36.4451 158.504H130.528C130.594 158.504 130.656 158.53 130.703 158.577C130.749 158.623 130.775 158.686 130.775 158.752C130.775 158.818 130.749 158.881 130.703 158.927C130.656 158.974 130.594 159 130.528 159Z" fill="#CCCCCC"/>
<path d="M95.3438 100.444C95.365 99.996 95.4838 99.558 95.6918 99.161C95.8998 98.764 96.1921 98.4176 96.5479 98.1462C96.9038 97.8748 97.3146 97.685 97.7515 97.5902C98.1883 97.4954 98.6405 97.4979 99.0763 97.5975L103.119 91.8792L107.181 93.4975L101.358 101.492C101.143 102.216 100.671 102.835 100.031 103.233C99.3914 103.63 98.6286 103.779 97.8872 103.649C97.1458 103.52 96.4774 103.123 96.0087 102.532C95.5399 101.941 95.3034 101.198 95.3438 100.444L95.3438 100.444Z" fill="#A0616A"/>
<path d="M99.7788 95.5263L106.967 83.3929L104.038 75.555L108.027 64.8796L108.174 64.943C108.27 64.9845 110.537 65.9995 110.873 69.6344L115.456 84.0925L103.223 100.02L99.7788 95.5263Z" fill="#3F3D56"/>
<path d="M60.7399 50.9202C61.1834 50.976 61.6093 51.1287 61.9876 51.3676C62.3659 51.6065 62.6874 51.9257 62.9295 52.3027C63.1715 52.6798 63.3283 53.1056 63.3887 53.55C63.4491 53.9945 63.4117 54.4468 63.279 54.8752L68.6469 59.3628L66.7253 63.3018L59.2336 56.8576C58.5313 56.5863 57.9526 56.0659 57.6072 55.395C57.2617 54.7241 57.1734 53.9493 57.3591 53.2174C57.5448 52.4855 57.9915 51.8475 58.6146 51.4241C59.2377 51.0007 59.9939 50.8214 60.7399 50.9202Z" fill="#A0616A"/>
<path d="M65.2822 55.7382L76.7795 63.869L84.7921 61.5446L95.0884 66.3611L95.0141 66.5034C94.9655 66.5967 93.7819 68.786 90.1451 68.8411L75.4283 72.3098L60.5516 58.8374L65.2822 55.7382Z" fill="#3F3D56"/>
<path d="M86.3201 154.613H82.3232L80.4216 139.139L86.3209 139.139L86.3201 154.613Z" fill="#A0616A"/>
<path d="M78.2906 153.466H87.1766V158.337H74.6145V157.156C74.6145 156.177 75.0018 155.239 75.6912 154.547C76.3806 153.855 77.3156 153.466 78.2906 153.466Z" fill="#2F2E41"/>
<path d="M102.296 154.613H98.2986L96.3972 139.139L102.296 139.139L102.296 154.613Z" fill="#A0616A"/>
<path d="M94.2661 153.466H103.152V158.337H90.5899V157.156C90.5899 156.177 90.9772 155.239 91.6666 154.547C92.3561 153.855 93.2911 153.466 94.2661 153.466Z" fill="#2F2E41"/>
<path d="M103.717 98.1329L103.391 121.038L103.065 151.142L95.8924 150.488L92.3062 108.931L87.7418 150.488H80.3369L79.5911 108.604L82.1993 99.4417L103.717 98.1329Z" fill="#2F2E41"/>
<path d="M81.4844 99.5816L80.3917 99.5341L85.4672 71.4722L83.389 62.9904C83.281 62.5491 83.338 62.0834 83.5493 61.6815C83.7606 61.2795 84.1114 60.9694 84.5353 60.8097L88.2744 59.4026L89.5953 55.7565L100.018 56.8837L100.274 59.7332C101.403 60.0967 110.704 63.2054 110.062 66.7475C109.429 70.2436 105.689 81.2431 105.499 81.8006L104.844 97.5752L104.764 97.6156C104.667 97.6643 97.4829 101.209 89.6786 101.209C86.9304 101.209 84.1035 100.769 81.4844 99.5816Z" fill="#3F3D56"/>
<path d="M100.983 50.0333C102.97 46.3835 101.634 41.8074 97.9974 39.8122C94.3609 37.817 89.8014 39.1584 87.8135 42.8082C85.8256 46.458 87.162 51.0341 90.7986 53.0293C94.4351 55.0244 98.9946 53.6831 100.983 50.0333Z" fill="#A0616A"/>
<path d="M100.476 53.7114C99.0462 55.2403 96.3903 54.4196 96.204 52.3308C96.1893 52.1687 96.1904 52.0055 96.2071 51.8435C96.3033 50.9183 96.8359 50.0783 96.7083 49.1014C96.6795 48.8583 96.5892 48.6266 96.4461 48.4283C95.3065 46.8967 92.6314 49.1133 91.5558 47.7268C90.8963 46.8766 91.6716 45.538 91.1655 44.5878C90.4975 43.3337 88.5191 43.9524 87.2784 43.2655C85.898 42.5014 85.9806 40.3757 86.8893 39.0827C87.9974 37.506 89.9404 36.6646 91.8592 36.5433C93.778 36.4221 95.6835 36.9426 97.4749 37.6433C99.5102 38.4394 101.529 39.5396 102.781 41.3358C104.304 43.5202 104.451 46.4568 103.689 49.0111C103.226 50.5648 101.644 52.4629 100.476 53.7114Z" fill="#2F2E41"/>
<defs>
<filter id="filter0_d" x="0.0681801" y="18.972" width="81.5872" height="49.6367" filterUnits="userSpaceOnUse" color-interpolation-filters="sRGB">
<feFlood flood-opacity="0" result="BackgroundImageFix"/>
<feColorMatrix in="SourceAlpha" type="matrix" values="0 0 0 0 0 0 0 0 0 0 0 0 0 0 0 0 0 0 127 0"/>
<feOffset dy="4"/>
<feGaussianBlur stdDeviation="2"/>
<feColorMatrix type="matrix" values="0 0 0 0 0 0 0 0 0 0 0 0 0 0 0 0 0 0 0.15 0"/>
<feBlend mode="normal" in2="BackgroundImageFix" result="effect1_dropShadow"/>
<feBlend mode="normal" in="SourceGraphic" in2="effect1_dropShadow" result="shape"/>
</filter>
</defs>
</svg>
