<svg width="206" height="162" viewBox="0 0 206 162" fill="none" xmlns="http://www.w3.org/2000/svg">
<g clip-path="url(#clip0)">
<path d="M187.013 0.105873H0.079834V119.695H187.013V0.105873Z" fill="#E6E6E6"/>
<path d="M181.668 15.1054H5.42511V112.62H181.668V15.1054Z" fill="white"/>
<path d="M186.934 0H0V7.93293H186.934V0Z" fill="#2A2F43"/>
<path d="M5.90158 5.526C6.7145 5.526 7.3735 4.86772 7.3735 4.05569C7.3735 3.24367 6.7145 2.58539 5.90158 2.58539C5.08866 2.58539 4.42966 3.24367 4.42966 4.05569C4.42966 4.86772 5.08866 5.526 5.90158 5.526Z" fill="#FC6681"/>
<path d="M11.4886 5.526C12.3015 5.526 12.9605 4.86772 12.9605 4.05569C12.9605 3.24367 12.3015 2.58539 11.4886 2.58539C10.6757 2.58539 10.0167 3.24367 10.0167 4.05569C10.0167 4.86772 10.6757 5.526 11.4886 5.526Z" fill="#05B962"/>
<path d="M17.0756 5.526C17.8886 5.526 18.5476 4.86772 18.5476 4.05569C18.5476 3.24367 17.8886 2.58539 17.0756 2.58539C16.2627 2.58539 15.6037 3.24367 15.6037 4.05569C15.6037 4.86772 16.2627 5.526 17.0756 5.526Z" fill="#FDCB6E"/>
<path d="M64.2254 25.2233H23.9392C22.5585 25.2233 21.4392 26.3426 21.4392 27.7233V100.002C21.4392 101.383 22.5585 102.502 23.9392 102.502H64.2253C65.6061 102.502 66.7253 101.383 66.7253 100.002V27.7233C66.7253 26.3426 65.6061 25.2233 64.2254 25.2233Z" fill="#E6E6E6"/>
<path d="M109.781 25.2233H77.0426C75.6619 25.2233 74.5426 26.3426 74.5426 27.7233V43.9952C74.5426 45.376 75.6619 46.4952 77.0426 46.4952H109.781C111.162 46.4952 112.281 45.376 112.281 43.9952V27.7233C112.281 26.3426 111.162 25.2233 109.781 25.2233Z" fill="#05B962"/>
<path d="M109.781 52.4191H77.0426C75.6619 52.4191 74.5426 53.5384 74.5426 54.9191V72.8066C74.5426 74.1873 75.6619 75.3066 77.0426 75.3066H109.781C111.162 75.3066 112.281 74.1873 112.281 72.8066V54.9191C112.281 53.5384 111.162 52.4191 109.781 52.4191Z" fill="#E6E6E6"/>
<path d="M109.781 81.2305H77.0426C75.6619 81.2305 74.5426 82.3497 74.5426 83.7304V100.002C74.5426 101.383 75.6619 102.502 77.0426 102.502H109.781C111.162 102.502 112.281 101.383 112.281 100.002V83.7305C112.281 82.3497 111.162 81.2305 109.781 81.2305Z" fill="#E6E6E6"/>
<path d="M163.154 25.2233H122.868C121.487 25.2233 120.368 26.3426 120.368 27.7233V56.4011C120.368 57.7818 121.487 58.9011 122.868 58.9011H163.154C164.535 58.9011 165.654 57.7818 165.654 56.4011V27.7233C165.654 26.3426 164.535 25.2233 163.154 25.2233Z" fill="#E6E6E6"/>
<path d="M163.154 68.8246H122.868C121.487 68.8246 120.368 69.9438 120.368 71.3246V100.002C120.368 101.383 121.487 102.502 122.868 102.502H163.154C164.535 102.502 165.654 101.383 165.654 100.002V71.3246C165.654 69.9438 164.535 68.8246 163.154 68.8246Z" fill="#E6E6E6"/>
<path d="M148.208 61.3205V54.0702C148.208 51.4935 149.233 49.0223 151.057 47.2003C152.881 45.3783 155.355 44.3547 157.934 44.3547C160.514 44.3547 162.988 45.3783 164.812 47.2003C166.636 49.0223 167.66 51.4935 167.66 54.0702V61.3205C167.66 61.6666 167.522 61.9983 167.277 62.2429C167.032 62.4876 166.7 62.6252 166.354 62.6256H149.515C149.168 62.6252 148.836 62.4876 148.591 62.2429C148.346 61.9983 148.209 61.6666 148.208 61.3205Z" fill="#2F2E41"/>
<path d="M172.316 155.675L168.886 156.624L163.591 143.858L168.654 142.458L172.316 155.675Z" fill="#FFB8B8"/>
<path d="M166.164 156.322L172.78 154.493L173.933 158.654L163.151 161.635C163 161.088 162.958 160.517 163.027 159.955C163.097 159.392 163.276 158.848 163.556 158.355C163.836 157.862 164.21 157.428 164.658 157.08C165.105 156.731 165.617 156.473 166.164 156.322Z" fill="#575A88"/>
<path d="M136.551 158.311H132.992L131.298 144.597H136.552L136.551 158.311Z" fill="#FFB8B8"/>
<path d="M130.449 157.295H137.314V161.613H126.127C126.127 161.046 126.239 160.484 126.456 159.961C126.673 159.437 126.992 158.961 127.393 158.56C127.794 158.159 128.271 157.841 128.795 157.624C129.32 157.407 129.882 157.295 130.449 157.295Z" fill="#575A88"/>
<path d="M132.259 81.6673C132.513 82.0098 132.839 82.2926 133.215 82.4956C133.59 82.6987 134.005 82.8171 134.431 82.8424C134.857 82.8678 135.284 82.7995 135.681 82.6425C136.077 82.4854 136.435 82.2433 136.728 81.9333L146.19 86.1844L145.329 80.868L136.476 77.6461C135.922 77.189 135.219 76.9507 134.501 76.9764C133.783 77.0022 133.099 77.2902 132.58 77.7858C132.06 78.2815 131.74 78.9503 131.681 79.6657C131.622 80.3811 131.828 81.0933 132.259 81.6673H132.259Z" fill="#FFB8B8"/>
<path d="M151.919 113.638C148.946 113.638 145.868 113.196 143.282 111.88C141.909 111.195 140.692 110.235 139.707 109.059C138.722 107.883 137.991 106.517 137.56 105.046C136.212 100.783 137.911 96.5946 139.555 92.5446C140.573 90.0349 141.535 87.6645 141.784 85.328L141.872 84.4984C142.26 80.7724 142.596 77.5545 144.455 76.3476C145.418 75.722 146.713 75.6863 148.415 76.2383L164.396 81.4241L163.809 111.728L163.712 111.76C163.628 111.788 157.994 113.638 151.919 113.638Z" fill="#575A88"/>
<path d="M148.136 66.8042C148.136 66.8042 155.975 64.484 162.072 65.3541C162.072 65.3541 158.588 84.495 159.749 90.8753C160.91 97.2556 139.571 93.3404 143.926 87.2501L145.377 79.9998C145.377 79.9998 142.474 77.0997 145.087 73.6195L148.136 66.8042Z" fill="#12E8A1"/>
<path d="M144.28 113.063L134.619 111.254L137.992 85.3248C138.219 84.6009 143.444 68.1725 145.817 67.2836C147.54 66.6775 149.302 66.1885 151.091 65.82L151.435 65.7513L149.497 68.654L141.785 87.1146L144.28 113.063Z" fill="#575A88"/>
<path d="M139.246 155.134L126.763 153.056L133.768 124.482L144.192 85.4068L144.295 86.1007C144.303 86.1524 145.277 91.2571 159.726 88.992L159.853 88.9722L159.889 89.0958L177.353 150.735L163.129 153.103L150.156 108.131L139.246 155.134Z" fill="#2A2F43"/>
<path d="M156.548 117.916L156.555 117.696C156.564 117.453 157.423 93.2272 157.136 83.4842C156.848 73.7082 160.017 65.2421 160.049 65.1577L160.075 65.0897L160.145 65.0696C164.244 63.8998 167.8 67.3913 167.836 67.4267L167.886 67.4766L166.718 77.0981L171.717 112.086L156.548 117.916Z" fill="#575A88"/>
<path d="M155.936 62.4569C159.874 62.4569 163.067 59.2678 163.067 55.3339C163.067 51.3999 159.874 48.2108 155.936 48.2108C151.998 48.2108 148.805 51.3999 148.805 55.3339C148.805 59.2678 151.998 62.4569 155.936 62.4569Z" fill="#FFB8B8"/>
<path d="M145.907 54.6502C145.91 52.6127 146.721 50.6592 148.163 49.2184C149.606 47.7776 151.561 46.9672 153.601 46.9649H155.053C157.093 46.9672 159.048 47.7776 160.49 49.2184C161.933 50.6592 162.744 52.6127 162.746 54.6502V54.7952H159.679L158.632 51.8685L158.423 54.7952H156.838L156.31 53.3186L156.204 54.7952H145.907V54.6502Z" fill="#2F2E41"/>
<path d="M155.234 63.4409C155.09 63.2461 155.004 63.0146 154.986 62.7731C154.968 62.5316 155.018 62.2899 155.132 62.0758C156.67 59.153 158.824 53.7524 155.965 50.4217L155.759 50.1824H164.059V62.6298L156.52 63.9586C156.443 63.9721 156.366 63.979 156.288 63.979C156.083 63.979 155.88 63.9303 155.696 63.8367C155.513 63.7432 155.355 63.6075 155.234 63.4409Z" fill="#2F2E41"/>
<path d="M121.818 12.049C116.01 7.15371 108.903 4.05012 101.361 3.11596C93.8199 2.18179 86.1692 3.45733 79.3403 6.78734C72.5114 10.1173 66.7986 15.3583 62.8972 21.8723C58.9958 28.3864 57.0739 35.8928 57.3654 43.4781C57.6569 51.0633 60.1493 58.4004 64.5392 64.5966C68.9291 70.7927 75.0273 75.5807 82.0917 78.3779C89.1561 81.1751 96.8821 81.861 104.33 80.352C111.777 78.8431 118.625 75.2043 124.04 69.8786L172.124 110.407C172.856 111.025 173.803 111.328 174.758 111.248C175.713 111.168 176.597 110.712 177.215 109.982C177.834 109.251 178.136 108.304 178.056 107.351C177.976 106.397 177.52 105.514 176.789 104.896L176.783 104.892L128.699 64.363C134.285 56.3549 136.676 46.5517 135.403 36.8745C134.13 27.1974 129.285 18.3439 121.818 12.049ZM118.718 60.4604C114.972 64.895 109.993 68.1204 104.412 69.7287C98.8313 71.3371 92.8981 71.2561 87.363 69.4961C81.828 67.7361 76.9397 64.3761 73.3164 59.841C69.6931 55.3059 67.4974 49.7993 67.007 44.0177C66.5167 38.2361 67.7537 32.4391 70.5616 27.3597C73.3695 22.2803 77.6222 18.1467 82.7819 15.4817C87.9416 12.8166 93.7767 11.7397 99.5491 12.3873C105.321 13.0348 110.772 15.3777 115.211 19.1195H115.211C118.159 21.604 120.588 24.6442 122.36 28.0663C124.131 31.4885 125.21 35.2257 125.536 39.0646C125.862 42.9035 125.427 46.7688 124.257 50.4399C123.087 54.111 121.205 57.5159 118.718 60.4604Z" fill="#3F3D56"/>
<path opacity="0.3" d="M77.3315 63.9627C71.6973 59.2134 68.0572 52.5212 67.1339 45.215C66.2107 37.9088 68.0718 30.5229 72.3478 24.524C71.7862 25.0889 71.2434 25.6805 70.7192 26.2989C68.232 29.2433 66.3497 32.6483 65.1798 36.3194C64.0099 39.9905 63.5754 43.8558 63.9009 47.6947C64.2265 51.5335 65.3059 55.2707 67.0773 58.6929C68.8488 62.1151 71.2777 65.1552 74.2254 67.6398C77.1731 70.1243 80.5818 72.0045 84.2569 73.1731C87.932 74.3417 91.8016 74.7758 95.6447 74.4505C99.4877 74.1253 103.229 73.0472 106.655 71.2776C110.081 69.5081 113.124 67.0818 115.612 64.1374C116.135 63.5183 116.627 62.8842 117.089 62.2352C111.889 67.4548 104.913 70.5299 97.5478 70.85C90.1826 71.17 82.9661 68.7115 77.3315 63.9627Z" fill="black"/>
<path d="M158.225 94.1199C158.64 94.2212 159.072 94.2304 159.49 94.1469C159.909 94.0634 160.304 93.8893 160.648 93.6368C160.992 93.3843 161.276 93.0595 161.481 92.6854C161.685 92.3112 161.805 91.8968 161.832 91.4713L171.829 88.6995L167.766 85.1604L158.895 88.3351C158.177 88.3372 157.484 88.6026 156.948 89.0809C156.412 89.5592 156.07 90.2172 155.988 90.9302C155.905 91.6433 156.087 92.3618 156.5 92.9497C156.912 93.5376 157.526 93.954 158.225 94.1199Z" fill="#FFB8B8"/>
<path d="M162.38 92.6528L161.772 86.8797L170.123 82.2774L164.678 75.694L165.566 68.2988L167.779 67.3517L167.848 67.4401C168.891 68.78 178.04 80.5722 178.04 82.0299C178.04 83.5271 176.29 87.9239 173.895 89.1199C171.585 90.2736 162.911 92.5158 162.543 92.6108L162.38 92.6528Z" fill="#575A88"/>
<path d="M205.71 162H95.0932C95.0162 162 94.9424 161.969 94.8879 161.915C94.8335 161.861 94.8029 161.787 94.8029 161.71C94.8029 161.633 94.8335 161.559 94.8879 161.505C94.9424 161.45 95.0162 161.42 95.0932 161.42H205.71C205.787 161.42 205.861 161.45 205.915 161.505C205.969 161.559 206 161.633 206 161.71C206 161.787 205.969 161.861 205.915 161.915C205.861 161.969 205.787 162 205.71 162Z" fill="#CCCCCC"/>
</g>
<defs>
<clipPath id="clip0">
<rect width="206" height="162" fill="white"/>
</clipPath>
</defs>
</svg>
