<svg width="175" height="67" viewBox="0 0 175 67" fill="none" xmlns="http://www.w3.org/2000/svg">
<path fill-rule="evenodd" clip-rule="evenodd" d="M21.5739 55.074C9.35207 53.1686 0 42.5967 0 29.8405C0 15.7354 11.4344 4.30103 25.5395 4.30103C39.6445 4.30103 51.079 15.7354 51.079 29.8405C51.079 42.5968 41.7269 53.1687 29.505 55.074V62.5566H21.5739V55.074ZM29.505 47.5386V45.0108C29.5281 44.9168 29.552 44.823 29.5766 44.7294C30.2136 42.3074 31.3453 40.0435 32.9006 38.0806C34.4558 36.1177 36.4008 34.4981 38.6129 33.3241C40.1809 32.492 41.859 31.8965 43.5927 31.5533C42.8542 39.4351 37.0711 45.8507 29.505 47.5386ZM29.505 30.8423V12.1424C35.7581 13.5374 40.7934 18.1616 42.7695 24.1739C40.1097 24.633 37.5342 25.5118 35.1409 26.7819C33.0812 27.875 31.1859 29.2423 29.505 30.8423ZM21.5739 47.5386V12.1424C13.4666 13.9511 7.40645 21.1881 7.40645 29.8405C7.40645 38.4929 13.4666 45.7299 21.5739 47.5386Z" fill="url(#paint0_linear)"/>
<path d="M82.165 51.405C81.3583 52.065 80.3683 52.56 79.195 52.89C78.0583 53.22 76.8483 53.385 75.565 53.385C72.3383 53.385 69.845 52.5417 68.085 50.855C66.325 49.1683 65.445 46.7117 65.445 43.485V29.35H60.605V23.85H65.445V17.14H72.32V23.85H80.185V29.35H72.32V43.32C72.32 44.75 72.6683 45.85 73.365 46.62C74.0617 47.3533 75.07 47.72 76.39 47.72C77.93 47.72 79.2133 47.3167 80.24 46.51L82.165 51.405ZM94.3655 27.92C96.3455 24.84 99.8289 23.3 104.816 23.3V29.845C104.229 29.735 103.697 29.68 103.221 29.68C100.544 29.68 98.4539 30.4683 96.9505 32.045C95.4472 33.585 94.6955 35.8217 94.6955 38.755V53H87.8205V23.63H94.3655V27.92ZM137.989 38.48C137.989 38.9567 137.952 39.635 137.879 40.515H114.834C115.237 42.6783 116.282 44.4017 117.969 45.685C119.692 46.9317 121.819 47.555 124.349 47.555C127.576 47.555 130.234 46.4917 132.324 44.365L136.009 48.6C134.689 50.1767 133.021 51.3683 131.004 52.175C128.987 52.9817 126.714 53.385 124.184 53.385C120.957 53.385 118.116 52.7433 115.659 51.46C113.202 50.1767 111.296 48.3983 109.939 46.125C108.619 43.815 107.959 41.2117 107.959 38.315C107.959 35.455 108.601 32.8883 109.884 30.615C111.204 28.305 113.019 26.5083 115.329 25.225C117.639 23.9417 120.242 23.3 123.139 23.3C125.999 23.3 128.547 23.9417 130.784 25.225C133.057 26.4717 134.817 28.25 136.064 30.56C137.347 32.8333 137.989 35.4733 137.989 38.48ZM123.139 28.8C120.939 28.8 119.069 29.46 117.529 30.78C116.026 32.0633 115.109 33.7867 114.779 35.95H131.444C131.151 33.8233 130.252 32.1 128.749 30.78C127.246 29.46 125.376 28.8 123.139 28.8ZM172.203 38.48C172.203 38.9567 172.166 39.635 172.093 40.515H149.048C149.451 42.6783 150.496 44.4017 152.183 45.685C153.906 46.9317 156.033 47.555 158.563 47.555C161.79 47.555 164.448 46.4917 166.538 44.365L170.223 48.6C168.903 50.1767 167.235 51.3683 165.218 52.175C163.201 52.9817 160.928 53.385 158.398 53.385C155.171 53.385 152.33 52.7433 149.873 51.46C147.416 50.1767 145.51 48.3983 144.153 46.125C142.833 43.815 142.173 41.2117 142.173 38.315C142.173 35.455 142.815 32.8883 144.098 30.615C145.418 28.305 147.233 26.5083 149.543 25.225C151.853 23.9417 154.456 23.3 157.353 23.3C160.213 23.3 162.761 23.9417 164.998 25.225C167.271 26.4717 169.031 28.25 170.278 30.56C171.561 32.8333 172.203 35.4733 172.203 38.48ZM157.353 28.8C155.153 28.8 153.283 29.46 151.743 30.78C150.24 32.0633 149.323 33.7867 148.993 35.95H165.658C165.365 33.8233 164.466 32.1 162.963 30.78C161.46 29.46 159.59 28.8 157.353 28.8Z" fill="url(#paint1_linear)"/>
<defs>
<linearGradient id="paint0_linear" x1="0" y1="4.30103" x2="51.1019" y2="64.5056" gradientUnits="userSpaceOnUse">
<stop offset="0.322917" stop-color="#05B962"/>
<stop offset="1" stop-color="#12E8A1"/>
</linearGradient>
<linearGradient id="paint1_linear" x1="60" y1="17.9588" x2="177.46" y2="53.8082" gradientUnits="userSpaceOnUse">
<stop offset="0.433977" stop-color="white"/>
<stop offset="1" stop-color="white" stop-opacity="0.36"/>
</linearGradient>
</defs>
</svg>
