<svg width="709" height="578" viewBox="0 0 709 578" fill="none" xmlns="http://www.w3.org/2000/svg">
<path opacity="0.1" d="M258.001 107.788C231.287 105.056 203.605 104.211 177.716 112.181C139.648 123.896 108.543 155.422 98.9893 192.041C90.8738 223.074 97.4438 255.14 98.8499 286.79C100.59 325.776 94.3736 364.947 86.8916 403.619C82.8761 424.394 78.4718 445.697 82.4051 466.237C87.8701 494.754 109.628 518.801 137.021 531.408C164.413 544.015 196.798 545.865 227.234 540.01C243.43 536.894 259.753 531.391 272.011 520.689C284.981 509.366 292.318 493.216 305.376 481.982C317.476 471.57 333.479 466.282 349.312 462.974C369.984 458.656 391.163 457.273 412.223 458.869C436.081 460.691 459.332 466.361 483.143 468.314C506.953 470.266 532.45 468.087 552.945 455.651C572.213 443.963 584.749 424.752 595.611 405.789C613.385 374.826 628.608 342.465 641.13 309.028C649.509 286.607 656.681 263.4 656.733 239.871C656.838 194.881 628.527 151.739 586.198 132.367C551.127 116.32 509.839 116.334 470.451 120.18C434.534 123.687 394.676 133.982 359.037 127.6C325.046 121.497 292.887 111.363 258.001 107.788Z" fill="black"/>
<rect x="421" y="192" width="173" height="295" fill="white"/>
<path d="M273.197 394.11H164.974V372.35H273.197V394.11ZM166.379 392.706H271.791V373.754H166.379V392.706Z" fill="#3F3D56"/>
<path d="M259.845 390.249C263.726 390.249 266.872 387.106 266.872 383.23C266.872 379.353 263.726 376.21 259.845 376.21C255.964 376.21 252.817 379.353 252.817 383.23C252.817 387.106 255.964 390.249 259.845 390.249Z" fill="#FC6681"/>
<path d="M240.168 390.249C244.049 390.249 247.195 387.106 247.195 383.23C247.195 379.353 244.049 376.21 240.168 376.21C236.286 376.21 233.14 379.353 233.14 383.23C233.14 387.106 236.286 390.249 240.168 390.249Z" fill="#FC6681"/>
<path d="M220.491 390.249C224.372 390.249 227.518 387.106 227.518 383.23C227.518 379.353 224.372 376.21 220.491 376.21C216.61 376.21 213.463 379.353 213.463 383.23C213.463 387.106 216.61 390.249 220.491 390.249Z" fill="#FC6681"/>
<path d="M200.814 390.249C204.695 390.249 207.842 387.106 207.842 383.23C207.842 379.353 204.695 376.21 200.814 376.21C196.933 376.21 193.787 379.353 193.787 383.23C193.787 387.106 196.933 390.249 200.814 390.249Z" fill="#FC6681"/>
<path d="M181.137 390.249C185.018 390.249 188.164 387.106 188.164 383.23C188.164 379.353 185.018 376.21 181.137 376.21C177.256 376.21 174.109 379.353 174.109 383.23C174.109 387.106 177.256 390.249 181.137 390.249Z" fill="#FC6681"/>
<path d="M546.566 409.903H459.425V428.153H546.566V409.903Z" fill="#FC6681"/>
<path d="M565.54 320.056H437.64V336.903H565.54V320.056Z" fill="#F0F0F0"/>
<path d="M628.084 504.663H81.3467V506.067H628.084V504.663Z" fill="black" fill-opacity="0.25"/>
<path d="M587.455 506.067H427.671C422.675 506.061 417.885 504.076 414.353 500.547C410.82 497.019 408.833 492.235 408.827 487.245V190.772C408.833 185.782 410.82 180.998 414.353 177.469C417.885 173.941 422.675 171.956 427.671 171.95H587.455C592.451 171.956 597.241 173.941 600.774 177.469C604.306 180.998 606.294 185.782 606.299 190.772V487.245C606.293 492.235 604.306 497.019 600.774 500.547C597.241 504.076 592.451 506.061 587.455 506.067ZM427.671 173.354C423.048 173.359 418.615 175.196 415.346 178.461C412.077 181.727 410.238 186.154 410.233 190.772V487.245C410.238 491.863 412.077 496.29 415.346 499.555C418.615 502.821 423.048 504.657 427.671 504.663H587.455C592.079 504.657 596.511 502.821 599.78 499.555C603.05 496.29 604.888 491.863 604.894 487.245V190.772C604.888 186.154 603.05 181.727 599.78 178.461C596.511 175.196 592.079 173.359 587.455 173.354H427.671Z" fill="#3F3D56"/>
<path d="M488.589 185.989C487.755 185.989 486.94 185.742 486.246 185.279C485.553 184.816 485.013 184.158 484.694 183.389C484.374 182.619 484.291 181.772 484.454 180.955C484.616 180.139 485.018 179.388 485.608 178.799C486.197 178.21 486.949 177.809 487.766 177.646C488.584 177.484 489.432 177.567 490.203 177.886C490.973 178.205 491.632 178.745 492.095 179.437C492.558 180.13 492.806 180.944 492.806 181.777C492.804 182.894 492.36 183.964 491.569 184.754C490.779 185.543 489.707 185.987 488.589 185.989ZM488.589 178.969C488.033 178.969 487.49 179.134 487.027 179.443C486.565 179.751 486.205 180.19 485.992 180.703C485.779 181.216 485.724 181.78 485.832 182.325C485.941 182.87 486.208 183.37 486.601 183.762C486.995 184.155 487.495 184.423 488.041 184.531C488.586 184.639 489.151 184.584 489.665 184.371C490.178 184.159 490.617 183.799 490.926 183.337C491.235 182.875 491.4 182.332 491.4 181.777C491.399 181.033 491.103 180.319 490.576 179.793C490.049 179.266 489.334 178.97 488.589 178.969Z" fill="#3F3D56"/>
<path d="M530.051 181.075H499.13V182.479H530.051V181.075Z" fill="#3F3D56"/>
<path d="M593.65 192.306V248.46C578.74 248.459 564.44 242.543 553.897 232.012C543.354 221.481 537.431 207.199 537.43 192.306H593.65Z" fill="#05B962"/>
<path d="M594.353 487.115H420.774V191.604H594.353V487.115ZM422.179 485.711H592.947V193.008H422.179V485.711Z" fill="#3F3D56"/>
<path opacity="0.1" d="M552.891 244.95C563.37 244.95 571.865 236.465 571.865 225.998C571.865 215.532 563.37 207.047 552.891 207.047C542.412 207.047 533.917 215.532 533.917 225.998C533.917 236.465 542.412 244.95 552.891 244.95Z" fill="black"/>
<path d="M550.08 247.056C560.559 247.056 569.054 238.571 569.054 228.104C569.054 217.637 560.559 209.152 550.08 209.152C539.601 209.152 531.105 217.637 531.105 228.104C531.105 238.571 539.601 247.056 550.08 247.056Z" fill="#05B962"/>
<path d="M455.208 203.537H428.504V213.364H455.208V203.537Z" fill="#3F3D56"/>
<path d="M469.966 296.893H443.262V306.72H469.966V296.893Z" fill="#3F3D56"/>
<path d="M572.567 333.393H443.262V315.143H572.567V333.393ZM444.667 331.989H571.162V316.547H444.667V331.989Z" fill="#3F3D56"/>
<path d="M565.54 373.403H437.64V390.249H565.54V373.403Z" fill="#F0F0F0"/>
<path d="M469.966 350.239H443.262V360.066H469.966V350.239Z" fill="#3F3D56"/>
<path d="M572.567 386.739H443.262V368.489H572.567V386.739ZM444.667 385.335H571.162V369.893H444.667V385.335Z" fill="#3F3D56"/>
<path d="M552.188 423.941H463.642V404.287H552.188V423.941ZM465.047 422.537H550.782V405.691H465.047V422.537Z" fill="#3F3D56"/>
<path d="M569.054 326.374C569.054 327.819 568.607 329.229 567.775 330.411C566.943 331.593 565.766 332.49 564.404 332.979C563.043 333.468 561.564 333.525 560.168 333.143C558.773 332.762 557.53 331.959 556.608 330.845L556.601 330.838C555.929 330.024 555.45 329.069 555.198 328.045C554.947 327.02 554.93 325.952 555.148 324.92C555.367 323.888 555.816 322.919 556.461 322.084C557.106 321.249 557.932 320.57 558.876 320.098C559.82 319.625 560.859 319.372 561.915 319.355C562.971 319.339 564.017 319.561 564.976 320.004C565.934 320.447 566.78 321.101 567.451 321.915C568.121 322.73 568.6 323.685 568.85 324.71C568.85 324.711 568.85 324.712 568.85 324.713C568.851 324.714 568.851 324.715 568.852 324.715C568.853 324.716 568.853 324.716 568.854 324.717C568.855 324.717 568.856 324.717 568.857 324.717C568.987 325.26 569.053 325.816 569.054 326.374Z" fill="#FC6681"/>
<path opacity="0.1" d="M569.054 326.374C569.054 327.819 568.607 329.228 567.775 330.411C566.943 331.593 565.766 332.489 564.404 332.979C563.043 333.468 561.564 333.525 560.168 333.143C558.773 332.761 557.53 331.959 556.608 330.845L556.601 330.838C556.471 330.295 556.405 329.739 556.404 329.181C556.404 327.736 556.851 326.326 557.683 325.144C558.515 323.962 559.692 323.066 561.054 322.576C562.415 322.087 563.894 322.03 565.29 322.412C566.685 322.794 567.928 323.596 568.85 324.71C568.85 324.711 568.85 324.712 568.85 324.713C568.851 324.714 568.851 324.714 568.852 324.715C568.853 324.716 568.853 324.716 568.854 324.717C568.855 324.717 568.856 324.717 568.857 324.717C568.987 325.26 569.053 325.816 569.054 326.374Z" fill="black"/>
<path d="M564.837 337.604C568.718 337.604 571.865 334.462 571.865 330.585C571.865 326.709 568.718 323.566 564.837 323.566C560.956 323.566 557.81 326.709 557.81 330.585C557.81 334.462 560.956 337.604 564.837 337.604Z" fill="#FC6681"/>
<path d="M569.054 379.72C569.054 381.165 568.607 382.575 567.775 383.757C566.943 384.939 565.766 385.836 564.404 386.325C563.043 386.814 561.564 386.872 560.168 386.49C558.773 386.108 557.53 385.305 556.608 384.191L556.601 384.184C555.929 383.37 555.45 382.416 555.198 381.391C554.947 380.367 554.93 379.299 555.148 378.267C555.367 377.235 555.816 376.265 556.461 375.43C557.106 374.595 557.932 373.916 558.876 373.444C559.82 372.972 560.859 372.718 561.915 372.702C562.971 372.685 564.017 372.907 564.976 373.35C565.934 373.794 566.78 374.447 567.451 375.262C568.121 376.076 568.6 377.032 568.85 378.056C568.85 378.057 568.85 378.058 568.85 378.059C568.851 378.06 568.851 378.061 568.852 378.062C568.853 378.062 568.853 378.063 568.854 378.063C568.855 378.063 568.856 378.064 568.857 378.064C568.987 378.606 569.053 379.162 569.054 379.72Z" fill="#FC6681"/>
<path opacity="0.1" d="M569.054 379.72C569.054 381.165 568.607 382.575 567.775 383.757C566.943 384.939 565.766 385.836 564.404 386.325C563.043 386.814 561.564 386.872 560.168 386.49C558.773 386.108 557.53 385.305 556.608 384.191L556.601 384.184C556.471 383.642 556.405 383.086 556.404 382.528C556.404 381.083 556.851 379.673 557.683 378.491C558.515 377.309 559.692 376.412 561.054 375.923C562.415 375.434 563.894 375.376 565.29 375.758C566.685 376.14 567.928 376.943 568.85 378.056C568.85 378.057 568.85 378.058 568.85 378.059C568.851 378.06 568.851 378.061 568.852 378.061C568.853 378.062 568.853 378.063 568.854 378.063C568.855 378.063 568.856 378.063 568.857 378.063C568.987 378.606 569.053 379.162 569.054 379.72Z" fill="black"/>
<path d="M564.837 390.951C568.718 390.951 571.865 387.808 571.865 383.932C571.865 380.055 568.718 376.912 564.837 376.912C560.956 376.912 557.81 380.055 557.81 383.932C557.81 387.808 560.956 390.951 564.837 390.951Z" fill="#FC6681"/>
<path d="M552.891 133.344C551.223 133.344 549.592 132.85 548.205 131.925C546.819 130.999 545.738 129.684 545.099 128.145C544.461 126.605 544.294 124.912 544.62 123.278C544.945 121.644 545.748 120.143 546.927 118.965C548.107 117.787 549.609 116.985 551.245 116.66C552.881 116.335 554.577 116.502 556.118 117.139C557.659 117.777 558.976 118.856 559.902 120.242C560.829 121.627 561.323 123.255 561.323 124.921C561.321 127.154 560.432 129.295 558.851 130.874C557.27 132.454 555.126 133.342 552.891 133.344ZM552.891 117.902C551.501 117.902 550.142 118.314 548.986 119.085C547.831 119.856 546.93 120.952 546.398 122.235C545.866 123.518 545.727 124.929 545.998 126.291C546.269 127.652 546.939 128.903 547.921 129.885C548.904 130.866 550.156 131.535 551.519 131.806C552.883 132.076 554.296 131.937 555.58 131.406C556.864 130.875 557.961 129.975 558.734 128.821C559.506 127.667 559.918 126.309 559.918 124.921C559.916 123.06 559.175 121.276 557.857 119.96C556.54 118.644 554.754 117.904 552.891 117.902Z" fill="#3F3D56"/>
<path d="M367.365 250.566H349.094V232.316H367.365V250.566ZM350.499 249.162H365.96V233.72H350.499V249.162Z" fill="#3F3D56"/>
<path d="M645.653 386.739H627.382V368.489H645.653V386.739ZM628.787 385.335H644.248V369.893H628.787V385.335Z" fill="#3F3D56"/>
<path d="M121.373 434.082C123.909 434.082 125.966 432.028 125.966 429.494C125.966 426.961 123.909 424.907 121.373 424.907C118.837 424.907 116.78 426.961 116.78 429.494C116.78 432.028 118.837 434.082 121.373 434.082Z" fill="#FF6584"/>
<path d="M144.576 453.403H143.171V505.634H144.576V453.403Z" fill="#05B962"/>
<path d="M143.874 460.789C147.958 460.789 151.269 457.482 151.269 453.403C151.269 449.324 147.958 446.017 143.874 446.017C139.79 446.017 136.479 449.324 136.479 453.403C136.479 457.482 139.79 460.789 143.874 460.789Z" fill="#05B962"/>
<path d="M143.874 485.594C143.874 485.594 142.818 462.899 121.161 465.537L143.874 485.594Z" fill="#05B962"/>
<path d="M211.283 372.701L254.974 304.074L157.128 241.928L106.597 321.298L187.528 372.701H211.283Z" fill="#969696"/>
<path d="M401.8 152.296V98.95H428.504V72.9788H297.793V203.537H409.53V190.772C409.53 188.392 409.999 186.036 410.911 183.838C411.822 181.639 413.159 179.642 414.843 177.959C416.528 176.277 418.528 174.942 420.729 174.031C422.93 173.121 425.289 172.652 427.671 172.652H428.504V152.296H401.8Z" fill="#969696"/>
<path d="M446.776 106.671H410.233V143.171H446.776V106.671Z" fill="#969696"/>
<path d="M354.027 350.039C357.909 350.039 361.055 346.896 361.055 343.019C361.055 339.143 357.909 336 354.027 336C350.146 336 347 339.143 347 343.019C347 346.896 350.146 350.039 354.027 350.039Z" fill="#FC6681"/>
<path d="M350.9 331.651C350.57 331.804 350.252 331.984 349.95 332.188L319.753 319.133L318.676 311.075L306.61 311L307.323 329.481L347.179 340.158C347.263 340.439 347.363 340.714 347.48 340.982C348.056 342.228 348.983 343.273 350.144 343.987C351.305 344.7 352.648 345.051 354.004 344.994C355.361 344.937 356.671 344.475 357.77 343.667C358.868 342.858 359.706 341.739 360.179 340.449C360.652 339.16 360.738 337.758 360.426 336.419C360.115 335.08 359.419 333.864 358.428 332.924C357.437 331.984 356.193 331.362 354.854 331.135C353.515 330.909 352.139 331.088 350.9 331.651Z" fill="#FFB8B8"/>
<path d="M301.611 497H310.42L314.61 465L301.61 465.001L301.611 497Z" fill="#FFB8B8"/>
<path d="M315.564 495H299.61V505H325.61C325.61 502.348 324.552 499.804 322.668 497.929C320.784 496.054 318.229 495 315.564 495Z" fill="#4C4981"/>
<path d="M269.61 495.178L277.693 496L284.61 464.213L272.68 463L269.61 495.178Z" fill="#FFB8B8"/>
<path d="M283.877 494.189L267.986 492.623L267 502.629L292.898 505.18C293.027 503.866 292.897 502.539 292.513 501.276C292.13 500.012 291.502 498.837 290.664 497.816C289.826 496.795 288.796 495.95 287.631 495.327C286.467 494.705 285.191 494.318 283.877 494.189Z" fill="#4C4981"/>
<path d="M299.11 278C289.997 278 282.61 270.389 282.61 261C282.61 251.611 289.997 244 299.11 244C308.223 244 315.61 251.611 315.61 261C315.61 270.389 308.223 278 299.11 278Z" fill="#FFB8B8"/>
<path d="M312.02 491C312.731 491.002 313.419 490.752 313.964 490.294C314.509 489.836 314.875 489.2 314.998 488.497C319.277 464.653 333.265 386.688 333.599 384.529C333.607 384.479 333.61 384.429 333.61 384.379V378.566C333.61 378.354 333.544 378.147 333.421 377.975L331.574 375.377C331.486 375.252 331.371 375.149 331.237 375.076C331.103 375.003 330.955 374.961 330.802 374.954C320.268 374.459 285.766 373.006 284.099 375.096C282.425 377.197 283.016 383.562 283.152 384.816L283.145 384.947L267.645 484.448C267.524 485.241 267.719 486.051 268.187 486.701C268.656 487.352 269.361 487.791 270.15 487.924L279.832 489.525C280.553 489.641 281.291 489.493 281.913 489.109C282.535 488.725 282.999 488.13 283.221 487.431C286.215 477.827 296.255 445.519 299.735 433.017C299.757 432.938 299.807 432.87 299.875 432.825C299.943 432.78 300.026 432.761 300.107 432.773C300.188 432.784 300.262 432.825 300.315 432.887C300.368 432.95 300.397 433.029 300.396 433.111C300.222 445.028 299.802 475.433 299.657 485.934L299.642 487.066C299.635 487.831 299.915 488.572 300.426 489.14C300.937 489.709 301.642 490.064 302.402 490.136L311.737 490.987C311.832 490.996 311.927 491 312.02 491Z" fill="#2F2E41"/>
<path d="M309.723 284.538C312.607 286.252 314.333 289.403 315.323 292.61C317.156 298.546 318.26 304.684 318.609 310.887L319.655 329.461L332.61 378.701C321.382 388.203 314.905 386.044 299.791 378.271C284.678 370.498 282.95 380.862 282.95 380.862L279.928 338.965L275.61 293.183C276.579 292.015 277.676 290.96 278.881 290.037C282.872 286.933 287.516 284.775 292.462 283.726C297.408 282.678 302.528 282.766 307.435 283.984L309.723 284.538Z" fill="#FF9D2B"/>
<path d="M314.074 341.345C313.724 341.475 313.386 341.633 313.061 341.817L283.12 326.918L282.623 318.847L270.272 318L269.61 336.4L309.623 349.555C309.949 350.948 310.695 352.209 311.76 353.171C312.826 354.132 314.16 354.749 315.586 354.938C317.013 355.127 318.463 354.88 319.745 354.23C321.026 353.58 322.079 352.557 322.761 351.298C323.444 350.039 323.725 348.602 323.567 347.181C323.409 345.759 322.819 344.418 321.876 343.338C320.933 342.258 319.681 341.488 318.288 341.132C316.894 340.776 315.424 340.85 314.074 341.345Z" fill="#FFB8B8"/>
<path d="M276.097 292.902C268.881 295.525 267.61 323.94 267.61 323.94C276.099 319.131 286.287 327 286.287 327C286.287 327 288.409 319.569 290.956 309.952C291.725 307.247 291.817 304.385 291.224 301.634C290.63 298.882 289.37 296.33 287.561 294.215C287.561 294.215 283.313 290.278 276.097 292.902Z" fill="#FF9D2B"/>
<path d="M284.1 265.643C286.17 263.983 288.995 267 288.995 267L290.651 252.064C290.651 252.064 301.003 253.306 307.628 251.649C314.254 249.992 315.289 257.666 315.289 257.666C315.63 254.566 315.7 251.442 315.496 248.331C315.082 244.597 309.699 240.863 300.175 238.373C290.651 235.883 285.683 246.671 285.683 246.671C279.057 249.99 282.03 267.303 284.1 265.643Z" fill="#2F2E41"/>
</svg>
