<svg width="685" height="461" viewBox="0 0 685 461" fill="none" xmlns="http://www.w3.org/2000/svg">
<g clip-path="url(#clip0)">
<path d="M30.1473 435.866C39.1468 452.558 58.2468 459.724 58.2468 459.724C58.2468 459.724 62.7559 439.826 53.7564 423.133C44.757 406.441 25.6569 399.275 25.6569 399.275C25.6569 399.275 21.1479 419.173 30.1473 435.866Z" fill="#2F2E41"/>
<path d="M36.3329 430.374C52.5806 440.151 58.8381 459.57 58.8381 459.57C58.8381 459.57 38.7529 463.138 22.5052 453.361C6.2575 443.585 0 424.165 0 424.165C0 424.165 20.0852 420.597 36.3329 430.374Z" fill="#12E8A1"/>
<path d="M677.759 459.552H19.5508V461H677.759V459.552Z" fill="#3F3D56"/>
<path d="M386.428 126.5H331.785V137.216H386.428V126.5Z" fill="#12E8A1"/>
<path d="M342.111 170.824H287.468V181.54H342.111V170.824Z" fill="#12E8A1"/>
<path d="M416.428 251.163H388.928V261.879H416.428V251.163Z" fill="#3F3D56"/>
<path d="M511.071 251.163H483.571V261.879H511.071V251.163Z" fill="#3F3D56"/>
<path d="M560.714 251.163H533.214V261.879H560.714V251.163Z" fill="#3F3D56"/>
<path d="M535.714 332.605H508.214V343.321H535.714V332.605Z" fill="#3F3D56"/>
<path d="M635 332.605H607.5V343.321H635V332.605Z" fill="#3F3D56"/>
<path d="M610.357 251.163H582.857V261.879H610.357V251.163Z" fill="#3F3D56"/>
<path d="M660 251.163H632.5V261.879H660V251.163Z" fill="#3F3D56"/>
<path d="M685 193.296H358.571V147.217H359.285V192.582H685V193.296Z" fill="#3F3D56"/>
<path d="M659.107 275.632H447.921V193.073H448.636V274.917H659.107V275.632Z" fill="#3F3D56"/>
<path d="M403.035 193.118H402.321V239.152H403.035V193.118Z" fill="#3F3D56"/>
<path d="M497.678 193.118H496.964V239.152H497.678V193.118Z" fill="#3F3D56"/>
<path d="M547.321 193.118H546.607V239.152H547.321V193.118Z" fill="#3F3D56"/>
<path d="M596.964 193.118H596.25V239.152H596.964V193.118Z" fill="#3F3D56"/>
<path d="M646.607 193.118H645.893V239.152H646.607V193.118Z" fill="#3F3D56"/>
<path d="M522.321 275.274H521.607V321.308H522.321V275.274Z" fill="#3F3D56"/>
<path d="M621.607 275.274H620.893V321.308H621.607V275.274Z" fill="#3F3D56"/>
<path d="M386.428 216.996H331.785V227.712H386.428V216.996Z" fill="#12E8A1"/>
<path d="M416.428 92.3325H388.928V103.049H416.428V92.3325Z" fill="#3F3D56"/>
<path d="M511.071 92.3325H483.571V103.049H511.071V92.3325Z" fill="#3F3D56"/>
<path d="M560.714 92.3325H533.214V103.049H560.714V92.3325Z" fill="#3F3D56"/>
<path d="M535.714 10.8904H508.214V21.6064H535.714V10.8904Z" fill="#3F3D56"/>
<path d="M635 10.8904H607.5V21.6064H635V10.8904Z" fill="#3F3D56"/>
<path d="M610.357 92.3325H582.857V103.049H610.357V92.3325Z" fill="#3F3D56"/>
<path d="M660 92.3325H632.5V103.049H660V92.3325Z" fill="#3F3D56"/>
<path d="M685 160.915H358.571V206.994H359.285V161.63H685V160.915Z" fill="#3F3D56"/>
<path d="M659.107 78.5801H447.921V161.139H448.636V79.2949H659.107V78.5801Z" fill="#3F3D56"/>
<path d="M403.035 115.06H402.321V161.094H403.035V115.06Z" fill="#3F3D56"/>
<path d="M497.678 115.06H496.964V161.094H497.678V115.06Z" fill="#3F3D56"/>
<path d="M547.321 115.06H546.607V161.094H547.321V115.06Z" fill="#3F3D56"/>
<path d="M596.964 115.06H596.25V161.094H596.964V115.06Z" fill="#3F3D56"/>
<path d="M646.607 115.06H645.893V161.094H646.607V115.06Z" fill="#3F3D56"/>
<path d="M522.321 32.9033H521.607V78.9374H522.321V32.9033Z" fill="#3F3D56"/>
<path d="M621.607 32.9033H620.893V78.9374H621.607V32.9033Z" fill="#3F3D56"/>
<path d="M216.6 15.2982C207.982 0.733708 190.932 0.0549402 190.932 0.0549402C190.932 0.0549402 174.317 -2.07008 163.659 20.1118C153.725 40.7871 140.014 60.7495 161.452 65.5894L165.324 53.5353L167.722 66.4869C170.774 66.7064 173.836 66.7588 176.894 66.6436C199.852 65.9023 221.716 66.8605 221.012 58.6209C220.076 47.6675 224.893 29.3121 216.6 15.2982Z" fill="#2F2E41"/>
<path d="M184.807 64.9209C184.849 66.5602 184.836 68.2892 184.022 69.7124C182.407 72.5338 178.465 72.9562 176.094 75.1799C173.601 77.5185 173.319 81.3139 173.2 84.7306C173.076 88.3028 172.97 91.992 174.274 95.3201C175.072 97.1535 176.081 98.8876 177.281 100.487C178.728 102.574 180.189 104.652 181.664 106.72C182.451 107.885 183.329 108.986 184.288 110.014C186.928 112.704 190.55 114.193 194.167 115.256C196.503 115.942 199.026 116.477 201.344 115.731C202.878 115.132 204.292 114.263 205.518 113.164C207.31 111.879 208.902 110.335 210.242 108.584C212.189 105.76 212.728 102.224 213.131 98.8178C214.324 88.7445 214.788 78.5982 214.52 68.4581C214.569 67.3531 214.371 66.2511 213.941 65.2323C212.74 62.8876 209.525 62.3871 207.83 60.3702C206.382 58.6458 206.322 56.1848 206.335 53.9326L206.366 48.1989C206.417 47.7158 206.32 47.2288 206.088 46.802C205.878 46.5722 205.624 46.3861 205.342 46.2544C205.06 46.1227 204.754 46.048 204.443 46.0347C200.88 45.4433 197.268 45.2016 193.658 45.313C190.731 45.4024 185.116 45.1574 182.585 46.7878C180.288 48.2677 183.164 52.3551 183.696 54.651C184.411 58.0281 184.784 61.4689 184.807 64.9209Z" fill="#FFB8B8"/>
<path d="M137.21 448.82C136.466 451.352 136.121 454.304 137.666 456.442C138.52 457.513 139.645 458.337 140.923 458.828C144.149 460.233 147.759 460.51 151.273 460.347C151.947 460.378 152.621 460.269 153.251 460.027C153.881 459.786 154.454 459.416 154.934 458.941C163.102 452.178 168.626 442.753 170.536 432.321C170.691 431.782 170.662 431.208 170.453 430.688C170.185 430.285 169.808 429.965 169.367 429.766C167.55 428.627 165.59 427.732 163.54 427.104C152.319 424.207 139.99 439.359 137.21 448.82Z" fill="#2F2E41"/>
<path d="M254.889 413.348C256.397 415.099 258.256 416.514 260.344 417.502C261.392 417.987 262.536 418.229 263.691 418.209C264.845 418.19 265.98 417.909 267.011 417.389C270.098 415.631 270.973 411.547 270.726 408.002C270.271 401.447 267.14 395.54 263.542 390.185C262.403 388.49 259.883 383.448 257.671 383.385C256.621 383.355 252.692 387.165 251.624 387.891C247.724 390.54 245.022 392.435 245.834 397.521C246.739 403.193 251.073 409.263 254.889 413.348Z" fill="#2F2E41"/>
<path d="M191.525 55.0747C204.322 55.0747 214.696 44.6989 214.696 31.8996C214.696 19.1004 204.322 8.72461 191.525 8.72461C178.728 8.72461 168.354 19.1004 168.354 31.8996C168.354 44.6989 178.728 55.0747 191.525 55.0747Z" fill="#FFB8B8"/>
<path d="M181.983 89.3028C180.51 87.1116 179.297 84.7558 178.37 82.2831C177.444 79.7858 177.422 77.0431 178.307 74.5311C175.803 73.078 172.403 74.2548 170.58 76.5035C168.757 78.7523 168.198 81.7667 168.038 84.6576C167.877 87.5485 168.047 90.4819 167.418 93.3081C166.027 99.5608 160.863 104.701 160.479 111.095C160.101 117.386 164.414 122.866 166.536 128.8C167.822 132.498 168.359 136.416 168.117 140.324C168.048 141.586 167.969 143.023 168.859 143.92C169.322 144.325 169.87 144.62 170.463 144.784C180.701 148.387 191.76 148.699 202.611 148.974L220.531 149.428C221.615 149.557 222.714 149.373 223.696 148.898C225.304 147.912 225.519 145.702 225.546 143.815C225.782 127.571 225.091 111.33 224.4 95.0989C224.15 89.2159 223.895 83.2988 222.648 77.5441C222.33 76.0787 221.81 74.4491 220.457 73.8024C219.312 73.2549 217.954 73.6094 216.764 74.0491C211.209 76.1151 206.408 79.8114 202.99 84.6535C199.313 89.8878 197.504 96.1667 193.905 101.441C191.294 105.268 189.784 101.933 188.044 99.114C186.024 95.8431 184.004 92.5727 181.983 89.3028Z" fill="#12E8A1"/>
<path d="M176.046 68.2447C174.667 68.9225 173.11 69.2173 171.798 70.0164C170.227 70.9729 169.159 72.5537 168.141 74.0854L162.648 82.3487C161.357 84.1223 160.299 86.0544 159.5 88.0977C158.643 90.6042 158.584 93.3022 158.504 95.9501C158.281 103.315 157.823 110.668 157.131 118.009C156.859 121.549 156.349 125.066 155.605 128.537C154.951 131.352 154.026 134.096 153.102 136.835L142.925 167.007C142.297 168.51 141.998 170.131 142.049 171.759C142.217 173.374 143.286 175.016 144.884 175.304C145.94 175.393 147.001 175.179 147.939 174.686C151.825 173.063 155.681 171.142 158.673 168.179C163.59 163.308 165.567 156.287 167.356 149.601C168.306 146.053 169.262 142.456 169.258 138.784C169.249 130.448 164.327 122.727 164.197 114.393C164.22 112.128 164.424 109.869 164.806 107.636C165.683 101.566 166.594 95.4493 168.697 89.6876C170.799 83.926 174.203 78.4738 179.21 74.9321C181.61 73.2343 188.055 69.8346 185.538 65.9308C183.03 62.0395 178.499 67.0386 176.046 68.2447Z" fill="#575A88"/>
<path d="M220.692 142.94C204.087 141.652 187.467 140.581 170.832 139.727C169.434 139.656 167.844 139.658 166.885 140.677C166.473 141.179 166.166 141.757 165.981 142.379L162.428 151.964C160.854 156.21 160.136 160.218 156.994 163.477C153.851 166.737 150.112 169.381 147.009 172.679C142.38 177.621 139.336 183.835 138.266 190.522C137.402 196.009 137.893 201.695 136.476 207.066C134.729 213.685 137.532 220.578 137.488 227.424C137.423 237.62 136.025 247.755 134.629 257.855C130.582 287.138 126.535 316.422 122.139 345.655C118.53 369.656 114.976 395.564 126.246 417.059C128.939 422.196 132.608 427.075 137.76 429.74C140.614 431.081 143.635 432.03 146.743 432.56C154.724 434.23 162.796 435.426 170.918 436.141C174.213 436.431 178.053 436.427 180.166 433.882C181.583 432.175 181.781 429.796 181.917 427.581L182.805 413.115C183.955 394.396 183.533 374.99 179.358 356.707C177.95 350.543 176.179 344.46 175 338.247C173.881 332.346 173.302 326.356 173.269 320.35C173.177 316.044 173.573 311.742 174.45 307.526C177.504 293.931 187.625 281.672 186.154 267.817C195.479 281.496 198.571 297.159 201.489 313.457C203.617 325.345 205.919 337.259 209.95 348.644C214.331 361.021 220.837 373.309 219.911 386.407C219.684 389.137 219.231 391.843 218.556 394.498C215.907 405.491 227.103 414.891 237.427 410.282C237.498 410.251 237.568 410.219 237.639 410.186C247.18 405.79 251.999 394.215 261.732 390.26C266.25 388.425 271.879 388.165 273.71 382.616C274.116 381.333 274.253 379.981 274.111 378.643C273.682 374.155 271.125 370.524 269.135 366.666C264.793 358.25 263.147 348.743 261.586 339.403C260.034 330.123 258.511 320.838 257.017 311.549C256.039 305.475 255.066 299.365 253.07 293.547C252.196 291 251.128 288.516 250.428 285.915C247.812 276.201 250.518 265.852 249.424 255.851C248.194 244.601 245.935 233.431 243.461 222.388C240.257 208.083 239.602 193.345 239.087 178.695C238.883 172.876 238.67 166.915 236.477 161.521C233.384 153.913 227.283 147.838 220.692 142.94Z" fill="#2F2E41"/>
<path d="M212.79 13.8942L195.945 5.06885L172.683 8.67908L167.87 29.94L179.851 29.4787L183.198 21.668V29.3498L188.725 29.1376L191.935 16.702L193.94 29.94L213.593 29.5388L212.79 13.8942Z" fill="#2F2E41"/>
<path d="M203.929 78.4985C205.293 77.2081 207.011 76.3551 208.863 76.0494C209.512 76.0462 210.135 75.7954 210.605 75.3483C210.835 74.9582 210.939 74.5064 210.901 74.055C210.96 69.9704 210.622 65.8898 209.89 61.871C211.48 61.3069 213.169 61.0774 214.852 61.1969L230.45 61.2405C233.586 61.2493 236.833 61.2811 239.687 62.5822C242.61 64.0536 244.959 66.4587 246.361 69.4163C247.742 72.356 248.755 75.4552 249.377 78.6435C251.231 86.6494 244.577 94.7071 243.982 102.903C243.81 105.267 244.009 107.649 243.791 110.009C243.563 112.493 242.875 114.931 242.818 117.426C242.749 120.511 243.648 123.532 244.684 126.439C247.849 135.319 252.356 143.655 256.014 152.344C256.95 154.325 257.579 156.438 257.88 158.609C258.025 159.696 257.947 160.801 257.651 161.857C257.355 162.913 256.848 163.897 256.16 164.751C254.635 166.463 252.313 167.162 250.171 167.979C247.481 169.005 244.912 170.325 242.511 171.915C241.542 172.632 240.495 173.239 239.391 173.723C238.307 174.062 237.197 174.308 236.071 174.457C233.182 175.008 230.452 176.173 227.66 177.099C226.739 177.404 225.677 177.67 224.845 177.172C224.379 176.839 224.005 176.394 223.757 175.877C218.405 166.608 216.515 155.775 215.288 145.141C214.061 134.507 213.384 123.702 210.129 113.505C209.14 110.404 207.912 107.36 207.35 104.155C206.537 99.5201 207.146 94.7223 206.309 90.0921C205.567 85.9874 203.646 82.6602 203.929 78.4985Z" fill="#575A88"/>
<path d="M239.494 166.958C234.85 169.18 231.176 172.712 228.068 176.816C227.41 177.685 228.292 179.305 230.264 179.278C232.099 179.254 233.195 176.9 235.03 176.876C235.591 181.781 236.607 186.624 238.064 191.341C241.725 188.126 243.917 183.6 246.014 179.202L250.16 170.508C251.681 167.316 253.204 164.123 254.576 160.864C254.949 160.102 255.179 159.278 255.256 158.433C255.437 152.825 249.908 152.791 247.524 156.301C244.916 160.14 244.103 164.753 239.494 166.958Z" fill="#FFB8B8"/>
<path d="M240.447 70.5365C243.992 74.2203 247.561 77.9353 250.313 82.244C253.065 86.5526 254.976 91.5482 254.848 96.6592C254.711 97.953 254.759 99.2598 254.989 100.54C255.389 101.721 255.986 102.826 256.754 103.808C260.227 108.907 262.922 114.493 264.752 120.385C265.049 121.548 265.489 122.669 266.061 123.723C266.584 124.58 267.298 125.304 267.875 126.125C268.881 127.609 269.431 129.355 269.459 131.148C269.487 132.94 268.992 134.702 268.033 136.217C267.742 136.58 267.53 136.999 267.409 137.448C267.171 138.856 268.938 139.703 269.587 140.975C270.246 142.264 269.615 143.912 268.523 144.862C267.358 145.73 266.016 146.33 264.592 146.62C266.42 149.237 264.201 152.916 263.458 156.021C262.937 158.194 262.944 160.456 262.603 162.664C262.262 164.872 261.496 167.142 259.795 168.591C259.578 168.799 259.312 168.948 259.022 169.024C258.079 169.208 257.436 168.117 257.106 167.214C256.078 164.404 255.04 161.538 253.227 159.157C251.415 156.776 248.668 154.911 245.675 154.921C245.428 154.328 245.325 153.686 245.376 153.046C245.427 152.407 245.63 151.788 245.968 151.243C246.568 150.112 247.447 149.154 248.108 148.058C248.946 146.564 249.516 144.936 249.792 143.246C251.269 135.482 249.782 127.446 245.623 120.725C244.657 119.132 243.488 117.67 242.145 116.377C240.684 115.008 238.975 113.907 237.626 112.427C235.546 109.965 234.289 106.913 234.03 103.7C233.781 100.509 233.866 97.2999 234.283 94.1261C234.89 87.8275 235.67 81.5197 236.569 75.2563C236.639 74.4404 236.85 73.6429 237.194 72.8996C237.9 71.5823 239.094 71.1722 240.447 70.5365Z" fill="#575A88"/>
</g>
<defs>
<clipPath id="clip0">
<rect width="685" height="461" fill="white"/>
</clipPath>
</defs>
</svg>
