<svg width="684" height="479" viewBox="0 0 684 479" fill="none" xmlns="http://www.w3.org/2000/svg">
<g clip-path="url(#clip0)">
<path opacity="0.1" d="M290.994 18.4125C263.19 7.82939 233.809 -1.01093 203.815 0.100423C159.715 1.72957 117.381 26.5645 96.649 63.0309C79.0592 93.9278 76.8889 130.141 69.3117 164.429C59.9868 206.667 42.0942 246.821 22.9903 286.078C12.7317 307.169 1.90535 328.714 0.220819 351.831C-2.11354 383.928 14.2712 415.911 39.9681 437.26C65.665 458.61 99.7909 469.875 134.043 472.331C152.27 473.638 171.317 472.426 187.506 464.482C204.635 456.078 217.121 440.891 234.32 432.607C250.256 424.928 268.9 423.855 286.792 424.852C310.154 426.155 333.215 430.746 355.296 438.492C380.306 447.282 403.561 460.018 428.482 468.934C453.403 477.85 481.314 482.826 506.816 475.387C530.79 468.397 549.717 451.424 566.783 434.236C594.689 406.182 620.266 375.9 643.262 343.692C658.663 322.09 672.997 299.301 679.804 274.125C692.826 225.989 674.909 171.685 635.168 138.811C602.241 111.577 558.052 99.7561 514.797 92.5828C475.352 86.0409 429.744 85.6368 393.435 68.5876C358.811 52.3088 327.303 32.2413 290.994 18.4125Z" fill="#12E8A1"/>
<path d="M399.1 390.868V413.809H405.618L404.356 389.182L399.1 390.868Z" fill="#AAABB0"/>
<path d="M301.202 386.24V409.18H307.726L306.464 384.554L301.202 386.24Z" fill="#AAABB0"/>
<path d="M415.081 352.565C415.081 350.238 413.199 348.353 410.876 348.353C408.554 348.353 406.671 350.238 406.671 352.565V384.977C406.671 387.303 408.554 389.189 410.876 389.189C413.199 389.189 415.081 387.303 415.081 384.977V352.565Z" fill="#AAABB0"/>
<path d="M307.196 343.509C307.196 341.183 305.313 339.298 302.991 339.298C300.669 339.298 298.786 341.183 298.786 343.509V384.97C298.786 387.297 300.669 389.182 302.991 389.182C305.313 389.182 307.196 387.297 307.196 384.97V343.509Z" fill="#AAABB0"/>
<path d="M425.813 103.981C425.813 103.981 434.223 100.401 435.485 103.981C436.747 107.561 437.378 138.503 437.378 138.503H429.384L425.813 103.981Z" fill="#AAABB0"/>
<path d="M333.7 103.981C333.7 103.981 325.284 100.401 324.022 103.981C322.76 107.561 322.13 138.503 322.13 138.503H330.123L333.7 103.981Z" fill="#AAABB0"/>
<path d="M334.956 73.2484L333.694 98.9295H339.372V72.6169L334.956 73.2484Z" fill="#AAABB0"/>
<path d="M330.123 138.503L331.808 101.455C331.808 101.455 331.177 93.2465 351.151 95.7723C371.126 98.2981 429.599 103.35 429.599 103.35V138.503H330.123Z" fill="#33323D"/>
<path d="M410.04 333.621L406.886 390.237C406.886 390.237 360.615 415.918 304.464 391.5L309.511 331.935L410.04 333.621Z" fill="#33323D"/>
<path d="M366.085 110.712L367.132 147.336H432.33L428.545 98.9294L366.085 110.712Z" fill="#444053"/>
<path d="M372.709 309.411H311.297V387.288H372.709V309.411Z" fill="#4C4981"/>
<path d="M350.104 341.198C350.104 341.198 358.937 334.252 360.407 336.355C361.877 338.458 355.158 347.513 352.419 346.458C349.681 345.404 350.104 341.198 350.104 341.198Z" fill="#FFB9B9"/>
<path d="M595.25 136.393H192.118V338.458H595.25V136.393Z" fill="#504F60"/>
<path d="M330.331 71.7771C330.331 71.7771 327.177 42.3073 330.331 38.7333C333.486 35.1592 386.482 1.26294 435.485 41.0444C435.485 41.0444 440.109 41.2591 439.27 51.779C438.776 58.4372 438.81 65.1242 439.371 71.7771C439.371 71.7771 333.909 79.3545 330.331 71.7771Z" fill="#33323D"/>
<path opacity="0.1" d="M330.331 71.7771C330.331 71.7771 327.177 42.3073 330.331 38.7333C333.486 35.1592 386.482 1.26294 435.485 41.0444C435.485 41.0444 440.109 41.2591 439.27 51.779C438.776 58.4372 438.81 65.1242 439.371 71.7771C439.371 71.7771 333.909 79.3545 330.331 71.7771Z" fill="black"/>
<path d="M330.331 75.5658C330.331 75.5658 327.177 46.096 330.331 42.5219C333.486 38.9479 386.482 5.05163 435.485 44.8331C435.485 44.8331 440.109 45.0478 439.27 55.5677C438.776 62.2259 438.81 68.9129 439.371 75.5658C439.371 75.5658 333.909 83.1432 330.331 75.5658Z" fill="#33323D"/>
<path d="M441.163 62.0969C441.163 62.0969 444.526 74.7259 443.479 76.8287C442.431 78.9314 442.621 84.8292 442.621 84.8292C442.621 84.8292 442.848 88.6179 441.163 89.0346C439.479 89.4514 438.009 89.6661 439.371 90.929C440.734 92.1919 439.371 94.0862 439.371 94.0862C439.371 94.0862 438.633 97.0351 439.371 98.9295C440.11 100.824 435.056 101.613 435.485 103.981C435.914 106.349 437.327 113.03 435.485 113.244C433.643 113.459 436.116 121.662 434.457 121.662C432.797 121.662 431.617 136.393 431.617 136.393C431.617 136.393 419.946 126.505 412.167 129.239C412.167 129.239 412.797 121.03 415.321 118.081C417.845 115.133 417.081 107.561 417.081 107.561L429.599 69.8827L441.163 62.0969Z" fill="#4C4981"/>
<path d="M378.703 236.239C375.971 239.263 373.025 223.111 373.025 223.111C373.025 223.111 365.246 233.845 360.199 226.691C356.703 221.734 359.46 207.691 361.46 199.539C362.356 195.914 363.113 193.451 363.113 193.451L374.47 191.557C374.47 191.557 374.508 194.032 374.76 197.038C375.101 201.098 375.839 206.137 377.41 207.343C380.179 209.433 381.441 233.189 378.703 236.239Z" fill="#AE6E79"/>
<path opacity="0.1" d="M372.817 47.1505C372.817 47.1505 353.044 46.9421 348.211 57.4621C343.379 67.9821 343.164 71.5687 341.271 73.2484C339.379 74.9281 361.877 83.7747 361.877 83.7747L362.93 119.976C362.93 119.976 367.347 115.499 374.495 117.526C381.643 119.553 390.69 117.526 390.69 117.526C390.69 117.526 390.268 116.762 396.16 117.526C402.053 118.29 420.766 108.401 420.766 108.401C420.766 108.401 421.075 92.5645 420.659 89.1925C420.242 85.8206 434.009 61.0424 434.009 61.0424C434.009 61.0424 444.734 50.7308 433.592 47.1505C433.592 47.1505 429.649 41.2022 419.504 41.2591C409.359 41.3159 372.817 47.1505 372.817 47.1505Z" fill="black"/>
<path d="M372.817 46.519C372.817 46.519 353.044 46.3107 348.211 56.8306C343.379 67.3506 343.164 70.9373 341.271 72.6169C339.379 74.2966 361.877 83.1432 361.877 83.1432L362.93 119.344C362.93 119.344 367.347 114.867 374.495 116.894C381.643 118.921 390.69 116.894 390.69 116.894C390.69 116.894 390.268 116.13 396.16 116.894C402.053 117.658 420.766 107.77 420.766 107.77C420.766 107.77 428.122 95.7722 427.706 92.4066C427.289 89.041 442.425 63.5682 442.425 63.5682C442.425 63.5682 444.74 50.0994 433.592 46.519C433.592 46.519 429.649 40.5708 419.504 40.6276C409.359 40.6844 372.817 46.519 372.817 46.519Z" fill="#4C4981"/>
<path opacity="0.1" d="M374.81 197.019C370.476 195.668 363.675 198.648 361.511 199.545C362.407 195.92 363.164 193.458 363.164 193.458L374.52 191.563C374.52 191.563 374.539 194.039 374.81 197.019Z" fill="black"/>
<path d="M347.366 72.6169H341.271C341.271 72.6169 340.01 85.4607 341.271 89.2494C342.533 93.0381 343.164 92.4887 342.741 95.2923C342.319 98.096 345.688 102.39 345.688 102.39C345.688 102.39 346.104 112.973 348.211 116.913C350.319 120.853 345.896 138.521 345.896 138.521C347.102 141.572 348.887 144.359 351.151 146.73C354.729 150.304 356.621 163.565 355.568 168.616C354.514 173.668 358.514 175.562 358.514 175.562C358.514 175.562 360.199 199.141 360.83 199.141C361.46 199.141 373.656 192.826 377.441 198.295L374.495 176.617L374.71 134.733C374.71 134.733 370.71 129.466 372.817 124.838C374.924 120.209 371.132 109.26 371.132 109.26L365.662 84.8482L347.366 72.6169Z" fill="#4C4981"/>
<path d="M309.511 405.392C309.511 405.392 300.679 403.497 300.47 405.392C300.262 407.286 289.953 426.653 302.786 432.336C315.619 438.019 349.89 450.225 405.624 434.439C405.624 434.439 409.195 435.701 408.356 427.916C407.517 420.13 407.517 411.498 407.517 411.498C407.517 411.498 399.1 409.18 392.791 410.027C386.482 410.873 331.593 422.024 309.511 405.392Z" fill="#33323D"/>
<path opacity="0.1" d="M309.511 405.392C309.511 405.392 300.679 403.497 300.47 405.392C300.262 407.286 289.953 426.653 302.786 432.336C315.619 438.019 349.89 450.225 405.624 434.439C405.624 434.439 409.195 435.701 408.356 427.916C407.517 420.13 407.517 411.498 407.517 411.498C407.517 411.498 399.1 409.18 392.791 410.027C386.482 410.873 331.593 422.024 309.511 405.392Z" fill="black"/>
<path d="M309.511 402.866C309.511 402.866 300.679 400.972 300.47 402.866C300.262 404.76 289.953 424.127 302.786 429.81C315.619 435.493 349.89 447.699 405.624 431.913C405.624 431.913 409.195 433.176 408.356 425.39C407.517 417.604 407.517 408.972 407.517 408.972C407.517 408.972 399.1 406.655 392.791 407.501C386.482 408.347 331.593 419.498 309.511 402.866Z" fill="#33323D"/>
<path d="M361.019 80.1817C360.476 83.2695 359.246 86.2373 359.057 89.363C358.867 92.4887 360.072 96.0438 362.956 97.2688C363.76 97.5094 364.54 97.8265 365.284 98.216C366.394 98.9674 366.848 100.382 367.082 101.708C367.392 103.42 367.466 105.166 367.303 106.898C367.145 108.641 366.773 110.517 367.631 112.038C369.139 114.735 373.069 114.337 376.06 113.579L375.031 121.554C374.949 122.186 374.899 122.899 375.359 123.329C375.577 123.482 375.823 123.59 376.083 123.647C376.343 123.703 376.612 123.707 376.874 123.657C379.473 123.493 382.148 123.133 384.375 121.763C386.602 120.393 388.261 117.841 387.839 115.271C387.347 112.291 384.268 109.923 384.684 106.93C385.006 104.613 387.271 103.141 388.76 101.361C391.454 98.1023 391.599 93.1517 389.485 89.4641C387.372 85.7764 383.29 83.4905 379.088 83.0738C376.76 82.8401 374.337 83.1243 372.148 82.316C371.386 82.0364 370.7 81.5842 370.141 80.9949C369.583 80.4056 369.169 79.695 368.93 78.9188" fill="#444053"/>
<path d="M287.644 360.982L289.846 356.183C289.846 356.183 301.732 345.101 304.464 344.324C307.196 343.547 318.344 340.163 320.029 340.163C321.713 340.163 352.419 338.477 352.419 338.477L355.99 346.9L317.454 355.368L304.464 364.84L287.644 360.982Z" fill="#767D9F"/>
<path d="M380.23 231.743L378.217 247.245L377.441 253.212L368.4 254.475C368.4 254.475 367.422 252.378 366.041 249.158C361.845 239.383 353.946 219.227 358.527 215.748C364.615 211.113 366.098 226.483 366.098 226.483L373.038 223.111L380.23 231.743Z" fill="#FFB9B9"/>
<path d="M378.722 260.581H333.063V329.618H378.722V260.581Z" fill="white"/>
<path opacity="0.1" d="M378.722 260.581H333.063V329.618H378.722V260.581Z" fill="black"/>
<path d="M399.243 264.319L354.075 257.635L343.987 325.929L389.155 332.613L399.243 264.319Z" fill="white"/>
<path d="M381.576 267.589L358.327 264.148L353.135 299.298L376.384 302.738L381.576 267.589Z" fill="#12E8A1"/>
<path d="M378.809 313.469L350.643 309.301L349.515 316.935L377.682 321.103L378.809 313.469Z" fill="#12E8A1"/>
<path opacity="0.1" d="M390.69 86.4016C405.266 86.4016 417.081 74.5758 417.081 59.9879C417.081 45.4001 405.266 33.5743 390.69 33.5743C376.115 33.5743 364.299 45.4001 364.299 59.9879C364.299 74.5758 376.115 86.4016 390.69 86.4016Z" fill="black"/>
<path d="M390.69 85.7701C405.266 85.7701 417.081 73.9443 417.081 59.3565C417.081 44.7686 405.266 32.9429 390.69 32.9429C376.115 32.9429 364.299 44.7686 364.299 59.3565C364.299 73.9443 376.115 85.7701 390.69 85.7701Z" fill="#AE6E79"/>
<path d="M368.93 78.9314C368.751 78.251 368.816 77.5293 369.113 76.8918C370.116 74.8017 372.974 74.6186 375.29 74.7259C380.735 74.9785 386.709 75.0101 390.968 71.5687C392.735 70.1542 394.709 66.5991 397.277 67.2748C399.561 67.8747 400.514 70.9751 402.892 71.6634C404.615 72.1622 406.4 71.3666 408.154 71.0319C410.678 70.5331 413.264 70.9498 415.826 70.9688C418.387 70.9877 421.17 70.5015 422.917 68.6261C425.277 66.1003 424.892 62.1537 424.684 58.6934C424.425 54.2235 424.728 49.7388 425.586 45.3445C426.444 40.9748 427.763 36.0874 425.352 32.3429C423.056 28.7752 418.299 27.7964 415.05 25.0623C412.009 22.5365 410.4 18.4889 407.189 16.1462C403.145 13.1973 397.649 13.6204 392.678 14.1318L381.889 15.2811C379.107 15.5779 376.211 15.9125 373.921 17.5733C369.788 20.5663 369.221 26.7861 365.309 30.0634C363.568 31.5157 361.34 32.2356 359.353 33.3216C357.366 34.4077 355.448 36.1253 355.221 38.3733C355.031 40.2676 356.053 42.0167 356.552 43.8416C357.732 48.1986 355.889 52.6819 354.71 57.0705C353.53 61.4591 353.303 66.7886 356.729 69.6996C357.423 70.2931 358.23 70.7478 358.905 71.3666C361.221 73.4819 361.536 77.0497 361 80.1311" fill="#444053"/>
<path d="M392.842 92.3498C393.19 92.3498 393.473 91.643 393.473 90.7711C393.473 89.8993 393.19 89.1925 392.842 89.1925C392.493 89.1925 392.211 89.8993 392.211 90.7711C392.211 91.643 392.493 92.3498 392.842 92.3498Z" fill="#444053"/>
<path d="M392.842 98.9295C393.19 98.9295 393.473 98.2227 393.473 97.3508C393.473 96.479 393.19 95.7722 392.842 95.7722C392.493 95.7722 392.211 96.479 392.211 97.3508C392.211 98.2227 392.493 98.9295 392.842 98.9295Z" fill="#444053"/>
<path d="M378.848 236.194C379.523 235.418 379.971 233.422 380.23 230.789L372.709 221.406C372.709 221.406 375.896 239.598 378.848 236.194Z" fill="#AE6E79"/>
<path opacity="0.1" d="M387.328 391.291C387.328 391.291 374.987 410.386 336.432 408.341C300.111 406.446 282.382 388.557 283.228 382.243C284.073 375.928 280.912 360.559 288.691 356.138C293.202 353.581 299.139 355.097 303.328 356.827C304.776 357.415 306.36 357.581 307.898 357.305C309.435 357.029 310.863 356.322 312.016 355.267C315.846 351.813 322.988 347.923 334.262 350.986C335.713 351.373 337.243 351.345 338.678 350.904C343.372 349.47 354.546 346.982 362.653 352.508C363.934 353.392 365.44 353.892 366.995 353.952C368.55 354.011 370.09 353.626 371.435 352.842L371.549 352.773C375.334 350.455 393 372.348 393 372.348C393 372.348 393.845 389.189 387.328 391.291Z" fill="black"/>
<path d="M387.328 391.923C387.328 391.923 374.987 411.018 336.432 408.972C300.111 407.078 282.382 389.189 283.228 382.874C284.073 376.56 280.912 361.19 288.691 356.77C293.202 354.213 299.139 355.728 303.328 357.458C304.776 358.047 306.36 358.212 307.898 357.936C309.435 357.66 310.863 356.954 312.016 355.899C315.846 352.445 322.988 348.555 334.262 351.617C335.713 352.005 337.243 351.976 338.678 351.535C343.372 350.102 354.546 347.614 362.653 353.139C363.934 354.023 365.44 354.524 366.995 354.583C368.55 354.642 370.09 354.258 371.435 353.474L371.549 353.404C375.334 351.087 393 372.979 393 372.979C393 372.979 393.845 389.82 387.328 391.923Z" fill="#767D9F"/>
<path opacity="0.1" d="M336.432 399.399C350.314 399.399 361.568 388.136 361.568 374.242C361.568 360.348 350.314 349.085 336.432 349.085C322.55 349.085 311.297 360.348 311.297 374.242C311.297 388.136 322.55 399.399 336.432 399.399Z" fill="black"/>
<path d="M336.432 400.031C350.314 400.031 361.568 388.767 361.568 374.874C361.568 360.98 350.314 349.717 336.432 349.717C322.55 349.717 311.297 360.98 311.297 374.874C311.297 388.767 322.55 400.031 336.432 400.031Z" fill="#FFB9B9"/>
<path d="M329.227 353.127C326.59 353.84 323.991 355.204 322.704 357.446C321.928 358.797 321.656 360.42 320.533 361.544C318.943 363.141 316.262 363.173 314.111 364.07C311.959 364.966 310.54 368.124 312.647 369.121C310.451 369.235 308.824 371.262 308.552 373.276C308.281 375.29 309.044 377.299 309.783 379.218C312.193 385.432 314.786 391.917 320.098 396.337C328.754 403.548 341.801 403.213 353.429 402.449C354.379 402.481 355.321 402.263 356.161 401.818C357.423 400.984 357.58 399.387 357.788 397.985C358.665 391.999 361.908 386.562 364.028 380.847C366.148 375.133 367.019 368.42 363.448 363.362C358.192 355.861 338.073 350.727 329.227 353.127Z" fill="#B96B6B"/>
<path opacity="0.1" d="M378.217 247.245L377.441 253.212L368.4 254.475C368.4 254.475 367.422 252.378 366.041 249.158L378.072 246.897L378.217 247.245Z" fill="black"/>
<path d="M387.744 379.085L393.006 372.979L391.952 339.304C392.47 336.875 392.822 334.412 393.006 331.935C393.214 328.355 390.375 320.36 390.375 320.36C390.815 318.76 391.413 317.208 392.16 315.726C393.422 313.2 390.381 307.517 390.381 307.517C390.381 307.517 385.851 292.785 387.744 285.416C389.637 278.047 387.284 273.842 387.284 273.842C387.284 273.842 385.435 265.633 385.643 262.267C385.851 258.901 381.435 255.738 381.435 255.738L378.072 247.529L364.615 250.055V278.47C364.615 278.47 365.454 305.622 364.615 310.889C363.776 316.155 366.293 321.2 366.293 321.2C366.293 321.2 364.823 328.986 366.085 331.935C367.347 334.884 369.87 342.038 369.87 342.038C369.402 344.595 369.547 347.227 370.293 349.717C371.555 353.404 370.293 355.507 370.293 355.507L387.744 379.085Z" fill="#767D9F"/>
<g opacity="0.1">
<path opacity="0.1" d="M425.605 43.2671C424.894 46.9634 424.574 50.7246 424.652 54.488C424.706 51.3587 425.033 48.2401 425.63 45.1678C426.185 42.3641 426.892 39.3458 426.74 36.5485C426.508 38.8103 426.129 41.0546 425.605 43.2671Z" fill="black"/>
<path opacity="0.1" d="M358.924 69.3334C358.249 68.702 357.442 68.26 356.748 67.6601C354.905 66.0878 354.129 63.8082 353.978 61.3456C353.795 64.5028 354.438 67.5591 356.748 69.5545C357.442 70.1543 358.249 70.609 358.924 71.2278C360.335 72.6255 361.153 74.5141 361.208 76.5004C361.391 73.8483 360.855 71.0889 358.924 69.3334Z" fill="black"/>
<path opacity="0.1" d="M356.912 45.755C357.022 44.4213 356.907 43.0785 356.571 41.7832C356.205 40.4319 355.549 39.1121 355.309 37.7545C355.309 37.8998 355.259 38.0513 355.24 38.2092C355.057 40.1035 356.079 41.8526 356.571 43.6775C356.752 44.3572 356.866 45.053 356.912 45.755Z" fill="black"/>
<path opacity="0.1" d="M422.936 66.5487C421.189 68.4431 418.406 68.9103 415.845 68.8914C413.283 68.8724 410.69 68.4557 408.173 68.9609C406.419 69.3145 404.633 70.1038 402.911 69.5923C400.533 68.904 399.58 65.8036 397.302 65.2037C394.709 64.5218 392.735 68.0768 390.993 69.4913C386.735 72.9011 380.76 72.8695 375.315 72.6485C373 72.5412 370.142 72.7243 369.145 74.8207C368.841 75.4564 368.776 76.1805 368.962 76.8603L361.252 78.0727C361.223 78.7079 361.154 79.3407 361.044 79.9671L368.962 78.7041C368.776 78.0244 368.841 77.3003 369.145 76.6646C370.142 74.5681 373 74.385 375.315 74.4924C380.76 74.7449 386.735 74.7765 390.993 71.3351C392.76 69.9207 394.735 66.3656 397.302 67.0476C399.58 67.6411 400.533 70.7479 402.911 71.4361C404.633 71.9287 406.419 71.1394 408.173 70.8047C410.697 70.2995 413.283 70.7163 415.845 70.7352C418.406 70.7542 421.189 70.268 422.936 68.3926C424.684 66.5171 424.936 63.7198 424.829 60.9919C424.753 63.1073 424.318 65.0648 422.936 66.5487Z" fill="black"/>
</g>
<g opacity="0.1">
<path opacity="0.1" d="M364.533 96.8772C363.79 96.4856 363.01 96.1683 362.205 95.93C360.836 95.3073 359.749 94.1946 359.158 92.8107C359.631 94.9892 360.83 96.9719 362.836 97.8244C363.641 98.0627 364.421 98.38 365.164 98.7716C365.639 99.1075 366.023 99.5568 366.281 100.079C366.028 98.841 365.568 97.5781 364.533 96.8772Z" fill="black"/>
<path opacity="0.1" d="M375.309 112.24C372.4 112.979 368.602 113.364 367.006 110.895C367.056 111.49 367.228 112.069 367.511 112.594C368.874 115.025 372.205 114.943 375.038 114.343L375.309 112.24Z" fill="black"/>
<path opacity="0.1" d="M387.094 113.971C387.498 116.534 385.832 119.092 383.624 120.437C381.416 121.782 378.722 122.154 376.123 122.331C375.71 122.385 375.289 122.337 374.899 122.192C374.78 122.459 374.742 122.755 374.789 123.043C374.836 123.331 374.965 123.6 375.162 123.816C375.359 124.031 375.614 124.185 375.897 124.258C376.18 124.33 376.477 124.319 376.754 124.225C379.353 124.061 382.028 123.701 384.255 122.331C386.482 120.961 388.148 118.41 387.719 115.84C387.598 115.191 387.387 114.562 387.094 113.971Z" fill="black"/>
<path opacity="0.1" d="M389.895 91.1121C390.281 92.6473 390.31 94.2503 389.982 95.7988C389.654 97.3473 388.977 98.8003 388.003 100.047C386.514 101.853 384.249 103.299 383.927 105.616C383.82 106.682 384.04 107.755 384.558 108.692C384.501 108.3 384.501 107.902 384.558 107.511C384.88 105.193 387.145 103.722 388.634 101.941C391.082 98.9799 391.422 94.6166 389.895 91.1121Z" fill="black"/>
</g>
<g opacity="0.1">
<path opacity="0.1" d="M314.117 365.042C316.262 364.152 318.943 364.12 320.54 362.516C321.663 361.392 321.934 359.77 322.71 358.425C323.972 356.177 326.59 354.819 329.227 354.105C338.06 351.706 358.199 356.833 363.448 364.265C364.986 366.514 365.825 369.168 365.858 371.893C366.06 368.747 365.215 365.623 363.454 363.009C358.205 355.577 338.085 350.449 329.234 352.849C326.596 353.562 323.997 354.92 322.716 357.168C321.94 358.513 321.669 360.136 320.546 361.26C318.95 362.857 316.268 362.889 314.123 363.786C312.489 364.461 311.278 366.457 311.72 367.795C311.896 367.19 312.201 366.63 312.615 366.154C313.029 365.679 313.542 365.299 314.117 365.042Z" fill="black"/>
<path opacity="0.1" d="M308.565 374.217C308.83 372.197 310.458 370.176 312.66 370.062C312.428 369.966 312.222 369.819 312.055 369.632C311.888 369.445 311.764 369.223 311.694 368.982C310.857 369.294 310.12 369.829 309.564 370.529C309.008 371.229 308.654 372.067 308.54 372.954C308.48 373.468 308.48 373.987 308.54 374.501C308.565 374.407 308.565 374.312 308.565 374.217Z" fill="black"/>
</g>
<path d="M442.21 145.385H384.798V220.32H442.21V145.385Z" fill="white"/>
<path opacity="0.1" d="M442.21 145.385H384.798V220.32H442.21V145.385Z" fill="black"/>
<path d="M464.146 149.782L407.564 159.523L420.257 233.372L476.838 223.631L464.146 149.782Z" fill="white"/>
<path d="M434.571 207.577L421.278 209.866L424.26 227.216L437.553 224.927L434.571 207.577Z" fill="#12E8A1"/>
<path d="M452.967 204.407L439.673 206.696L442.655 224.046L455.949 221.757L452.967 204.407Z" fill="#12E8A1"/>
<path d="M465.966 178.988L419.346 187L422.336 204.429L468.956 196.416L465.966 178.988Z" fill="#12E8A1"/>
<path d="M462.08 158.186L415.46 166.199L416.127 170.087L462.747 162.075L462.08 158.186Z" fill="#12E8A1"/>
<path d="M463.609 165.339L416.989 173.351L417.656 177.24L464.276 169.227L463.609 165.339Z" fill="#12E8A1"/>
<path d="M417.081 125.027C417.081 125.027 390.69 151.548 403.939 158.286C417.189 165.023 425.813 135.869 425.813 135.869L427.908 129.239L417.081 125.027Z" fill="#AE6E79"/>
<path opacity="0.1" d="M414.772 122.685L411.51 129.896C411.51 129.896 427.599 132.156 430.961 137.025L428.968 124.301L426.602 118.871L414.772 122.685Z" fill="black"/>
<path d="M415.403 122.053L412.141 129.264C412.141 129.264 428.23 131.525 431.592 136.393L429.599 123.67L427.233 118.239L415.403 122.053Z" fill="#4C4981"/>
<path d="M512.79 254.639L512.443 254.879L512.923 255.094L513.44 255.05L513.503 254.69L512.79 254.639Z" fill="#464A5F"/>
<path opacity="0.1" d="M512.79 254.639L512.443 254.879L512.923 255.094L513.44 255.05L513.503 254.69L512.79 254.639Z" fill="black"/>
<path d="M512.79 254.639L512.437 254.866L512.159 254.525L512.33 254.248L512.487 254.197L512.79 254.639Z" fill="#9C9CA1"/>
<path opacity="0.1" d="M512.79 254.639L512.437 254.866L512.159 254.525L512.33 254.248L512.487 254.197L512.79 254.639Z" fill="black"/>
<path d="M574.891 210.999L549.061 173.662C548.832 173.328 548.54 173.044 548.201 172.824C547.862 172.603 547.483 172.452 547.086 172.379C546.689 172.306 546.281 172.312 545.886 172.396C545.491 172.481 545.116 172.643 544.784 172.872L487.207 212.426C486.533 212.889 486.071 213.601 485.92 214.404C485.77 215.208 485.945 216.039 486.406 216.714L512.166 254.525L574.891 210.999Z" fill="#9C9CA1"/>
<path opacity="0.1" d="M574.891 210.999L549.061 173.662C548.832 173.328 548.54 173.044 548.201 172.824C547.862 172.603 547.483 172.452 547.086 172.379C546.689 172.306 546.281 172.312 545.886 172.396C545.491 172.481 545.116 172.643 544.784 172.872L487.207 212.426C486.533 212.889 486.071 213.601 485.92 214.404C485.77 215.208 485.945 216.039 486.406 216.714L512.166 254.525L574.891 210.999Z" fill="black"/>
<path d="M575.521 211.088L549.692 173.75C549.463 173.417 549.17 173.132 548.83 172.911C548.491 172.691 548.111 172.54 547.714 172.467C547.316 172.394 546.907 172.4 546.512 172.484C546.116 172.569 545.741 172.731 545.408 172.961L487.838 212.54C487.165 213.003 486.702 213.714 486.55 214.517C486.399 215.321 486.572 216.151 487.03 216.828L512.79 254.658L575.521 211.088Z" fill="#9C9CA1"/>
<path d="M597.111 218.47L575.66 211.574L512.923 255.1L534.714 262.235C535.202 262.394 535.72 262.437 536.227 262.36C536.734 262.283 537.216 262.089 537.635 261.793L597.288 219.638C597.4 219.575 597.49 219.48 597.546 219.364C597.602 219.249 597.622 219.119 597.603 218.993C597.584 218.866 597.527 218.748 597.439 218.654C597.351 218.561 597.237 218.496 597.111 218.47Z" fill="#464A5F"/>
<path opacity="0.1" d="M597.111 218.47L575.66 211.574L512.923 255.1L534.714 262.235C535.202 262.394 535.72 262.437 536.227 262.36C536.734 262.283 537.216 262.089 537.635 261.793L597.288 219.638C597.4 219.575 597.49 219.48 597.546 219.364C597.602 219.249 597.622 219.119 597.603 218.993C597.584 218.866 597.527 218.748 597.439 218.654C597.351 218.561 597.237 218.496 597.111 218.47Z" fill="black"/>
<path d="M596.979 218.034L575.528 211.132L512.79 254.658L534.582 261.781C535.069 261.942 535.587 261.987 536.094 261.911C536.602 261.836 537.084 261.642 537.503 261.345L597.155 219.189C597.263 219.125 597.349 219.03 597.402 218.916C597.455 218.803 597.474 218.676 597.455 218.552C597.436 218.428 597.38 218.313 597.296 218.22C597.211 218.128 597.101 218.063 596.979 218.034Z" fill="#464A5F"/>
<g opacity="0.1">
<path opacity="0.1" d="M565.389 209.421L563.806 207.148C563.71 207.016 563.568 206.926 563.408 206.896C563.248 206.867 563.083 206.9 562.948 206.99L560.594 208.562C560.462 208.655 560.371 208.796 560.339 208.954C560.307 209.113 560.338 209.278 560.424 209.414L561.881 211.656C561.973 211.79 562.112 211.884 562.271 211.918C562.429 211.953 562.595 211.924 562.733 211.839L565.212 210.28C565.347 210.187 565.441 210.046 565.474 209.886C565.507 209.726 565.477 209.559 565.389 209.421Z" fill="black"/>
<path opacity="0.1" d="M561.162 212.351L559.572 210.084C559.477 209.952 559.335 209.862 559.175 209.833C559.015 209.803 558.85 209.837 558.714 209.926L556.367 211.511C556.234 211.603 556.141 211.743 556.108 211.902C556.076 212.06 556.105 212.226 556.19 212.363L557.648 214.605C557.738 214.74 557.877 214.836 558.036 214.871C558.194 214.906 558.361 214.879 558.5 214.794L560.985 213.235C561.056 213.189 561.116 213.129 561.163 213.06C561.21 212.99 561.243 212.912 561.259 212.83C561.276 212.748 561.275 212.663 561.259 212.581C561.242 212.498 561.209 212.42 561.162 212.351Z" fill="black"/>
<path opacity="0.1" d="M556.72 215.426L555.131 213.159C555.035 213.027 554.893 212.937 554.733 212.908C554.573 212.878 554.408 212.912 554.272 213.001L551.919 214.586C551.785 214.679 551.693 214.821 551.661 214.981C551.629 215.141 551.661 215.307 551.749 215.445L553.206 217.687C553.297 217.821 553.437 217.915 553.595 217.949C553.754 217.983 553.92 217.955 554.058 217.87L556.537 216.31C556.608 216.265 556.669 216.206 556.717 216.136C556.764 216.067 556.798 215.989 556.815 215.906C556.832 215.824 556.832 215.739 556.816 215.657C556.8 215.574 556.767 215.496 556.72 215.426Z" fill="black"/>
<path opacity="0.1" d="M552.222 218.545L550.632 216.272C550.537 216.142 550.396 216.053 550.238 216.024C550.079 215.994 549.916 216.027 549.78 216.114L547.427 217.705C547.295 217.799 547.204 217.939 547.172 218.098C547.14 218.256 547.171 218.421 547.257 218.558L548.714 220.8C548.804 220.933 548.942 221.027 549.099 221.063C549.256 221.098 549.421 221.071 549.56 220.989L552.045 219.423C552.115 219.377 552.174 219.318 552.221 219.249C552.267 219.18 552.3 219.102 552.316 219.021C552.332 218.939 552.333 218.855 552.316 218.774C552.3 218.692 552.268 218.614 552.222 218.545Z" fill="black"/>
<path opacity="0.1" d="M547.73 221.658L546.14 219.391C546.045 219.26 545.903 219.17 545.743 219.14C545.583 219.111 545.418 219.144 545.282 219.234L542.935 220.819C542.802 220.911 542.709 221.051 542.676 221.209C542.644 221.368 542.673 221.533 542.758 221.671L544.216 223.913C544.306 224.048 544.445 224.143 544.604 224.178C544.762 224.214 544.929 224.186 545.068 224.102L547.553 222.536C547.623 222.49 547.682 222.431 547.729 222.362C547.775 222.293 547.808 222.216 547.824 222.134C547.84 222.052 547.84 221.968 547.824 221.887C547.808 221.805 547.776 221.728 547.73 221.658Z" fill="black"/>
<path opacity="0.1" d="M543.433 225.055L541.459 222.239C541.438 222.208 541.411 222.181 541.379 222.16C541.348 222.139 541.313 222.125 541.276 222.118C541.239 222.111 541.201 222.111 541.164 222.119C541.127 222.127 541.092 222.142 541.061 222.163L538.172 224.115C538.14 224.135 538.112 224.162 538.091 224.193C538.07 224.224 538.055 224.259 538.047 224.296C538.039 224.333 538.039 224.372 538.047 224.409C538.054 224.446 538.069 224.481 538.09 224.512L539.9 227.297C539.942 227.361 540.007 227.406 540.081 227.423C540.155 227.439 540.233 227.426 540.298 227.386L543.351 225.491C543.388 225.47 543.42 225.442 543.444 225.407C543.469 225.373 543.486 225.334 543.493 225.292C543.501 225.251 543.5 225.208 543.489 225.167C543.479 225.126 543.46 225.088 543.433 225.055Z" fill="black"/>
<path opacity="0.1" d="M538.941 228.169L536.954 225.352C536.933 225.321 536.905 225.294 536.873 225.273C536.841 225.252 536.805 225.238 536.768 225.231C536.73 225.224 536.692 225.224 536.654 225.232C536.617 225.24 536.582 225.255 536.55 225.277L533.661 227.228C533.599 227.271 533.556 227.337 533.542 227.411C533.528 227.486 533.543 227.562 533.585 227.626L535.396 230.41C535.415 230.443 535.441 230.472 535.472 230.495C535.503 230.517 535.538 230.533 535.575 230.541C535.612 230.55 535.651 230.55 535.689 230.543C535.726 230.535 535.762 230.52 535.793 230.499L538.84 228.604C538.879 228.586 538.914 228.559 538.941 228.526C538.968 228.492 538.987 228.453 538.997 228.411C539.007 228.369 539.007 228.325 538.997 228.283C538.987 228.241 538.968 228.202 538.941 228.169Z" fill="black"/>
<path opacity="0.1" d="M534.96 230.928L532.986 228.137C532.941 228.076 532.875 228.035 532.801 228.022C532.727 228.009 532.651 228.025 532.588 228.068L529.699 230.012C529.635 230.056 529.591 230.123 529.576 230.198C529.561 230.273 529.575 230.352 529.617 230.417L531.427 233.201C531.47 233.264 531.535 233.308 531.608 233.325C531.682 233.341 531.76 233.329 531.825 233.29L534.878 231.395C534.92 231.376 534.957 231.346 534.985 231.309C535.013 231.272 535.032 231.229 535.04 231.183C535.048 231.137 535.045 231.09 535.031 231.046C535.017 231.001 534.993 230.961 534.96 230.928Z" fill="black"/>
<path opacity="0.1" d="M530.506 234.009L528.531 231.193C528.487 231.132 528.421 231.091 528.347 231.078C528.273 231.065 528.196 231.081 528.134 231.124L525.244 233.069C525.212 233.09 525.185 233.117 525.163 233.149C525.142 233.18 525.127 233.216 525.119 233.254C525.112 233.291 525.112 233.33 525.119 233.367C525.126 233.405 525.141 233.441 525.162 233.473L526.973 236.257C527.016 236.32 527.08 236.364 527.154 236.381C527.228 236.397 527.306 236.385 527.371 236.346L530.424 234.452C530.461 234.43 530.493 234.401 530.517 234.366C530.542 234.331 530.559 234.291 530.566 234.249C530.574 234.207 530.573 234.164 530.562 234.123C530.552 234.081 530.533 234.043 530.506 234.009Z" fill="black"/>
<path opacity="0.1" d="M526.191 236.977L524.216 234.161C524.195 234.13 524.168 234.103 524.137 234.082C524.105 234.061 524.07 234.047 524.033 234.04C523.996 234.033 523.958 234.033 523.921 234.041C523.884 234.049 523.85 234.064 523.819 234.085L520.929 236.037C520.897 236.057 520.87 236.084 520.848 236.115C520.827 236.146 520.812 236.181 520.804 236.218C520.797 236.255 520.797 236.293 520.804 236.331C520.811 236.368 520.826 236.403 520.847 236.434L522.658 239.219C522.699 239.283 522.764 239.328 522.838 239.345C522.913 239.361 522.991 239.348 523.055 239.307L526.109 237.413C526.145 237.392 526.177 237.364 526.202 237.329C526.226 237.295 526.243 237.256 526.251 237.214C526.259 237.173 526.257 237.13 526.247 237.089C526.237 237.048 526.217 237.01 526.191 236.977Z" fill="black"/>
<path opacity="0.1" d="M521.875 239.996L519.919 237.173C519.875 237.112 519.809 237.071 519.735 237.058C519.661 237.045 519.584 237.061 519.522 237.104L516.632 239.049C516.6 239.07 516.573 239.097 516.551 239.128C516.53 239.16 516.515 239.196 516.507 239.233C516.5 239.271 516.5 239.31 516.507 239.347C516.514 239.385 516.529 239.421 516.55 239.453L518.361 242.237C518.404 242.3 518.468 242.344 518.542 242.361C518.616 242.377 518.694 242.365 518.759 242.326L521.812 240.431C521.847 240.409 521.877 240.379 521.9 240.344C521.923 240.309 521.938 240.269 521.944 240.228C521.95 240.187 521.947 240.144 521.935 240.104C521.923 240.064 521.903 240.027 521.875 239.996Z" fill="black"/>
<path opacity="0.1" d="M517.56 242.982L515.585 240.166C515.564 240.135 515.537 240.108 515.506 240.087C515.474 240.066 515.439 240.052 515.402 240.045C515.365 240.038 515.327 240.038 515.29 240.046C515.254 240.054 515.219 240.069 515.188 240.09L512.298 242.029C512.266 242.049 512.239 242.076 512.218 242.107C512.196 242.138 512.181 242.173 512.174 242.211C512.166 242.248 512.166 242.286 512.173 242.323C512.18 242.36 512.195 242.395 512.216 242.427L514.027 245.211C514.068 245.275 514.133 245.321 514.207 245.337C514.282 245.354 514.36 245.34 514.424 245.3L517.478 243.405C517.513 243.384 517.543 243.356 517.566 243.323C517.589 243.29 517.605 243.252 517.613 243.212C517.62 243.172 517.62 243.131 517.611 243.092C517.602 243.052 517.584 243.015 517.56 242.982Z" fill="black"/>
<path opacity="0.1" d="M562.55 205.31L560.96 203.037C560.865 202.905 560.723 202.815 560.563 202.786C560.403 202.756 560.238 202.79 560.102 202.879L557.774 204.47C557.641 204.562 557.548 204.702 557.515 204.861C557.483 205.02 557.512 205.185 557.597 205.323L559.055 207.564C559.146 207.699 559.285 207.793 559.444 207.827C559.603 207.861 559.768 207.832 559.906 207.747L562.392 206.188C562.529 206.092 562.623 205.946 562.652 205.782C562.682 205.617 562.645 205.447 562.55 205.31Z" fill="black"/>
<path opacity="0.1" d="M556.336 196.325L554.746 194.039C554.651 193.909 554.51 193.82 554.351 193.79C554.193 193.761 554.029 193.793 553.894 193.881L551.541 195.466C551.408 195.558 551.315 195.698 551.282 195.857C551.249 196.015 551.279 196.181 551.364 196.318L552.821 198.56C552.912 198.695 553.051 198.79 553.209 198.826C553.368 198.861 553.534 198.834 553.673 198.749L556.159 197.19C556.295 197.097 556.39 196.955 556.423 196.793C556.456 196.631 556.425 196.463 556.336 196.325Z" fill="black"/>
<path opacity="0.1" d="M558.317 208.24L556.727 205.973C556.632 205.843 556.491 205.754 556.332 205.725C556.174 205.695 556.01 205.728 555.875 205.815L553.522 207.4C553.39 207.493 553.298 207.634 553.267 207.792C553.235 207.951 553.265 208.116 553.351 208.253L554.802 210.494C554.893 210.63 555.032 210.725 555.19 210.76C555.349 210.795 555.515 210.768 555.654 210.684L558.14 209.124C558.21 209.078 558.271 209.019 558.318 208.949C558.365 208.88 558.397 208.801 558.414 208.719C558.43 208.637 558.43 208.552 558.413 208.47C558.397 208.388 558.364 208.309 558.317 208.24Z" fill="black"/>
<path opacity="0.1" d="M553.875 211.315L552.285 209.048C552.19 208.916 552.048 208.826 551.888 208.797C551.728 208.768 551.563 208.801 551.427 208.89L549.08 210.456C548.945 210.549 548.852 210.69 548.819 210.85C548.786 211.01 548.816 211.177 548.903 211.315L550.361 213.557C550.452 213.691 550.591 213.785 550.75 213.819C550.909 213.853 551.074 213.825 551.213 213.74L553.698 212.18C553.835 212.088 553.93 211.946 553.963 211.784C553.996 211.622 553.964 211.454 553.875 211.315Z" fill="black"/>
<path opacity="0.1" d="M549.377 214.435L547.793 212.161C547.698 212.029 547.556 211.939 547.396 211.91C547.236 211.881 547.071 211.914 546.935 212.003L544.582 213.614C544.45 213.707 544.358 213.847 544.327 214.006C544.295 214.165 544.325 214.329 544.411 214.466L545.869 216.708C545.96 216.842 546.099 216.936 546.258 216.97C546.417 217.004 546.582 216.976 546.72 216.891L549.2 215.331C549.272 215.285 549.334 215.225 549.382 215.155C549.43 215.084 549.464 215.005 549.48 214.921C549.497 214.837 549.496 214.751 549.478 214.667C549.46 214.583 549.426 214.504 549.377 214.435Z" fill="black"/>
<path opacity="0.1" d="M552.203 199.4L550.613 197.133C550.518 197.003 550.377 196.914 550.219 196.884C550.06 196.855 549.897 196.887 549.762 196.975L547.408 198.56C547.275 198.652 547.183 198.792 547.15 198.951C547.117 199.109 547.146 199.275 547.232 199.412L548.689 201.654C548.779 201.789 548.918 201.885 549.077 201.92C549.236 201.955 549.402 201.928 549.541 201.843L552.026 200.284C552.097 200.238 552.157 200.178 552.204 200.109C552.251 200.039 552.284 199.961 552.3 199.879C552.317 199.797 552.317 199.712 552.3 199.629C552.283 199.547 552.25 199.469 552.203 199.4Z" fill="black"/>
<path opacity="0.1" d="M547.762 202.481L546.172 200.208C546.076 200.076 545.934 199.986 545.774 199.957C545.614 199.927 545.449 199.961 545.314 200.05L542.967 201.616C542.834 201.708 542.741 201.848 542.708 202.007C542.675 202.166 542.704 202.331 542.79 202.469L544.247 204.71C544.339 204.844 544.478 204.938 544.637 204.973C544.795 205.007 544.961 204.978 545.099 204.893L547.585 203.334C547.718 203.241 547.811 203.101 547.843 202.943C547.876 202.784 547.847 202.619 547.762 202.481Z" fill="black"/>
<path opacity="0.1" d="M543.263 205.594L541.673 203.327C541.579 203.196 541.438 203.106 541.28 203.076C541.122 203.045 540.958 203.076 540.822 203.163L538.468 204.773C538.336 204.867 538.245 205.007 538.213 205.166C538.181 205.324 538.212 205.489 538.298 205.626L539.755 207.868C539.846 208.003 539.985 208.098 540.143 208.133C540.302 208.169 540.468 208.141 540.607 208.057L543.087 206.491C543.159 206.445 543.221 206.385 543.269 206.314C543.317 206.244 543.35 206.164 543.367 206.081C543.383 205.997 543.383 205.91 543.365 205.827C543.347 205.743 543.312 205.664 543.263 205.594Z" fill="black"/>
<path opacity="0.1" d="M544.885 217.548L543.295 215.281C543.201 215.15 543.06 215.059 542.901 215.029C542.743 214.998 542.579 215.03 542.443 215.116L540.109 216.708C539.977 216.801 539.885 216.941 539.854 217.1C539.822 217.259 539.852 217.423 539.938 217.56L541.37 219.802C541.461 219.935 541.598 220.03 541.756 220.065C541.913 220.1 542.077 220.074 542.216 219.991L544.702 218.425C544.771 218.38 544.832 218.321 544.879 218.252C544.926 218.184 544.959 218.106 544.976 218.025C544.993 217.943 544.993 217.859 544.978 217.777C544.962 217.695 544.93 217.617 544.885 217.548Z" fill="black"/>
<path opacity="0.1" d="M540.393 220.661L538.803 218.394C538.707 218.262 538.565 218.172 538.405 218.142C538.245 218.113 538.08 218.147 537.945 218.236L535.598 219.821C535.464 219.913 535.372 220.053 535.339 220.212C535.306 220.37 535.335 220.536 535.421 220.673L536.878 222.915C536.969 223.05 537.108 223.145 537.266 223.181C537.425 223.216 537.591 223.189 537.73 223.104L540.216 221.545C540.286 221.499 540.346 221.439 540.393 221.37C540.44 221.3 540.473 221.222 540.49 221.14C540.506 221.058 540.506 220.973 540.489 220.89C540.473 220.808 540.44 220.73 540.393 220.661Z" fill="black"/>
<path opacity="0.1" d="M536.096 224.058L534.121 221.242C534.1 221.21 534.073 221.184 534.042 221.163C534.011 221.142 533.975 221.128 533.938 221.121C533.901 221.113 533.863 221.114 533.827 221.122C533.79 221.129 533.755 221.144 533.724 221.166L530.834 223.117C530.802 223.138 530.775 223.164 530.754 223.195C530.732 223.227 530.717 223.262 530.71 223.299C530.702 223.336 530.702 223.374 530.709 223.411C530.716 223.448 530.731 223.484 530.752 223.515L532.563 226.3C532.583 226.332 532.609 226.36 532.64 226.382C532.671 226.404 532.706 226.42 532.743 226.428C532.78 226.436 532.818 226.437 532.856 226.43C532.893 226.423 532.929 226.409 532.96 226.388L536.014 224.494C536.051 224.473 536.082 224.444 536.107 224.41C536.131 224.376 536.148 224.336 536.156 224.295C536.164 224.253 536.162 224.211 536.152 224.17C536.142 224.129 536.123 224.091 536.096 224.058Z" fill="black"/>
<path opacity="0.1" d="M532.115 226.817L530.14 223.995C530.096 223.934 530.03 223.893 529.955 223.88C529.881 223.867 529.805 223.883 529.743 223.925L526.859 225.87C526.796 225.914 526.752 225.98 526.737 226.056C526.722 226.131 526.736 226.209 526.777 226.274L528.588 229.059C528.631 229.122 528.695 229.166 528.769 229.182C528.843 229.199 528.921 229.186 528.986 229.147L532.039 227.253C532.077 227.233 532.11 227.205 532.135 227.171C532.161 227.136 532.178 227.096 532.185 227.054C532.192 227.012 532.19 226.968 532.178 226.927C532.165 226.886 532.144 226.849 532.115 226.817Z" fill="black"/>
<path opacity="0.1" d="M527.661 229.899L525.686 227.083C525.642 227.022 525.575 226.98 525.501 226.967C525.427 226.954 525.351 226.971 525.289 227.013L522.399 228.958C522.367 228.978 522.34 229.005 522.318 229.036C522.297 229.067 522.282 229.102 522.274 229.14C522.267 229.177 522.267 229.215 522.274 229.252C522.281 229.289 522.296 229.324 522.317 229.356L524.128 232.147C524.17 232.209 524.235 232.254 524.309 232.27C524.383 232.286 524.46 232.274 524.525 232.235L527.579 230.341C527.616 230.319 527.647 230.29 527.672 230.255C527.696 230.22 527.713 230.181 527.721 230.139C527.729 230.097 527.727 230.053 527.717 230.012C527.707 229.971 527.687 229.932 527.661 229.899Z" fill="black"/>
<path opacity="0.1" d="M523.345 232.892L521.371 230.076C521.35 230.044 521.323 230.017 521.291 229.997C521.26 229.976 521.225 229.961 521.188 229.954C521.151 229.947 521.113 229.948 521.076 229.955C521.039 229.963 521.004 229.978 520.973 230L518.084 231.926C518.052 231.946 518.024 231.973 518.003 232.004C517.982 232.035 517.967 232.07 517.959 232.107C517.951 232.144 517.951 232.183 517.958 232.22C517.966 232.257 517.98 232.292 518.002 232.324L519.812 235.108C519.854 235.172 519.919 235.217 519.993 235.234C520.067 235.25 520.145 235.237 520.21 235.197L523.263 233.302C523.296 233.281 523.324 233.254 523.347 233.221C523.369 233.189 523.384 233.153 523.392 233.114C523.399 233.076 523.399 233.037 523.391 232.998C523.383 232.96 523.368 232.924 523.345 232.892Z" fill="black"/>
<path opacity="0.1" d="M550.916 207.04L549.326 204.773C549.231 204.643 549.09 204.554 548.932 204.525C548.773 204.496 548.61 204.528 548.474 204.615L546.121 206.207C545.989 206.3 545.898 206.44 545.866 206.599C545.834 206.758 545.865 206.922 545.951 207.059L547.408 209.301C547.499 209.433 547.638 209.526 547.795 209.56C547.952 209.594 548.116 209.567 548.254 209.484L550.739 207.924C550.81 207.878 550.87 207.819 550.917 207.749C550.964 207.68 550.997 207.602 551.013 207.519C551.03 207.437 551.029 207.352 551.013 207.27C550.996 207.188 550.963 207.11 550.916 207.04Z" fill="black"/>
<path opacity="0.1" d="M546.418 210.16L544.828 207.886C544.733 207.755 544.59 207.665 544.43 207.635C544.271 207.606 544.106 207.639 543.97 207.729L541.623 209.32C541.49 209.412 541.397 209.552 541.364 209.711C541.331 209.869 541.361 210.035 541.446 210.172L542.903 212.414C542.994 212.549 543.133 212.644 543.291 212.68C543.45 212.715 543.616 212.688 543.755 212.603L546.241 211.037C546.31 210.992 546.37 210.932 546.416 210.863C546.463 210.794 546.495 210.717 546.512 210.635C546.528 210.554 546.528 210.47 546.512 210.388C546.496 210.306 546.464 210.229 546.418 210.16Z" fill="black"/>
<path opacity="0.1" d="M541.932 213.273L540.342 211.006C540.247 210.874 540.104 210.784 539.945 210.755C539.785 210.725 539.62 210.759 539.484 210.848L537.131 212.433C536.999 212.526 536.907 212.667 536.876 212.825C536.844 212.984 536.874 213.148 536.96 213.285L538.418 215.527C538.508 215.662 538.647 215.758 538.806 215.793C538.964 215.828 539.13 215.801 539.269 215.716L541.749 214.15C541.819 214.105 541.879 214.046 541.926 213.978C541.973 213.909 542.006 213.831 542.023 213.75C542.04 213.668 542.041 213.584 542.025 213.502C542.009 213.42 541.978 213.342 541.932 213.273Z" fill="black"/>
<path opacity="0.1" d="M537.434 216.386L535.844 214.119C535.749 213.989 535.608 213.9 535.449 213.87C535.291 213.841 535.127 213.873 534.992 213.961L532.639 215.546C532.507 215.639 532.415 215.779 532.384 215.938C532.352 216.097 532.382 216.261 532.468 216.398L533.926 218.665C534.016 218.799 534.154 218.893 534.311 218.928C534.468 218.963 534.633 218.937 534.771 218.855L537.257 217.295C537.331 217.249 537.394 217.188 537.444 217.117C537.493 217.045 537.527 216.964 537.544 216.879C537.56 216.794 537.559 216.706 537.54 216.621C537.521 216.536 537.485 216.456 537.434 216.386Z" fill="black"/>
<path opacity="0.1" d="M533.169 219.783L531.194 216.967C531.173 216.935 531.146 216.909 531.115 216.888C531.083 216.867 531.048 216.853 531.011 216.846C530.974 216.839 530.936 216.839 530.899 216.847C530.862 216.855 530.827 216.87 530.796 216.891L527.907 218.842C527.844 218.885 527.8 218.95 527.785 219.024C527.769 219.099 527.784 219.176 527.825 219.24L529.635 222.031C529.656 222.063 529.682 222.09 529.714 222.112C529.745 222.133 529.78 222.148 529.817 222.156C529.854 222.163 529.892 222.164 529.929 222.156C529.966 222.149 530.002 222.134 530.033 222.113L533.087 220.219C533.123 220.198 533.155 220.169 533.179 220.135C533.204 220.101 533.221 220.061 533.229 220.02C533.236 219.978 533.235 219.936 533.225 219.895C533.214 219.854 533.195 219.816 533.169 219.783Z" fill="black"/>
<path opacity="0.1" d="M529.162 222.542L527.188 219.72C527.142 219.658 527.075 219.617 527 219.604C526.924 219.591 526.847 219.608 526.784 219.65L523.901 221.595C523.837 221.639 523.793 221.705 523.778 221.781C523.763 221.856 523.777 221.934 523.818 221.999L525.629 224.784C525.671 224.848 525.735 224.893 525.81 224.91C525.884 224.926 525.962 224.913 526.027 224.872L529.08 222.978C529.117 222.957 529.149 222.929 529.173 222.894C529.198 222.86 529.214 222.821 529.222 222.779C529.23 222.738 529.229 222.695 529.218 222.654C529.208 222.613 529.189 222.575 529.162 222.542Z" fill="black"/>
<path opacity="0.1" d="M524.708 225.611L522.733 222.789C522.688 222.727 522.621 222.686 522.545 222.673C522.47 222.66 522.393 222.677 522.33 222.719L519.44 224.664C519.378 224.709 519.335 224.775 519.32 224.85C519.305 224.925 519.318 225.003 519.358 225.068L521.175 227.853C521.216 227.917 521.281 227.962 521.356 227.978C521.43 227.995 521.508 227.982 521.572 227.941L524.62 226.047C524.658 226.027 524.691 226 524.717 225.966C524.743 225.932 524.76 225.892 524.769 225.85C524.777 225.808 524.776 225.765 524.766 225.724C524.755 225.682 524.736 225.644 524.708 225.611Z" fill="black"/>
<path opacity="0.1" d="M520.393 228.617L518.418 225.801C518.396 225.769 518.369 225.742 518.337 225.721C518.305 225.7 518.269 225.686 518.232 225.679C518.194 225.672 518.156 225.672 518.118 225.68C518.081 225.688 518.046 225.703 518.014 225.725L515.125 227.676C515.063 227.72 515.02 227.785 515.006 227.86C514.992 227.934 515.007 228.011 515.049 228.074L516.86 230.859C516.879 230.892 516.905 230.92 516.936 230.943C516.967 230.965 517.002 230.981 517.039 230.99C517.076 230.998 517.115 230.998 517.153 230.991C517.19 230.984 517.226 230.969 517.257 230.947L520.304 229.053C520.342 229.033 520.376 229.006 520.401 228.971C520.427 228.937 520.445 228.898 520.453 228.856C520.462 228.814 520.461 228.771 520.45 228.73C520.44 228.688 520.42 228.65 520.393 228.617Z" fill="black"/>
<path opacity="0.1" d="M519.03 235.879L517.055 233.062C517.011 233.001 516.945 232.96 516.87 232.947C516.796 232.934 516.72 232.951 516.658 232.993L513.768 234.938C513.736 234.958 513.709 234.985 513.688 235.016C513.666 235.047 513.651 235.082 513.643 235.119C513.636 235.156 513.636 235.195 513.643 235.232C513.65 235.269 513.665 235.304 513.686 235.336L515.497 238.127C515.539 238.189 515.604 238.233 515.678 238.25C515.752 238.266 515.829 238.254 515.894 238.215L518.948 236.321C518.985 236.299 519.017 236.27 519.041 236.235C519.066 236.2 519.082 236.16 519.09 236.118C519.098 236.076 519.097 236.033 519.086 235.992C519.076 235.951 519.057 235.912 519.03 235.879Z" fill="black"/>
<path opacity="0.1" d="M514.715 238.872L512.74 236.055C512.719 236.024 512.692 235.997 512.66 235.976C512.629 235.956 512.594 235.941 512.557 235.934C512.52 235.927 512.482 235.928 512.445 235.935C512.408 235.943 512.373 235.958 512.342 235.98L509.453 237.931C509.421 237.951 509.393 237.978 509.372 238.009C509.351 238.04 509.336 238.075 509.328 238.112C509.32 238.15 509.32 238.188 509.328 238.225C509.335 238.262 509.35 238.297 509.371 238.329L511.181 241.113C511.223 241.177 511.288 241.222 511.362 241.239C511.436 241.256 511.514 241.242 511.579 241.202L514.633 239.307C514.669 239.287 514.701 239.258 514.725 239.224C514.75 239.189 514.767 239.15 514.774 239.109C514.782 239.067 514.781 239.024 514.771 238.983C514.76 238.943 514.741 238.904 514.715 238.872Z" fill="black"/>
<path opacity="0.1" d="M521.49 220.977L519.598 218.324C519.538 218.242 519.449 218.186 519.349 218.168C519.249 218.151 519.146 218.173 519.061 218.23L516.336 220.067C516.293 220.095 516.257 220.131 516.229 220.174C516.2 220.216 516.18 220.263 516.17 220.313C516.16 220.363 516.16 220.414 516.17 220.464C516.18 220.514 516.2 220.562 516.229 220.604L517.932 223.224C517.958 223.268 517.993 223.305 518.034 223.335C518.076 223.364 518.122 223.385 518.172 223.397C518.221 223.408 518.272 223.409 518.322 223.4C518.372 223.391 518.42 223.372 518.462 223.344L521.345 221.532C521.393 221.507 521.435 221.472 521.468 221.429C521.501 221.387 521.525 221.338 521.539 221.286C521.553 221.234 521.555 221.179 521.547 221.126C521.539 221.073 521.519 221.022 521.49 220.977Z" fill="black"/>
<path opacity="0.1" d="M517.175 223.97L515.314 221.317C515.285 221.275 515.249 221.24 515.206 221.212C515.164 221.184 515.117 221.165 515.067 221.155C515.017 221.146 514.966 221.147 514.916 221.157C514.866 221.167 514.819 221.188 514.778 221.216L512.052 223.085C512.01 223.113 511.973 223.149 511.945 223.19C511.917 223.232 511.897 223.279 511.887 223.328C511.877 223.378 511.877 223.428 511.887 223.478C511.897 223.527 511.917 223.574 511.945 223.616L513.648 226.243C513.704 226.328 513.79 226.387 513.889 226.41C513.988 226.432 514.092 226.415 514.178 226.363L517.061 224.55C517.11 224.523 517.152 224.484 517.185 224.439C517.218 224.393 517.24 224.341 517.251 224.286C517.262 224.231 517.26 224.174 517.247 224.119C517.234 224.065 517.21 224.014 517.175 223.97Z" fill="black"/>
<path opacity="0.1" d="M512.86 226.963L510.998 224.304C510.939 224.222 510.85 224.166 510.749 224.148C510.649 224.13 510.546 224.152 510.462 224.209L507.737 226.047C507.694 226.075 507.658 226.111 507.629 226.153C507.601 226.196 507.581 226.243 507.571 226.293C507.561 226.343 507.561 226.394 507.571 226.444C507.581 226.494 507.601 226.541 507.629 226.584L509.333 229.204C509.359 229.247 509.394 229.285 509.435 229.315C509.476 229.344 509.523 229.365 509.572 229.376C509.622 229.388 509.673 229.389 509.723 229.38C509.773 229.371 509.82 229.352 509.863 229.324L512.746 227.512C512.791 227.484 512.829 227.448 512.86 227.405C512.89 227.362 512.911 227.313 512.921 227.262C512.932 227.21 512.932 227.157 512.921 227.106C512.911 227.054 512.89 227.006 512.86 226.963Z" fill="black"/>
<path opacity="0.1" d="M508.601 230.031L506.626 227.209C506.582 227.148 506.516 227.107 506.442 227.094C506.367 227.081 506.291 227.097 506.229 227.139L503.339 229.084C503.276 229.128 503.232 229.194 503.217 229.27C503.201 229.345 503.216 229.424 503.257 229.488L505.068 232.273C505.11 232.336 505.175 232.38 505.249 232.396C505.323 232.413 505.4 232.4 505.465 232.361L508.519 230.467C508.557 230.448 508.591 230.42 508.617 230.386C508.643 230.352 508.66 230.312 508.668 230.27C508.676 230.227 508.674 230.184 508.663 230.143C508.651 230.101 508.63 230.063 508.601 230.031Z" fill="black"/>
<path opacity="0.1" d="M559.667 200.89L557.957 198.459C557.861 198.328 557.718 198.239 557.558 198.211C557.398 198.183 557.234 198.217 557.099 198.307L550.424 202.986C550.295 203.08 550.206 203.22 550.175 203.377C550.145 203.534 550.175 203.697 550.26 203.833L551.869 206.32C551.915 206.389 551.974 206.448 552.044 206.494C552.113 206.54 552.19 206.572 552.272 206.588C552.353 206.604 552.437 206.603 552.518 206.587C552.6 206.57 552.677 206.537 552.746 206.491L559.522 201.749C559.651 201.652 559.739 201.508 559.766 201.348C559.793 201.188 559.757 201.024 559.667 200.89Z" fill="black"/>
<path opacity="0.1" d="M516.065 231.515L513.97 228.554C513.949 228.522 513.921 228.495 513.889 228.474C513.857 228.453 513.821 228.439 513.783 228.433C513.745 228.426 513.707 228.428 513.669 228.437C513.632 228.445 513.597 228.462 513.566 228.484L506.361 233.536C506.3 233.578 506.257 233.643 506.243 233.716C506.229 233.789 506.244 233.865 506.286 233.927L508.254 236.977C508.275 237.01 508.302 237.039 508.335 237.061C508.367 237.083 508.403 237.098 508.442 237.106C508.48 237.113 508.519 237.113 508.558 237.105C508.596 237.097 508.632 237.082 508.664 237.059L515.989 231.926C516.053 231.881 516.097 231.813 516.111 231.736C516.125 231.659 516.109 231.58 516.065 231.515Z" fill="black"/>
<path opacity="0.1" d="M538.986 208.865L537.055 206.036C537.012 205.974 536.946 205.932 536.872 205.918C536.797 205.904 536.721 205.919 536.658 205.961L520.658 216.771C520.595 216.813 520.551 216.879 520.536 216.953C520.52 217.028 520.535 217.105 520.576 217.169L522.55 220.2C522.571 220.233 522.599 220.261 522.631 220.283C522.663 220.305 522.7 220.321 522.738 220.328C522.776 220.336 522.816 220.336 522.854 220.328C522.892 220.32 522.928 220.304 522.96 220.282L538.91 209.269C538.941 209.248 538.968 209.22 538.989 209.188C539.01 209.156 539.024 209.121 539.031 209.083C539.038 209.046 539.038 209.007 539.03 208.97C539.022 208.932 539.007 208.897 538.986 208.865Z" fill="black"/>
</g>
<path d="M565.812 209.497L564.222 207.223C564.127 207.092 563.984 207.001 563.825 206.972C563.665 206.943 563.5 206.976 563.364 207.066L561.017 208.657C560.884 208.749 560.791 208.889 560.758 209.048C560.725 209.206 560.755 209.372 560.84 209.509L562.298 211.751C562.388 211.886 562.527 211.981 562.686 212.017C562.844 212.052 563.01 212.025 563.149 211.94L565.635 210.374C565.705 210.328 565.764 210.269 565.811 210.2C565.857 210.131 565.889 210.054 565.906 209.972C565.922 209.891 565.922 209.807 565.906 209.725C565.89 209.643 565.858 209.566 565.812 209.497Z" fill="#464A5F"/>
<path d="M561.559 212.427L559.97 210.16C559.875 210.03 559.733 209.941 559.575 209.911C559.417 209.882 559.253 209.914 559.118 210.002L556.765 211.587C556.631 211.679 556.539 211.819 556.506 211.978C556.473 212.136 556.502 212.302 556.588 212.439L558.045 214.681C558.136 214.816 558.275 214.911 558.433 214.947C558.592 214.982 558.758 214.955 558.897 214.87L561.383 213.311C561.453 213.265 561.513 213.205 561.56 213.136C561.607 213.066 561.64 212.988 561.657 212.906C561.673 212.823 561.673 212.739 561.656 212.656C561.64 212.574 561.607 212.496 561.559 212.427Z" fill="#464A5F"/>
<path d="M557.143 215.508L555.553 213.241C555.458 213.109 555.316 213.019 555.156 212.99C554.996 212.96 554.831 212.994 554.695 213.083L552.348 214.674C552.215 214.767 552.123 214.907 552.09 215.065C552.057 215.224 552.086 215.389 552.172 215.527L553.629 217.769C553.72 217.903 553.86 217.997 554.018 218.031C554.177 218.065 554.342 218.037 554.481 217.952L556.966 216.392C557.037 216.346 557.097 216.287 557.144 216.217C557.191 216.148 557.224 216.069 557.24 215.987C557.257 215.905 557.257 215.82 557.24 215.738C557.223 215.655 557.19 215.577 557.143 215.508Z" fill="#464A5F"/>
<path d="M552.638 218.621L551.049 216.348C550.954 216.218 550.812 216.129 550.654 216.1C550.496 216.07 550.332 216.103 550.197 216.19L547.844 217.781C547.774 217.828 547.715 217.888 547.669 217.958C547.623 218.028 547.592 218.107 547.577 218.189C547.562 218.271 547.563 218.356 547.58 218.437C547.598 218.519 547.632 218.597 547.679 218.665L549.137 220.907C549.227 221.042 549.366 221.138 549.525 221.173C549.683 221.208 549.85 221.181 549.989 221.096L552.468 219.53C552.541 219.484 552.604 219.423 552.653 219.351C552.702 219.279 552.735 219.198 552.751 219.113C552.767 219.028 552.765 218.94 552.746 218.855C552.727 218.771 552.69 218.691 552.638 218.621Z" fill="#464A5F"/>
<path d="M548.146 221.734L546.556 219.467C546.461 219.337 546.32 219.248 546.162 219.219C546.004 219.19 545.84 219.222 545.705 219.309L543.351 220.894C543.219 220.988 543.128 221.128 543.096 221.287C543.065 221.445 543.095 221.61 543.181 221.747L544.632 223.988C544.722 224.124 544.861 224.219 545.02 224.254C545.179 224.29 545.345 224.262 545.484 224.178L547.97 222.612C548.039 222.566 548.099 222.507 548.145 222.438C548.192 222.369 548.224 222.291 548.24 222.21C548.257 222.128 548.257 222.044 548.241 221.963C548.225 221.881 548.193 221.803 548.146 221.734Z" fill="#464A5F"/>
<path d="M543.85 225.131L541.875 222.315C541.854 222.284 541.827 222.257 541.796 222.236C541.764 222.215 541.729 222.201 541.692 222.194C541.655 222.187 541.617 222.187 541.58 222.195C541.544 222.203 541.509 222.218 541.478 222.239L538.588 224.19C538.556 224.211 538.529 224.238 538.507 224.269C538.486 224.3 538.471 224.335 538.464 224.372C538.456 224.409 538.456 224.447 538.463 224.484C538.47 224.522 538.485 224.557 538.506 224.588L540.317 227.373C540.358 227.437 540.423 227.482 540.497 227.499C540.572 227.515 540.65 227.502 540.714 227.461L543.768 225.567C543.805 225.546 543.836 225.518 543.861 225.483C543.885 225.449 543.902 225.41 543.91 225.368C543.918 225.327 543.916 225.284 543.906 225.243C543.896 225.202 543.876 225.164 543.85 225.131Z" fill="#464A5F"/>
<path d="M539.358 228.244L537.383 225.428C537.362 225.397 537.334 225.37 537.302 225.349C537.27 225.328 537.234 225.314 537.197 225.306C537.159 225.299 537.121 225.3 537.083 225.308C537.046 225.316 537.011 225.331 536.979 225.352L534.096 227.304C534.064 227.324 534.037 227.351 534.015 227.382C533.994 227.413 533.979 227.448 533.971 227.485C533.964 227.522 533.964 227.56 533.971 227.598C533.978 227.635 533.993 227.67 534.014 227.701L535.825 230.492C535.845 230.524 535.872 230.552 535.903 230.573C535.934 230.594 535.969 230.609 536.006 230.617C536.043 230.625 536.081 230.625 536.118 230.618C536.156 230.61 536.191 230.596 536.222 230.574L539.276 228.68C539.312 228.659 539.343 228.63 539.366 228.595C539.39 228.561 539.407 228.522 539.414 228.481C539.422 228.44 539.421 228.397 539.411 228.357C539.402 228.316 539.383 228.278 539.358 228.244Z" fill="#464A5F"/>
<path d="M535.377 231.004L533.402 228.181C533.358 228.12 533.292 228.079 533.217 228.066C533.143 228.053 533.067 228.07 533.005 228.112L530.115 230.031C530.052 230.075 530.008 230.142 529.992 230.217C529.977 230.292 529.992 230.371 530.033 230.436L531.844 233.22C531.886 233.283 531.951 233.327 532.025 233.344C532.099 233.36 532.176 233.347 532.241 233.309L535.295 231.414C535.328 231.393 535.356 231.366 535.378 231.333C535.4 231.301 535.415 231.265 535.423 231.227C535.431 231.188 535.431 231.149 535.423 231.11C535.415 231.072 535.399 231.036 535.377 231.004Z" fill="#464A5F"/>
<path d="M530.923 234.092L528.948 231.294C528.904 231.233 528.837 231.192 528.763 231.179C528.689 231.166 528.613 231.183 528.55 231.225L525.661 233.17C525.629 233.191 525.601 233.218 525.58 233.25C525.558 233.281 525.543 233.317 525.536 233.355C525.528 233.392 525.528 233.431 525.535 233.469C525.543 233.506 525.557 233.542 525.579 233.574L527.389 236.359C527.432 236.421 527.497 236.465 527.571 236.482C527.645 236.498 527.722 236.486 527.787 236.447L530.841 234.553C530.881 234.532 530.917 234.503 530.944 234.467C530.972 234.43 530.99 234.388 530.998 234.343C531.006 234.298 531.003 234.252 530.99 234.208C530.977 234.165 530.954 234.125 530.923 234.092Z" fill="#464A5F"/>
<path d="M526.607 237.078L524.632 234.262C524.611 234.231 524.585 234.204 524.553 234.183C524.522 234.162 524.486 234.148 524.45 234.141C524.413 234.134 524.375 234.134 524.338 234.142C524.301 234.15 524.266 234.165 524.235 234.186L521.345 236.138C521.314 236.158 521.286 236.185 521.265 236.216C521.243 236.247 521.228 236.282 521.221 236.319C521.213 236.356 521.213 236.395 521.22 236.432C521.228 236.469 521.242 236.504 521.263 236.535L523.074 239.32C523.094 239.352 523.12 239.38 523.151 239.403C523.182 239.425 523.217 239.44 523.254 239.448C523.291 239.457 523.33 239.457 523.367 239.451C523.404 239.444 523.44 239.429 523.472 239.409L526.525 237.514C526.562 237.493 526.593 237.465 526.618 237.43C526.642 237.396 526.659 237.357 526.667 237.315C526.675 237.274 526.674 237.231 526.663 237.19C526.653 237.149 526.634 237.111 526.607 237.078Z" fill="#464A5F"/>
<path d="M522.292 240.071L520.317 237.249C520.273 237.188 520.206 237.147 520.132 237.134C520.058 237.121 519.982 237.137 519.919 237.179L517.03 239.124C516.967 239.168 516.923 239.234 516.907 239.31C516.892 239.385 516.907 239.464 516.948 239.528L518.759 242.313C518.801 242.376 518.866 242.42 518.94 242.436C519.014 242.453 519.091 242.44 519.156 242.402L522.21 240.507C522.246 240.486 522.278 240.458 522.303 240.423C522.327 240.389 522.344 240.35 522.352 240.308C522.359 240.267 522.358 240.224 522.348 240.183C522.337 240.142 522.318 240.104 522.292 240.071Z" fill="#464A5F"/>
<path d="M517.976 243.058L516.002 240.242C515.981 240.211 515.954 240.184 515.922 240.163C515.891 240.142 515.856 240.128 515.819 240.121C515.782 240.114 515.744 240.114 515.707 240.122C515.67 240.13 515.635 240.145 515.604 240.166L512.715 242.117C512.683 242.138 512.655 242.164 512.634 242.196C512.613 242.227 512.598 242.262 512.59 242.299C512.582 242.336 512.582 242.374 512.589 242.411C512.597 242.449 512.611 242.484 512.632 242.515L514.443 245.3C514.463 245.332 514.489 245.36 514.52 245.382C514.551 245.404 514.586 245.42 514.623 245.428C514.66 245.436 514.699 245.437 514.736 245.43C514.773 245.423 514.809 245.409 514.841 245.388L517.894 243.494C517.931 243.473 517.963 243.445 517.987 243.41C518.012 243.376 518.028 243.337 518.036 243.295C518.044 243.254 518.043 243.211 518.032 243.17C518.022 243.129 518.003 243.091 517.976 243.058Z" fill="#464A5F"/>
<path d="M562.966 205.405L561.377 203.132C561.282 203.001 561.14 202.913 560.982 202.883C560.824 202.854 560.66 202.886 560.525 202.974L558.172 204.565C558.039 204.658 557.948 204.799 557.916 204.957C557.885 205.116 557.915 205.281 558.001 205.417L559.452 207.659C559.542 207.794 559.681 207.89 559.84 207.925C559.999 207.96 560.165 207.933 560.304 207.848L562.79 206.283C562.859 206.237 562.919 206.177 562.965 206.108C563.012 206.039 563.044 205.962 563.06 205.88C563.077 205.799 563.077 205.715 563.061 205.633C563.045 205.552 563.013 205.474 562.966 205.405Z" fill="#464A5F"/>
<path d="M556.752 196.4L555.162 194.133C555.067 194.003 554.926 193.914 554.768 193.885C554.609 193.856 554.446 193.888 554.31 193.976L551.957 195.56C551.825 195.654 551.734 195.794 551.702 195.953C551.67 196.111 551.701 196.276 551.787 196.413L553.244 198.655C553.334 198.788 553.472 198.882 553.629 198.918C553.786 198.953 553.951 198.926 554.09 198.844L556.575 197.284C556.646 197.238 556.706 197.179 556.753 197.109C556.8 197.04 556.833 196.962 556.849 196.879C556.866 196.797 556.865 196.712 556.849 196.63C556.832 196.548 556.799 196.47 556.752 196.4Z" fill="#464A5F"/>
<path d="M558.733 208.316L557.143 206.036C557.048 205.906 556.907 205.817 556.749 205.788C556.59 205.759 556.427 205.791 556.291 205.878L553.938 207.463C553.806 207.557 553.715 207.697 553.683 207.856C553.651 208.014 553.682 208.179 553.768 208.316L555.225 210.557C555.315 210.691 555.453 210.785 555.61 210.82C555.767 210.856 555.932 210.829 556.071 210.747L558.556 209.187C558.695 209.095 558.791 208.951 558.824 208.788C558.857 208.625 558.824 208.455 558.733 208.316Z" fill="#464A5F"/>
<path d="M554.291 211.391L552.727 209.124C552.632 208.994 552.491 208.905 552.332 208.876C552.174 208.846 552.01 208.879 551.875 208.966L549.522 210.551C549.388 210.644 549.295 210.786 549.264 210.946C549.232 211.106 549.263 211.272 549.351 211.41L550.802 213.652C550.894 213.786 551.033 213.88 551.192 213.914C551.35 213.948 551.516 213.92 551.654 213.835L554.14 212.275C554.208 212.227 554.266 212.166 554.311 212.096C554.355 212.025 554.386 211.947 554.4 211.865C554.414 211.782 554.412 211.698 554.393 211.617C554.374 211.536 554.34 211.459 554.291 211.391Z" fill="#464A5F"/>
<path d="M549.799 214.51L548.209 212.237C548.114 212.105 547.972 212.015 547.812 211.986C547.652 211.956 547.487 211.99 547.351 212.079L545.004 213.671C544.871 213.763 544.779 213.903 544.746 214.061C544.713 214.22 544.742 214.385 544.828 214.523L546.285 216.765C546.375 216.9 546.514 216.995 546.673 217.03C546.832 217.066 546.998 217.038 547.137 216.954L549.623 215.388C549.692 215.342 549.752 215.283 549.798 215.214C549.844 215.145 549.877 215.068 549.893 214.986C549.91 214.904 549.91 214.82 549.894 214.739C549.878 214.657 549.845 214.58 549.799 214.51Z" fill="#464A5F"/>
<path d="M552.619 199.475L551.03 197.196C550.935 197.066 550.793 196.977 550.635 196.948C550.477 196.918 550.313 196.951 550.178 197.038L547.825 198.623C547.693 198.716 547.601 198.857 547.57 199.015C547.538 199.174 547.568 199.339 547.654 199.475L549.112 201.717C549.202 201.851 549.34 201.945 549.497 201.98C549.654 202.015 549.819 201.989 549.957 201.907L552.443 200.347C552.581 200.254 552.677 200.111 552.71 199.948C552.743 199.784 552.711 199.615 552.619 199.475Z" fill="#464A5F"/>
<path d="M548.178 202.557L546.588 200.284C546.493 200.154 546.352 200.065 546.193 200.035C546.035 200.006 545.872 200.038 545.736 200.126L543.383 201.717C543.25 201.809 543.157 201.949 543.124 202.108C543.092 202.267 543.121 202.432 543.206 202.57L544.664 204.811C544.754 204.946 544.893 205.042 545.052 205.077C545.21 205.112 545.376 205.085 545.515 205.001L548.001 203.435C548.071 203.389 548.13 203.33 548.177 203.261C548.223 203.192 548.255 203.114 548.272 203.033C548.288 202.951 548.288 202.867 548.272 202.785C548.256 202.704 548.224 202.626 548.178 202.557Z" fill="#464A5F"/>
<path d="M543.686 205.67L542.096 203.403C542.001 203.271 541.858 203.181 541.699 203.152C541.539 203.122 541.374 203.156 541.238 203.245L538.891 204.83C538.758 204.922 538.665 205.062 538.632 205.221C538.599 205.38 538.629 205.545 538.714 205.683L540.172 207.931C540.262 208.066 540.401 208.161 540.56 208.196C540.718 208.232 540.884 208.204 541.023 208.12L543.503 206.554C543.574 206.509 543.635 206.45 543.682 206.38C543.73 206.311 543.763 206.233 543.78 206.151C543.797 206.068 543.798 205.983 543.781 205.901C543.765 205.818 543.733 205.74 543.686 205.67Z" fill="#464A5F"/>
<path d="M545.301 217.623L543.711 215.356C543.616 215.226 543.475 215.137 543.317 215.108C543.158 215.079 542.995 215.111 542.859 215.199L540.506 216.771C540.374 216.864 540.283 217.004 540.251 217.163C540.219 217.322 540.25 217.486 540.336 217.623L541.793 219.865C541.883 219.999 542.021 220.093 542.178 220.128C542.335 220.163 542.5 220.137 542.639 220.054L545.124 218.488C545.261 218.396 545.356 218.254 545.389 218.092C545.422 217.93 545.39 217.762 545.301 217.623Z" fill="#464A5F"/>
<path d="M540.809 220.736L539.219 218.469C539.124 218.339 538.983 218.25 538.824 218.221C538.666 218.192 538.503 218.224 538.367 218.312L536.014 219.928C535.881 220.02 535.788 220.16 535.755 220.319C535.723 220.478 535.752 220.643 535.837 220.781L537.295 223.022C537.385 223.158 537.524 223.253 537.683 223.288C537.841 223.323 538.007 223.296 538.146 223.212L540.632 221.652C540.707 221.606 540.771 221.545 540.821 221.473C540.871 221.401 540.906 221.319 540.922 221.233C540.939 221.147 540.937 221.058 540.918 220.973C540.898 220.887 540.861 220.807 540.809 220.736Z" fill="#464A5F"/>
<path d="M536.512 224.134L534.538 221.317C534.517 221.286 534.49 221.259 534.458 221.238C534.427 221.218 534.392 221.203 534.355 221.196C534.318 221.189 534.28 221.19 534.243 221.197C534.206 221.205 534.171 221.22 534.14 221.242L531.276 223.193C531.244 223.213 531.217 223.24 531.195 223.271C531.174 223.302 531.159 223.337 531.151 223.374C531.144 223.411 531.143 223.45 531.151 223.487C531.158 223.524 531.173 223.559 531.194 223.591L533.005 226.375C533.024 226.408 533.051 226.436 533.082 226.458C533.113 226.48 533.148 226.495 533.185 226.504C533.222 226.512 533.26 226.513 533.297 226.506C533.335 226.499 533.37 226.485 533.402 226.464L536.456 224.569C536.49 224.546 536.518 224.515 536.54 224.48C536.561 224.445 536.575 224.405 536.58 224.364C536.586 224.323 536.582 224.281 536.571 224.242C536.559 224.202 536.539 224.165 536.512 224.134Z" fill="#464A5F"/>
<path d="M532.538 226.874L530.563 224.052C530.518 223.99 530.45 223.949 530.375 223.936C530.3 223.923 530.222 223.939 530.159 223.982L527.27 225.927C527.208 225.972 527.165 226.038 527.149 226.113C527.134 226.188 527.148 226.266 527.188 226.331L529.005 229.116C529.046 229.18 529.111 229.225 529.185 229.241C529.26 229.258 529.338 229.245 529.402 229.204L532.449 227.31C532.487 227.29 532.521 227.263 532.546 227.229C532.572 227.195 532.59 227.155 532.598 227.113C532.607 227.071 532.606 227.028 532.595 226.987C532.585 226.945 532.565 226.907 532.538 226.874Z" fill="#464A5F"/>
<path d="M528.077 229.981L526.102 227.158C526.058 227.097 525.992 227.056 525.918 227.043C525.844 227.03 525.767 227.047 525.705 227.089L522.815 229.034C522.752 229.077 522.708 229.144 522.693 229.219C522.677 229.295 522.692 229.373 522.733 229.438L524.544 232.223C524.587 232.285 524.651 232.329 524.725 232.346C524.799 232.362 524.877 232.35 524.942 232.311L527.995 230.417C528.034 230.398 528.067 230.37 528.093 230.335C528.119 230.301 528.137 230.261 528.145 230.219C528.153 230.177 528.151 230.133 528.139 230.092C528.127 230.051 528.106 230.013 528.077 229.981Z" fill="#464A5F"/>
<path d="M523.768 232.968L521.812 230.151C521.791 230.12 521.764 230.093 521.733 230.072C521.702 230.052 521.666 230.037 521.629 230.03C521.592 230.023 521.554 230.024 521.518 230.031C521.481 230.039 521.446 230.054 521.415 230.076L518.525 232.027C518.462 232.069 518.418 232.135 518.403 232.209C518.388 232.283 518.402 232.361 518.443 232.425L520.254 235.209C520.295 235.273 520.36 235.318 520.435 235.335C520.509 235.351 520.587 235.338 520.651 235.298L523.705 233.403C523.741 233.382 523.772 233.352 523.795 233.317C523.819 233.282 523.834 233.242 523.84 233.2C523.846 233.159 523.843 233.116 523.83 233.076C523.818 233.036 523.797 232.999 523.768 232.968Z" fill="#464A5F"/>
<path d="M551.332 207.122L549.749 204.849C549.654 204.717 549.511 204.627 549.351 204.598C549.192 204.568 549.027 204.602 548.891 204.691L546.538 206.283C546.405 206.376 546.314 206.516 546.282 206.675C546.251 206.833 546.281 206.998 546.367 207.135L547.825 209.377C547.916 209.511 548.055 209.605 548.214 209.639C548.372 209.673 548.538 209.645 548.676 209.56L551.156 208C551.225 207.954 551.285 207.895 551.331 207.826C551.378 207.757 551.41 207.679 551.426 207.598C551.443 207.516 551.443 207.432 551.427 207.351C551.411 207.269 551.379 207.191 551.332 207.122Z" fill="#464A5F"/>
<path d="M546.84 210.235L545.25 207.969C545.156 207.837 545.016 207.747 544.857 207.717C544.699 207.686 544.535 207.718 544.399 207.804L542.045 209.396C541.913 209.489 541.822 209.629 541.79 209.788C541.759 209.946 541.789 210.111 541.875 210.248L543.333 212.49C543.423 212.623 543.56 212.717 543.718 212.753C543.875 212.788 544.039 212.762 544.178 212.679L546.664 211.113C546.733 211.067 546.793 211.008 546.839 210.939C546.886 210.87 546.918 210.793 546.934 210.711C546.951 210.629 546.951 210.545 546.935 210.464C546.919 210.382 546.887 210.305 546.84 210.235Z" fill="#464A5F"/>
<path d="M542.348 213.348L540.739 211.088C540.644 210.956 540.502 210.866 540.342 210.837C540.182 210.807 540.017 210.841 539.881 210.93L537.585 212.509C537.452 212.601 537.359 212.741 537.326 212.9C537.293 213.058 537.323 213.223 537.408 213.361L538.866 215.603C538.956 215.738 539.095 215.833 539.254 215.869C539.412 215.904 539.578 215.876 539.717 215.792L542.203 214.232C542.271 214.184 542.328 214.123 542.372 214.052C542.416 213.982 542.446 213.903 542.459 213.821C542.473 213.739 542.47 213.654 542.451 213.573C542.432 213.492 542.397 213.416 542.348 213.348Z" fill="#464A5F"/>
<path d="M537.85 216.461L536.26 214.195C536.165 214.064 536.024 213.976 535.865 213.946C535.707 213.917 535.544 213.949 535.408 214.037L533.055 215.622C532.923 215.715 532.832 215.855 532.8 216.014C532.768 216.172 532.799 216.337 532.885 216.474L534.342 218.716C534.432 218.849 534.57 218.943 534.727 218.979C534.884 219.014 535.049 218.988 535.187 218.905L537.673 217.346C537.743 217.3 537.804 217.24 537.851 217.171C537.898 217.101 537.931 217.023 537.947 216.941C537.963 216.858 537.963 216.774 537.947 216.691C537.93 216.609 537.897 216.531 537.85 216.461Z" fill="#464A5F"/>
<path d="M533.56 219.859L531.585 217.042C531.564 217.011 531.536 216.984 531.504 216.963C531.472 216.942 531.436 216.928 531.399 216.921C531.361 216.914 531.323 216.914 531.286 216.922C531.248 216.93 531.213 216.945 531.181 216.967L528.292 218.918C528.229 218.96 528.185 219.026 528.17 219.1C528.154 219.174 528.169 219.252 528.21 219.316L530.02 222.107C530.041 222.139 530.069 222.166 530.1 222.188C530.132 222.209 530.168 222.224 530.205 222.232C530.243 222.24 530.281 222.24 530.319 222.232C530.357 222.225 530.392 222.21 530.424 222.189L533.471 220.294C533.509 220.274 533.541 220.246 533.566 220.212C533.591 220.178 533.609 220.139 533.617 220.097C533.625 220.056 533.625 220.013 533.615 219.972C533.605 219.93 533.586 219.892 533.56 219.859Z" fill="#464A5F"/>
<path d="M529.579 222.618L527.604 219.802C527.583 219.771 527.556 219.744 527.525 219.723C527.493 219.702 527.458 219.688 527.421 219.681C527.384 219.674 527.346 219.674 527.309 219.682C527.272 219.69 527.237 219.705 527.206 219.726L524.336 221.671C524.273 221.715 524.229 221.781 524.213 221.856C524.198 221.932 524.213 222.01 524.254 222.075L526.065 224.86C526.107 224.923 526.172 224.967 526.246 224.983C526.32 224.999 526.397 224.987 526.462 224.948L529.516 223.054C529.551 223.031 529.581 223.002 529.603 222.967C529.626 222.931 529.641 222.892 529.647 222.85C529.653 222.809 529.65 222.767 529.638 222.727C529.626 222.687 529.606 222.65 529.579 222.618Z" fill="#464A5F"/>
<path d="M525.124 225.706L523.15 222.883C523.104 222.822 523.037 222.781 522.962 222.768C522.887 222.755 522.809 222.771 522.746 222.814L519.863 224.759C519.799 224.802 519.755 224.869 519.74 224.944C519.725 225.02 519.739 225.098 519.781 225.163L521.591 227.948C521.633 228.012 521.698 228.057 521.772 228.073C521.846 228.09 521.924 228.076 521.989 228.036L525.042 226.142C525.079 226.121 525.111 226.092 525.135 226.058C525.16 226.024 525.177 225.984 525.184 225.943C525.192 225.901 525.191 225.859 525.181 225.818C525.17 225.777 525.151 225.739 525.124 225.706Z" fill="#464A5F"/>
<path d="M520.809 228.693L518.834 225.876C518.813 225.845 518.785 225.818 518.753 225.797C518.721 225.776 518.686 225.762 518.648 225.755C518.611 225.748 518.572 225.748 518.535 225.756C518.497 225.764 518.462 225.779 518.431 225.801L515.547 227.752C515.515 227.772 515.488 227.799 515.467 227.83C515.445 227.861 515.43 227.896 515.423 227.933C515.415 227.971 515.415 228.009 515.422 228.046C515.429 228.083 515.444 228.118 515.465 228.15L517.276 230.941C517.296 230.973 517.323 231 517.354 231.021C517.385 231.043 517.42 231.058 517.457 231.065C517.494 231.073 517.533 231.073 517.57 231.066C517.607 231.059 517.642 231.044 517.673 231.023L520.727 229.128C520.763 229.107 520.794 229.078 520.818 229.044C520.842 229.009 520.858 228.97 520.866 228.929C520.873 228.888 520.872 228.845 520.863 228.805C520.853 228.764 520.835 228.726 520.809 228.693Z" fill="#464A5F"/>
<path d="M519.453 235.961L517.478 233.138C517.432 233.077 517.365 233.035 517.29 233.022C517.215 233.009 517.137 233.026 517.074 233.069L514.184 235.014C514.121 235.057 514.077 235.124 514.062 235.199C514.047 235.274 514.061 235.353 514.102 235.418L515.913 238.202C515.956 238.265 516.02 238.309 516.094 238.326C516.168 238.342 516.246 238.33 516.311 238.291L519.364 236.396C519.402 236.377 519.435 236.349 519.461 236.315C519.487 236.281 519.505 236.242 519.513 236.2C519.522 236.158 519.521 236.115 519.51 236.073C519.5 236.032 519.48 235.993 519.453 235.961Z" fill="#464A5F"/>
<path d="M515.137 238.947L513.162 236.131C513.141 236.1 513.113 236.073 513.081 236.052C513.05 236.031 513.014 236.017 512.976 236.009C512.939 236.002 512.9 236.003 512.863 236.011C512.826 236.019 512.79 236.034 512.759 236.055L509.869 238.007C509.806 238.049 509.762 238.114 509.747 238.189C509.732 238.263 509.746 238.341 509.787 238.404L511.598 241.189C511.618 241.222 511.645 241.25 511.677 241.272C511.708 241.294 511.744 241.31 511.781 241.318C511.819 241.326 511.858 241.327 511.895 241.32C511.933 241.313 511.969 241.299 512.002 241.278L515.049 239.383C515.087 239.364 515.12 239.336 515.146 239.302C515.172 239.268 515.19 239.229 515.198 239.187C515.206 239.145 515.205 239.102 515.195 239.06C515.184 239.019 515.165 238.98 515.137 238.947Z" fill="#464A5F"/>
<path d="M521.907 221.059L520.046 218.4C519.986 218.318 519.897 218.262 519.797 218.244C519.697 218.226 519.594 218.248 519.509 218.305L516.765 220.143C516.681 220.201 516.622 220.289 516.602 220.389C516.582 220.49 516.602 220.594 516.658 220.68L518.361 223.306C518.418 223.392 518.506 223.452 518.606 223.473C518.706 223.494 518.811 223.475 518.897 223.42L521.774 221.608C521.821 221.582 521.861 221.547 521.893 221.504C521.925 221.462 521.948 221.414 521.96 221.362C521.973 221.311 521.975 221.257 521.965 221.205C521.956 221.152 521.936 221.103 521.907 221.059Z" fill="#464A5F"/>
<path d="M517.591 224.045L515.73 221.393C515.702 221.351 515.665 221.315 515.623 221.287C515.58 221.26 515.533 221.24 515.483 221.231C515.433 221.222 515.382 221.222 515.332 221.233C515.283 221.243 515.236 221.263 515.194 221.292L512.468 223.136C512.384 223.192 512.326 223.28 512.306 223.379C512.286 223.478 512.306 223.582 512.361 223.666L514.065 226.293C514.121 226.378 514.209 226.438 514.309 226.461C514.409 226.483 514.513 226.466 514.601 226.413L517.484 224.601C517.528 224.572 517.565 224.534 517.595 224.49C517.624 224.446 517.644 224.397 517.654 224.345C517.664 224.294 517.663 224.241 517.653 224.189C517.642 224.138 517.621 224.089 517.591 224.045Z" fill="#464A5F"/>
<path d="M513.276 227.038L511.383 224.38C511.325 224.298 511.237 224.242 511.138 224.224C511.039 224.207 510.936 224.229 510.853 224.285L508.121 226.123C508.037 226.18 507.979 226.269 507.959 226.369C507.939 226.47 507.959 226.574 508.014 226.659L509.718 229.286C509.774 229.372 509.862 229.432 509.963 229.453C510.063 229.474 510.168 229.455 510.254 229.4L513.137 227.588C513.184 227.562 513.225 227.528 513.258 227.485C513.29 227.443 513.314 227.395 513.327 227.343C513.34 227.292 513.342 227.238 513.333 227.186C513.325 227.133 513.305 227.083 513.276 227.038Z" fill="#464A5F"/>
<path d="M509.024 230.114L507.049 227.291C507.003 227.23 506.936 227.188 506.861 227.175C506.786 227.162 506.708 227.179 506.645 227.221L503.756 229.166C503.693 229.211 503.651 229.278 503.637 229.353C503.622 229.428 503.638 229.506 503.68 229.57L505.491 232.355C505.532 232.419 505.597 232.464 505.671 232.481C505.746 232.497 505.824 232.484 505.888 232.444L508.942 230.549C508.978 230.528 509.01 230.5 509.035 230.465C509.059 230.431 509.076 230.392 509.084 230.35C509.091 230.309 509.09 230.266 509.08 230.225C509.069 230.184 509.05 230.146 509.024 230.114Z" fill="#464A5F"/>
<path d="M560.089 200.985L558.405 198.547C558.309 198.416 558.166 198.328 558.006 198.299C557.847 198.271 557.682 198.306 557.547 198.396L550.834 203.075C550.705 203.169 550.616 203.308 550.585 203.465C550.555 203.623 550.585 203.785 550.67 203.921L552.285 206.409C552.331 206.478 552.391 206.537 552.46 206.583C552.529 206.629 552.607 206.66 552.688 206.676C552.77 206.692 552.854 206.692 552.935 206.675C553.016 206.658 553.093 206.626 553.162 206.579L559.932 201.837C560.062 201.742 560.151 201.601 560.18 201.442C560.209 201.284 560.177 201.12 560.089 200.985Z" fill="#464A5F"/>
<path d="M516.481 231.591L514.386 228.63C514.365 228.598 514.337 228.571 514.305 228.55C514.273 228.529 514.237 228.515 514.199 228.509C514.162 228.502 514.123 228.503 514.086 228.512C514.049 228.521 514.013 228.537 513.983 228.56L506.778 233.612C506.716 233.655 506.673 233.721 506.659 233.795C506.645 233.87 506.66 233.946 506.702 234.01L508.677 237.053C508.698 237.086 508.725 237.114 508.757 237.137C508.79 237.159 508.826 237.174 508.864 237.182C508.903 237.189 508.942 237.189 508.98 237.181C509.019 237.173 509.055 237.158 509.087 237.135L516.412 232.002C516.475 231.956 516.517 231.887 516.53 231.811C516.543 231.734 516.526 231.655 516.481 231.591Z" fill="#464A5F"/>
<path d="M539.402 208.941L537.509 206.131C537.466 206.068 537.399 206.024 537.324 206.008C537.249 205.993 537.17 206.007 537.106 206.049L521.112 216.847C521.08 216.867 521.053 216.894 521.031 216.925C521.01 216.956 520.995 216.991 520.987 217.028C520.98 217.065 520.98 217.104 520.987 217.141C520.994 217.178 521.009 217.213 521.03 217.245L522.998 220.275C523.019 220.308 523.047 220.337 523.079 220.359C523.111 220.381 523.148 220.396 523.186 220.404C523.224 220.412 523.264 220.411 523.302 220.403C523.34 220.395 523.376 220.38 523.408 220.358L539.358 209.345C539.417 209.297 539.454 209.228 539.462 209.152C539.471 209.076 539.449 209.001 539.402 208.941Z" fill="#464A5F"/>
<path opacity="0.1" d="M539.478 199.292L530.973 186.922C530.738 186.578 530.376 186.342 529.967 186.264C529.558 186.186 529.135 186.273 528.79 186.505L505.364 202.248C505.192 202.364 505.044 202.514 504.929 202.688C504.815 202.862 504.736 203.057 504.696 203.262C504.657 203.466 504.659 203.677 504.701 203.881C504.743 204.085 504.825 204.279 504.942 204.451L513.61 217.175C513.727 217.348 513.877 217.496 514.051 217.61C514.225 217.725 514.42 217.804 514.625 217.843C514.829 217.882 515.04 217.879 515.244 217.836C515.447 217.793 515.641 217.71 515.812 217.592L539.074 201.483C539.245 201.366 539.39 201.217 539.503 201.043C539.616 200.87 539.693 200.675 539.731 200.472C539.768 200.268 539.765 200.059 539.722 199.857C539.678 199.654 539.595 199.463 539.478 199.292Z" fill="black"/>
<path d="M539.869 199.368L531.364 186.998C531.128 186.656 530.766 186.42 530.358 186.342C529.95 186.264 529.527 186.35 529.181 186.581L505.787 202.336C505.613 202.452 505.464 202.601 505.349 202.774C505.233 202.948 505.153 203.143 505.113 203.348C505.073 203.553 505.074 203.764 505.116 203.969C505.158 204.173 505.241 204.367 505.358 204.54L514.002 217.251C514.118 217.424 514.268 217.572 514.442 217.686C514.616 217.801 514.811 217.88 515.016 217.919C515.22 217.957 515.431 217.955 515.635 217.912C515.839 217.869 516.032 217.786 516.203 217.668L539.478 201.559C539.647 201.441 539.792 201.291 539.903 201.117C540.015 200.943 540.091 200.748 540.127 200.545C540.164 200.341 540.16 200.133 540.115 199.931C540.071 199.729 539.987 199.538 539.869 199.368Z" fill="#939498"/>
<path d="M592.607 219.36L574.563 213.336L516.689 253.572L534.601 259.413C535.084 259.571 535.597 259.614 536.099 259.539C536.602 259.465 537.08 259.275 537.497 258.983L592.771 220.515C592.878 220.452 592.964 220.358 593.019 220.245C593.073 220.133 593.092 220.006 593.075 219.883C593.057 219.759 593.003 219.643 592.92 219.55C592.837 219.457 592.728 219.391 592.607 219.36Z" fill="#12E8A1"/>
</g>
<defs>
<clipPath id="clip0">
<rect width="684" height="479" fill="white"/>
</clipPath>
</defs>
</svg>
