<svg width="684" height="496" viewBox="0 0 684 496" fill="none" xmlns="http://www.w3.org/2000/svg">
<path d="M435.879 371.836V491.401H136.446C102.33 491.401 74.5728 464.582 74.5728 431.619C74.5728 398.655 102.33 371.836 136.446 371.836H435.879Z" fill="#F2F2F2"/>
<path d="M443.234 490.482C443.234 491.701 442.749 492.871 441.887 493.733C441.025 494.595 439.856 495.08 438.637 495.08H131.113C114.411 495.08 98.3927 488.443 86.5824 476.628C74.7722 464.812 68.1372 448.788 68.1372 432.078C68.1372 415.369 74.7722 399.345 86.5824 387.529C98.3927 375.714 114.411 369.077 131.113 369.077H438.637C439.856 369.077 441.026 369.561 441.888 370.424C442.75 371.286 443.234 372.456 443.234 373.675C443.234 374.895 442.75 376.065 441.888 376.927C441.026 377.789 439.856 378.274 438.637 378.274H131.113C116.849 378.274 103.169 383.943 93.0832 394.033C82.9971 404.123 77.3308 417.809 77.3308 432.078C77.3308 446.348 82.9971 460.034 93.0832 470.124C103.169 480.214 116.849 485.883 131.113 485.883H438.637C439.856 485.883 441.025 486.368 441.887 487.23C442.749 488.093 443.234 489.262 443.234 490.482Z" fill="#12E8A1"/>
<path d="M435.879 399.428H114.105C113.861 399.428 113.627 399.331 113.455 399.158C113.282 398.986 113.186 398.752 113.186 398.508C113.186 398.264 113.282 398.03 113.455 397.858C113.627 397.685 113.861 397.588 114.105 397.588H435.879C436.123 397.588 436.357 397.685 436.529 397.858C436.702 398.03 436.798 398.264 436.798 398.508C436.798 398.752 436.702 398.986 436.529 399.158C436.357 399.331 436.123 399.428 435.879 399.428Z" fill="#CCCCCC"/>
<path d="M435.879 421.502H114.105C113.861 421.502 113.627 421.405 113.455 421.232C113.282 421.06 113.186 420.826 113.186 420.582C113.186 420.338 113.282 420.104 113.455 419.932C113.627 419.759 113.861 419.662 114.105 419.662H435.879C436.123 419.662 436.357 419.759 436.529 419.932C436.702 420.104 436.798 420.338 436.798 420.582C436.798 420.826 436.702 421.06 436.529 421.232C436.357 421.405 436.123 421.502 435.879 421.502Z" fill="#CCCCCC"/>
<path d="M435.879 443.575H114.105C113.861 443.575 113.627 443.478 113.455 443.306C113.282 443.133 113.186 442.899 113.186 442.655C113.186 442.411 113.282 442.177 113.455 442.005C113.627 441.833 113.861 441.736 114.105 441.736H435.879C436.123 441.736 436.357 441.833 436.529 442.005C436.702 442.177 436.798 442.411 436.798 442.655C436.798 442.899 436.702 443.133 436.529 443.306C436.357 443.478 436.123 443.575 435.879 443.575Z" fill="#CCCCCC"/>
<path d="M435.879 465.649H114.105C113.861 465.649 113.627 465.552 113.455 465.379C113.282 465.207 113.186 464.973 113.186 464.729C113.186 464.485 113.282 464.251 113.455 464.079C113.627 463.906 113.861 463.809 114.105 463.809H435.879C436.123 463.809 436.357 463.906 436.529 464.079C436.702 464.251 436.798 464.485 436.798 464.729C436.798 464.973 436.702 465.207 436.529 465.379C436.357 465.552 436.123 465.649 435.879 465.649Z" fill="#CCCCCC"/>
<path d="M667.297 394.343L592.31 487.446L359.147 299.498C332.582 278.084 327.788 239.777 348.461 214.109C369.134 188.441 407.569 184.98 434.134 206.395L667.297 394.343Z" fill="#F2F2F2"/>
<path d="M598.614 491.346C597.848 492.295 596.738 492.902 595.526 493.032C594.314 493.163 593.1 492.806 592.15 492.042L352.687 299.015C339.681 288.531 331.371 273.308 329.585 256.695C327.798 240.082 332.682 223.439 343.161 210.428C353.641 197.417 368.857 189.103 385.464 187.316C402.07 185.529 418.706 190.415 431.712 200.898L671.175 393.925C671.645 394.304 672.036 394.772 672.326 395.302C672.616 395.832 672.798 396.414 672.863 397.015C672.928 397.615 672.874 398.223 672.704 398.803C672.534 399.382 672.251 399.923 671.872 400.393C671.493 400.864 671.025 401.255 670.495 401.544C669.965 401.834 669.383 402.016 668.783 402.08C668.183 402.145 667.575 402.09 666.996 401.92C666.417 401.749 665.877 401.466 665.407 401.087L425.944 208.06C420.444 203.624 414.125 200.315 407.347 198.322C400.569 196.329 393.465 195.692 386.441 196.446C379.417 197.201 372.61 199.332 366.41 202.719C360.209 206.106 354.736 210.682 350.304 216.185C345.871 221.689 342.566 228.012 340.577 234.793C338.588 241.575 337.953 248.682 338.71 255.709C339.467 262.735 341.601 269.544 344.989 275.746C348.376 281.948 352.953 287.421 358.455 291.853L597.918 484.88C598.867 485.646 599.473 486.757 599.604 487.969C599.734 489.182 599.378 490.396 598.614 491.346Z" fill="#CCCCCC"/>
<path d="M649.992 415.828L399.433 213.857C399.339 213.781 399.261 213.687 399.203 213.581C399.145 213.475 399.109 213.359 399.096 213.239C399.083 213.119 399.094 212.997 399.128 212.881C399.162 212.766 399.218 212.658 399.294 212.563C399.37 212.469 399.463 212.391 399.569 212.333C399.675 212.275 399.791 212.239 399.911 212.226C400.031 212.213 400.153 212.224 400.269 212.258C400.384 212.292 400.493 212.349 400.587 212.424L651.146 414.396C651.24 414.471 651.318 414.565 651.376 414.671C651.434 414.777 651.471 414.893 651.484 415.014C651.497 415.134 651.486 415.255 651.452 415.371C651.418 415.487 651.361 415.596 651.286 415.69C651.21 415.784 651.116 415.862 651.01 415.92C650.904 415.978 650.788 416.014 650.668 416.027C650.547 416.04 650.426 416.029 650.31 415.995C650.194 415.961 650.086 415.904 649.992 415.828V415.828Z" fill="#CCCCCC"/>
<path d="M636.148 433.016L385.589 231.045C385.4 230.892 385.279 230.67 385.253 230.427C385.227 230.185 385.298 229.942 385.451 229.752C385.604 229.563 385.826 229.441 386.068 229.415C386.31 229.389 386.553 229.46 386.743 229.613L637.302 431.584C637.396 431.66 637.475 431.753 637.533 431.859C637.591 431.965 637.627 432.082 637.64 432.202C637.653 432.322 637.642 432.444 637.608 432.56C637.574 432.676 637.518 432.784 637.442 432.878C637.366 432.972 637.273 433.05 637.167 433.108C637.06 433.166 636.944 433.202 636.824 433.215C636.704 433.228 636.582 433.217 636.466 433.183C636.35 433.149 636.242 433.092 636.148 433.016Z" fill="#CCCCCC"/>
<path d="M622.305 450.205L371.745 248.233C371.556 248.08 371.434 247.858 371.408 247.616C371.382 247.373 371.453 247.13 371.606 246.94C371.759 246.75 371.981 246.629 372.224 246.603C372.466 246.577 372.709 246.648 372.899 246.801L623.458 448.772C623.552 448.848 623.63 448.942 623.688 449.048C623.746 449.154 623.783 449.27 623.795 449.39C623.808 449.51 623.798 449.632 623.764 449.747C623.73 449.863 623.673 449.971 623.597 450.065C623.522 450.16 623.428 450.238 623.322 450.296C623.216 450.354 623.1 450.39 622.98 450.403C622.86 450.416 622.738 450.405 622.622 450.371C622.507 450.337 622.399 450.28 622.305 450.205V450.205Z" fill="#CCCCCC"/>
<path d="M608.461 467.393L357.902 265.422C357.808 265.346 357.729 265.252 357.672 265.146C357.614 265.04 357.577 264.924 357.564 264.804C357.551 264.684 357.562 264.562 357.596 264.446C357.63 264.33 357.687 264.222 357.763 264.128C357.838 264.034 357.932 263.956 358.038 263.898C358.144 263.84 358.26 263.804 358.38 263.791C358.5 263.778 358.622 263.789 358.737 263.823C358.853 263.857 358.961 263.913 359.055 263.989L609.614 465.96C609.709 466.036 609.787 466.13 609.845 466.236C609.903 466.342 609.94 466.458 609.953 466.578C609.966 466.699 609.955 466.82 609.921 466.936C609.887 467.052 609.83 467.16 609.754 467.254C609.679 467.349 609.585 467.427 609.479 467.485C609.373 467.543 609.256 467.579 609.136 467.592C609.016 467.605 608.895 467.594 608.779 467.56C608.663 467.525 608.555 467.469 608.461 467.393Z" fill="#CCCCCC"/>
<path d="M683.081 496H0.919355C0.675527 496 0.441685 495.903 0.269272 495.731C0.0968596 495.558 0 495.324 0 495.08C0 494.836 0.0968596 494.603 0.269272 494.43C0.441685 494.258 0.675527 494.161 0.919355 494.161H683.081C683.324 494.161 683.558 494.258 683.731 494.43C683.903 494.603 684 494.836 684 495.08C684 495.324 683.903 495.558 683.731 495.731C683.558 495.903 683.324 496 683.081 496Z" fill="#CCCCCC"/>
<path d="M310.816 359.269L300.306 359.268L295.308 318.711L310.82 318.713L310.816 359.269Z" fill="#FFB8B8"/>
<path d="M292.798 356.263H313.068V369.031H280.036C280.036 367.354 280.366 365.694 281.007 364.145C281.649 362.596 282.589 361.189 283.774 360.003C284.959 358.817 286.366 357.877 287.914 357.235C289.463 356.594 291.122 356.263 292.798 356.263Z" fill="#2F2E41"/>
<path d="M203.44 359.269L192.93 359.268L187.932 318.711L203.444 318.713L203.44 359.269Z" fill="#FFB8B8"/>
<path d="M185.423 356.263H205.693V369.031H172.66C172.66 367.354 172.991 365.694 173.632 364.145C174.273 362.596 175.213 361.189 176.398 360.003C177.584 358.817 178.99 357.877 180.539 357.235C182.087 356.594 183.747 356.263 185.423 356.263Z" fill="#2F2E41"/>
<path d="M238.546 58.4335V53.8348C238.546 45.9681 241.67 38.4236 247.23 32.861C252.79 27.2984 260.332 24.1733 268.195 24.1733H268.195C276.059 24.1733 283.6 27.2984 289.16 32.861C294.721 38.4236 297.844 45.9681 297.844 53.8348V58.4335C297.844 64.1049 295.592 69.5439 291.584 73.5542C287.575 77.5644 282.138 79.8173 276.469 79.8173H259.921C257.114 79.8174 254.334 79.2643 251.741 78.1896C249.148 77.115 246.791 75.5399 244.807 73.5542C242.822 71.5685 241.247 69.2112 240.173 66.6168C239.099 64.0224 238.546 61.2417 238.546 58.4335Z" fill="#2F2E41"/>
<path d="M268.195 81.3997C280.666 81.3997 290.775 71.286 290.775 58.8101C290.775 46.3342 280.666 36.2205 268.195 36.2205C255.724 36.2205 245.615 46.3342 245.615 58.8101C245.615 71.286 255.724 81.3997 268.195 81.3997Z" fill="#FFB8B8"/>
<path d="M145.373 136.448C146.289 135.582 147.384 134.928 148.58 134.532C149.777 134.135 151.045 134.006 152.297 134.153C153.549 134.3 154.753 134.72 155.825 135.383C156.897 136.046 157.81 136.936 158.501 137.991L177.858 134.328L182.952 145.552L155.544 150.341C153.696 151.385 151.53 151.714 149.456 151.267C147.382 150.82 145.544 149.627 144.29 147.914C143.036 146.202 142.454 144.088 142.653 141.975C142.853 139.862 143.821 137.895 145.373 136.448V136.448Z" fill="#FFB8B8"/>
<path d="M250.591 95.6259L250.844 96.0096L219.103 116.928L165.543 134.039C164.833 134.267 164.224 134.734 163.819 135.361C163.415 135.988 163.24 136.736 163.325 137.477L164.494 147.545C164.545 147.99 164.69 148.42 164.917 148.807C165.145 149.193 165.451 149.528 165.815 149.789C166.18 150.051 166.595 150.233 167.033 150.325C167.472 150.416 167.926 150.415 168.364 150.321L218.772 139.512C221.212 138.991 223.518 137.975 225.549 136.527L261.209 111.145C262.502 110.22 263.533 108.975 264.203 107.533C264.873 106.091 265.159 104.5 265.032 102.915C264.901 101.328 264.36 99.8022 263.461 98.4879C262.562 97.1735 261.336 96.1159 259.904 95.4191C258.473 94.7224 256.885 94.4104 255.296 94.5139C253.707 94.6175 252.173 95.1329 250.844 96.0096L250.591 95.6259Z" fill="#CCCCCC"/>
<path d="M300.494 347.76C299.687 347.76 298.898 347.525 298.223 347.084C297.547 346.643 297.015 346.014 296.69 345.275L248.507 226.169C248.394 225.91 248.205 225.693 247.966 225.545C247.726 225.397 247.446 225.327 247.165 225.342C246.884 225.358 246.614 225.46 246.393 225.634C246.171 225.807 246.008 226.045 245.925 226.314L206.615 342.269C206.449 342.808 206.174 343.308 205.808 343.738C205.442 344.167 204.992 344.517 204.485 344.766C203.979 345.016 203.427 345.158 202.863 345.186C202.299 345.214 201.736 345.126 201.207 344.928L188.025 339.982C187.31 339.716 186.682 339.257 186.212 338.656C185.742 338.054 185.448 337.334 185.362 336.575C179.432 284.893 231.146 154.44 231.669 153.129L231.814 152.766L278.956 163.198L279.054 163.305C297.862 183.831 313.321 313.297 316.23 339.042C316.338 339.972 316.126 340.911 315.63 341.705C315.133 342.498 314.381 343.099 313.498 343.408L301.862 347.524C301.423 347.68 300.96 347.76 300.494 347.76Z" fill="#2F2E41"/>
<path d="M259.876 167.397C248.455 167.397 235.721 165.119 231.801 155.716L231.711 155.5L231.833 155.299C234.927 150.221 239.016 141.558 236.818 139.932C232.489 136.73 230.388 131.461 230.574 124.273C230.979 108.669 241.607 94.8151 257.02 89.7993H257.02C261.323 88.4219 265.701 87.2941 270.133 86.4217C273.364 85.7694 276.7 85.8411 279.9 86.6318C283.1 87.4224 286.086 88.9122 288.642 90.9943C291.23 93.09 293.323 95.7333 294.769 98.7341C296.215 101.735 296.978 105.019 297.004 108.35C297.166 125.026 294.6 148.251 281.456 164.197C280.84 164.937 279.983 165.435 279.036 165.605C272.712 166.749 266.302 167.349 259.876 167.397Z" fill="#CCCCCC"/>
<path d="M255.628 166.773C256.249 164.542 257.726 162.647 259.736 161.499C261.746 160.351 264.128 160.044 266.364 160.643C266.821 160.771 267.266 160.936 267.695 161.136L282.393 147.755L292.614 154.644L271.596 173.252C270.647 174.963 269.153 176.309 267.351 177.073C265.55 177.837 263.545 177.977 261.655 177.47C260.554 177.169 259.524 176.652 258.624 175.95C257.723 175.247 256.971 174.374 256.411 173.379C255.851 172.384 255.493 171.288 255.358 170.154C255.224 169.02 255.315 167.871 255.628 166.773Z" fill="#FFB8B8"/>
<path d="M280.065 166.942C279.111 166.943 278.187 166.613 277.449 166.009L271.653 161.27C271.17 160.875 270.782 160.376 270.519 159.81C270.256 159.244 270.124 158.626 270.134 158.002C270.144 157.378 270.294 156.764 270.575 156.206C270.855 155.648 271.258 155.161 271.753 154.782L296.062 136.129C296.35 135.907 296.539 135.58 296.588 135.22C296.637 134.859 296.542 134.494 296.323 134.203L281.319 114.359C279.575 112.061 278.701 109.22 278.85 106.339C279 103.458 280.163 100.723 282.135 98.618C284.211 96.3746 287.054 94.9941 290.101 94.7504C293.147 94.5066 296.173 95.4174 298.58 97.3021L298.675 97.4023L314.342 119.846C316.037 121.175 317.401 122.878 318.328 124.821C319.256 126.765 319.722 128.897 319.69 131.05C319.658 133.204 319.129 135.321 318.144 137.236C317.159 139.151 315.744 140.812 314.011 142.09L282.527 166.131C281.814 166.658 280.951 166.942 280.065 166.942Z" fill="#CCCCCC"/>
<path d="M248.194 52.4553V41.2472L268.195 32.5098L287.266 41.2472V52.4553C287.266 52.9431 287.073 53.411 286.728 53.756C286.383 54.1009 285.915 54.2947 285.428 54.2947H250.033C249.545 54.2947 249.077 54.1009 248.732 53.756C248.388 53.411 248.194 52.9431 248.194 52.4553Z" fill="#2F2E41"/>
<path d="M267.277 25.6603C264.336 16.2435 270.512 5.45153 279.643 1.72414C288.774 -2.00324 299.697 0.602317 307.402 6.76051C315.106 12.9187 319.886 22.1425 322.419 31.6772C324.952 41.2119 325.432 51.1543 325.9 61.0088C337.118 63.0703 344.749 76.3815 340.863 87.1093C336.977 97.8372 322.593 103.167 312.659 97.5596C302.726 91.9525 299.848 76.8798 307.018 68.0052C310.41 63.8059 312.305 58.5944 312.403 53.1961C312.5 47.7978 310.795 42.5212 307.556 38.2021C304.318 33.883 299.731 30.7683 294.523 29.3513C289.316 27.9343 283.784 28.296 278.805 30.3791C273.276 32.6921 266.339 26.6823 267.277 25.6603Z" fill="#2F2E41"/>
<path d="M141.226 92.9693C127.795 92.8811 114.531 89.9751 102.293 84.4389C101.564 84.1141 100.946 83.5843 100.513 82.9141C100.08 82.2439 99.8517 81.4622 99.855 80.6643V47.1694C99.8562 46.0721 100.293 45.0201 101.068 44.2442C101.844 43.4683 102.895 43.0319 103.992 43.0306H178.46C179.557 43.0319 180.608 43.4683 181.384 44.2442C182.159 45.0201 182.596 46.0721 182.597 47.1694V80.6643C182.6 81.4623 182.372 82.2439 181.939 82.9141C181.506 83.5843 180.887 84.1141 180.159 84.4389C167.92 89.9751 154.657 92.8811 141.226 92.9693Z" fill="#12E8A1"/>
<path d="M141.216 65.8345C140.664 65.8349 140.117 65.725 139.608 65.5111L80.5562 40.5867C79.7947 40.2653 79.1469 39.7231 78.6963 39.0299C78.2456 38.3368 78.0129 37.5245 78.028 36.6978C78.0432 35.8711 78.3055 35.0678 78.7812 34.3917C79.2569 33.7155 79.9242 33.1974 80.697 32.9041L139.75 10.4923C140.701 10.1296 141.752 10.1319 142.702 10.4986L200.963 32.9104C201.732 33.206 202.395 33.7242 202.867 34.3988C203.339 35.0733 203.6 35.8735 203.615 36.697C203.63 37.5204 203.399 38.3297 202.952 39.0213C202.505 39.7128 201.862 40.2552 201.105 40.579L142.843 65.503C142.329 65.7222 141.775 65.835 141.216 65.8345Z" fill="#12E8A1"/>
<path d="M106.75 86.718C109.796 86.718 112.266 84.2473 112.266 81.1996C112.266 78.1518 109.796 75.6812 106.75 75.6812C103.704 75.6812 101.234 78.1518 101.234 81.1996C101.234 84.2473 103.704 86.718 106.75 86.718Z" fill="#3F3D56"/>
<path opacity="0.2" d="M201.306 37.0412L143.044 61.9653C142.59 62.1596 142.101 62.2604 141.607 62.2615C141.113 62.2627 140.624 62.1644 140.169 61.9723L81.1167 37.0485C80.3751 36.743 79.7564 36.199 79.3583 35.5024C79.098 35.9541 78.9366 36.456 78.885 36.9749C78.8334 37.4938 78.8927 38.0177 79.059 38.5119C79.2253 39.006 79.4948 39.4592 79.8496 39.8412C80.2043 40.2232 80.6363 40.5253 81.1167 40.7275L140.169 65.6512C140.624 65.8433 141.113 65.9417 141.607 65.9405C142.101 65.9393 142.59 65.8385 143.044 65.6442L201.306 40.7202C201.784 40.5162 202.214 40.2131 202.566 39.831C202.918 39.4488 203.185 38.9962 203.35 38.5031C203.515 38.01 203.573 37.4876 203.521 36.9703C203.469 36.453 203.308 35.9527 203.048 35.5023C202.653 36.1933 202.04 36.7343 201.306 37.0412Z" fill="black"/>
<path d="M107.214 81.1781C107.457 81.1781 107.691 81.0812 107.864 80.9087C108.036 80.7362 108.133 80.5023 108.133 80.2584V49.4827L138.454 38.432C138.698 38.4356 138.933 38.3422 139.108 38.1723C139.283 38.0024 139.384 37.7699 139.387 37.526C139.391 37.282 139.298 37.0466 139.128 36.8716C138.958 36.6965 138.726 36.5962 138.482 36.5925L108.16 47.6433C107.916 47.6377 107.674 47.6816 107.447 47.7726C107.221 47.8635 107.015 47.9995 106.843 48.1723C106.668 48.343 106.53 48.5469 106.436 48.772C106.342 48.9971 106.293 49.2387 106.294 49.4827V80.2584C106.294 80.5023 106.391 80.7362 106.563 80.9087C106.736 81.0812 106.97 81.1781 107.214 81.1781Z" fill="#3F3D56"/>
</svg>
