<svg width="674" height="559" viewBox="0 0 674 559" fill="none" xmlns="http://www.w3.org/2000/svg">
<g clip-path="url(#clip0)">
<path opacity="0.1" d="M629.496 308.885C603.608 350.767 608.459 407.825 619.829 452.814C623.633 467.878 628.017 483.779 624.764 500.637C620.786 521.25 606.281 537.438 591.603 546.708C564.842 563.566 534.285 563.098 512.033 545.472C492.817 530.248 480.163 503.695 460.543 489.287C427.738 465.17 382.69 479.787 343.575 502.326C315.914 518.235 285.468 538.478 259.901 527.016C241.914 518.968 230.697 496.26 225.462 471.55C222.935 459.62 221.407 446.588 215.614 437.499C212.166 432.096 207.426 428.48 202.512 425.514C157.667 398.472 96.9914 421.081 53.7444 390.458C24.5338 369.782 7.92882 327.076 2.47059 281.41C-2.98763 235.744 1.50039 186.881 7.11915 138.772C11.1186 104.567 16.528 67.976 34.4801 40.159C53.4722 10.7365 83.4087 -2.42165 109.429 0.370527C135.45 3.1627 158.044 19.6505 177.518 39.803C201.856 64.9884 223.808 97.1542 255.308 105.279C276.764 110.815 300.195 104.407 323.012 100.784C361.108 94.725 398.674 96.4632 435.974 98.7388C471.682 100.917 507.608 103.625 540.88 116.19C564.423 125.09 582.494 143.616 604.467 155.664C618.789 163.517 634.948 164.515 648.293 174.986C664.731 187.886 678.955 211.696 672.373 241.796C666.099 270.43 643.233 286.659 629.496 308.885Z" fill="#12E8A1"/>
<path d="M463.802 214.216C463.802 214.216 534.299 155.14 549.975 125.355C565.652 95.5691 585.607 69.9021 585.607 69.9021" stroke="#535461" stroke-width="2" stroke-miterlimit="10"/>
<path d="M576.338 136.489L545.844 129.613C545.844 129.613 553.04 161.779 576.338 136.489Z" fill="#12E8A1"/>
<path d="M529.741 103.652L547.288 129.934C547.288 129.934 512.982 132.412 529.741 103.652Z" fill="#12E8A1"/>
<path d="M588.337 111.785L560.466 106.898C560.466 106.898 577.972 133.529 588.337 111.785Z" fill="#12E8A1"/>
<path d="M547.093 88.2954L560.822 106.277C560.822 106.277 536.518 108.581 547.093 88.2954Z" fill="#12E8A1"/>
<path d="M574.88 84.7146C574.88 84.7146 598.611 85.8454 601.403 88.1141C604.195 90.3827 597.864 103.68 588.839 101.51C579.814 99.3386 574.88 84.7146 574.88 84.7146Z" fill="#12E8A1"/>
<path d="M565.394 63.501C565.394 63.501 575.089 81.1685 574.726 84.533C574.363 87.8976 559.95 91.674 557.039 78.9487C554.128 66.2233 565.394 63.501 565.394 63.501Z" fill="#12E8A1"/>
<path d="M595.543 76.9944C596.64 73.5188 594.713 69.8115 591.237 68.7139C587.762 67.6163 584.055 69.5441 582.958 73.0198C581.86 76.4954 583.788 80.2027 587.263 81.3003C590.738 82.3979 594.445 80.4701 595.543 76.9944Z" fill="#FFD037"/>
<path d="M585.212 70.2029C586.31 66.7273 584.382 63.0199 580.907 61.9224C577.432 60.8248 573.725 62.7526 572.627 66.2282C571.53 69.7039 573.457 73.4112 576.933 74.5088C580.408 75.6064 584.115 73.6785 585.212 70.2029Z" fill="#FFD037"/>
<path d="M243.917 445.791C243.917 445.791 255.231 412.132 183.507 371.554C183.507 371.554 110.679 350.313 118.127 277.367C118.127 277.367 34.1732 338.879 90.982 417.234C147.791 495.59 196.824 478.488 196.824 478.488L243.917 445.791Z" fill="#12E8A1"/>
<path d="M222.049 460.995C222.049 460.995 187.052 423.168 153.507 408.544C146.806 405.527 140.649 401.426 135.283 396.405C113.897 376.86 104.572 347.367 110.086 318.922L118.147 277.367" stroke="#535461" stroke-width="2" stroke-miterlimit="10"/>
<path d="M533.035 23.175H134.76V485.65H533.035V23.175Z" fill="url(#paint0_linear)"/>
<path d="M528.401 28.5569H139.401V480.254H528.401V28.5569Z" fill="#F7F7FD"/>
<path d="M261.234 79.4722H162.895V87.3042H261.234V79.4722Z" fill="#E2E2EC"/>
<path d="M330.851 98.6196H162.895V106.452H330.851V98.6196Z" fill="#E2E2EC"/>
<path d="M509.772 71.9893H439.98V132.216H509.772V71.9893Z" fill="white"/>
<path d="M509.402 72.3382V131.867H440.301V72.3382H509.402ZM510.1 71.6401H439.603V132.565H510.1V71.6401Z" fill="#E2E2EC"/>
<path d="M439.282 71.9893H369.491V132.216H439.282V71.9893Z" fill="white"/>
<path d="M438.905 72.3382V131.867H369.805V72.3382H438.905ZM439.603 71.6401H369.107V132.565H439.603V71.6401Z" fill="#E2E2EC"/>
<path d="M509.772 132.915H439.98V193.142H509.772V132.915Z" fill="white"/>
<path d="M509.402 133.263V192.793H440.301V133.263H509.402ZM510.1 132.565H439.603V193.491H510.1V132.565Z" fill="#E2E2EC"/>
<path d="M439.282 132.915H369.491V193.142H439.282V132.915Z" fill="white"/>
<path d="M438.905 133.263V192.793H369.805V133.263H438.905ZM439.603 132.565H369.107V193.491H439.603V132.565Z" fill="#E2E2EC"/>
<path d="M368.793 132.915H299.002V193.142H368.793V132.915Z" fill="white"/>
<path d="M368.444 133.263V192.793H299.344V133.263H368.444ZM369.142 132.565H298.646V193.491H369.142V132.565Z" fill="#E2E2EC"/>
<path d="M298.304 132.915H228.513V193.142H298.304V132.915Z" fill="white"/>
<path d="M297.955 133.263V192.793H228.854V133.263H297.955ZM298.653 132.565H228.156V193.491H298.653V132.565Z" fill="#E2E2EC"/>
<path d="M227.814 132.915H158.023V193.142H227.814V132.915Z" fill="white"/>
<path d="M227.465 133.263V192.793H158.365V133.263H227.465ZM228.163 132.565H157.667V193.491H228.163V132.565Z" fill="#E2E2EC"/>
<path d="M509.772 193.833H439.98V254.06H509.772V193.833Z" fill="white"/>
<path d="M509.402 194.189V253.718H440.301V194.189H509.402ZM510.1 193.491H439.603V254.416H510.1V193.491Z" fill="#E2E2EC"/>
<path d="M439.282 193.833H369.491V254.06H439.282V193.833Z" fill="white"/>
<path d="M438.905 194.189V253.718H369.805V194.189H438.905ZM439.603 193.491H369.107V254.416H439.603V193.491Z" fill="#E2E2EC"/>
<path d="M368.793 193.833H299.002V254.06H368.793V193.833Z" fill="white"/>
<path d="M368.444 194.189V253.718H299.344V194.189H368.444ZM369.142 193.491H298.646V254.416H369.142V193.491Z" fill="#E2E2EC"/>
<path d="M298.304 193.833H228.513V254.06H298.304V193.833Z" fill="white"/>
<path d="M297.955 194.189V253.718H228.854V194.189H297.955ZM298.653 193.491H228.156V254.416H298.653V193.491Z" fill="#E2E2EC"/>
<path d="M227.814 193.833H158.023V254.06H227.814V193.833Z" fill="white"/>
<path d="M227.465 194.189V253.718H158.365V194.189H227.465ZM228.163 193.491H157.667V254.416H228.163V193.491Z" fill="#E2E2EC"/>
<path d="M509.772 254.758H439.98V314.985H509.772V254.758Z" fill="white"/>
<path d="M509.402 255.107V314.636H440.301V255.107H509.402ZM510.1 254.409H439.603V315.334H510.1V254.409Z" fill="#E2E2EC"/>
<path d="M439.282 254.758H369.491V314.985H439.282V254.758Z" fill="white"/>
<path d="M438.905 255.107V314.636H369.805V255.107H438.905ZM439.603 254.409H369.107V315.334H439.603V254.409Z" fill="#E2E2EC"/>
<path d="M368.793 254.758H299.002V314.985H368.793V254.758Z" fill="white"/>
<path d="M368.444 255.107V314.636H299.344V255.107H368.444ZM369.142 254.409H298.646V315.334H369.142V254.409Z" fill="#E2E2EC"/>
<path d="M298.304 254.758H228.513V314.985H298.304V254.758Z" fill="white"/>
<path d="M297.955 255.107V314.636H228.854V255.107H297.955ZM298.653 254.409H228.156V315.334H298.653V254.409Z" fill="#E2E2EC"/>
<path d="M227.814 254.758H158.023V314.985H227.814V254.758Z" fill="white"/>
<path d="M227.465 255.107V314.636H158.365V255.107H227.465ZM228.163 254.409H157.667V315.334H228.163V254.409Z" fill="#E2E2EC"/>
<path d="M509.772 315.676H439.98V375.903H509.772V315.676Z" fill="white"/>
<path d="M509.402 316.032V375.554H440.301V316.032H509.402ZM510.1 315.334H439.603V376.252H510.1V315.334Z" fill="#E2E2EC"/>
<path d="M439.282 315.676H369.491V375.903H439.282V315.676Z" fill="white"/>
<path d="M438.905 316.032V375.554H369.805V316.032H438.905ZM439.603 315.334H369.107V376.252H439.603V315.334Z" fill="#E2E2EC"/>
<path d="M368.793 315.676H299.002V375.903H368.793V315.676Z" fill="white"/>
<path d="M368.444 316.032V375.554H299.344V316.032H368.444ZM369.142 315.334H298.646V376.252H369.142V315.334Z" fill="#E2E2EC"/>
<path d="M298.304 315.676H228.513V375.903H298.304V315.676Z" fill="white"/>
<path d="M297.955 316.032V375.554H228.854V316.032H297.955ZM298.653 315.334H228.156V376.252H298.653V315.334Z" fill="#E2E2EC"/>
<path d="M227.814 315.676H158.023V375.903H227.814V315.676Z" fill="white"/>
<path d="M227.465 316.032V375.554H158.365V316.032H227.465ZM228.163 315.334H157.667V376.252H228.163V315.334Z" fill="#E2E2EC"/>
<path d="M509.772 376.601H439.98V436.828H509.772V376.601Z" fill="white"/>
<path d="M509.402 376.95V436.479H440.301V376.95H509.402ZM510.1 376.252H439.603V437.177H510.1V376.252Z" fill="#E2E2EC"/>
<path d="M439.282 376.601H369.491V436.828H439.282V376.601Z" fill="white"/>
<path d="M438.905 376.95V436.479H369.805V376.95H438.905ZM439.603 376.252H369.107V437.177H439.603V376.252Z" fill="#E2E2EC"/>
<path d="M368.793 376.601H299.002V436.828H368.793V376.601Z" fill="white"/>
<path d="M368.444 376.95V436.479H299.344V376.95H368.444ZM369.142 376.252H298.646V437.177H369.142V376.252Z" fill="#E2E2EC"/>
<path d="M298.304 376.601H228.513V436.828H298.304V376.601Z" fill="white"/>
<path d="M297.955 376.95V436.479H228.854V376.95H297.955ZM298.653 376.252H228.156V437.177H298.653V376.252Z" fill="#E2E2EC"/>
<path d="M227.814 376.601H158.023V436.828H227.814V376.601Z" fill="white"/>
<path d="M227.465 376.95V436.479H158.365V376.95H227.465ZM228.163 376.252H157.667V437.177H228.163V376.252Z" fill="#E2E2EC"/>
<path d="M304.614 492.044C306.61 490.529 308.488 488.742 309.067 486.564C309.364 485.411 309.207 484.189 308.627 483.149C308.048 482.109 307.09 481.333 305.954 480.98C303.099 480.086 300.049 481.678 297.732 483.332C295.414 484.986 292.769 486.822 289.74 486.48C292.874 484.212 294.367 480.533 293.502 477.189C293.353 476.469 292.988 475.811 292.455 475.304C290.87 473.908 287.995 474.516 286.096 475.605C280.059 479.095 278.377 485.761 278.342 491.785C277.734 489.614 278.244 487.353 278.23 485.119C278.216 482.885 277.469 480.421 275.166 479.22C273.692 478.581 272.095 478.274 270.489 478.32C267.774 478.236 264.752 478.46 262.902 480.079C260.599 482.089 261.199 485.468 263.202 487.681C265.206 489.894 268.256 491.283 271.055 492.811C273.191 493.977 275.354 495.338 276.639 497.181C276.807 497.425 276.947 497.688 277.057 497.963H294.067C297.814 496.434 301.357 494.445 304.614 492.044Z" fill="#12E8A1"/>
<path d="M167.23 146.051C169.427 146.051 171.208 144.27 171.208 142.073C171.208 139.875 169.427 138.094 167.23 138.094C165.032 138.094 163.251 139.875 163.251 142.073C163.251 144.27 165.032 146.051 167.23 146.051Z" fill="#FC6681"/>
<path d="M177.169 146.051C179.366 146.051 181.147 144.27 181.147 142.073C181.147 139.875 179.366 138.094 177.169 138.094C174.972 138.094 173.19 139.875 173.19 142.073C173.19 144.27 174.972 146.051 177.169 146.051Z" fill="#FFD037"/>
<path d="M307.72 205.036C309.917 205.036 311.698 203.255 311.698 201.057C311.698 198.86 309.917 197.079 307.72 197.079C305.522 197.079 303.741 198.86 303.741 201.057C303.741 203.255 305.522 205.036 307.72 205.036Z" fill="#12E8A1"/>
<path d="M317.666 205.036C319.863 205.036 321.645 203.255 321.645 201.057C321.645 198.86 319.863 197.079 317.666 197.079C315.469 197.079 313.688 198.86 313.688 201.057C313.688 203.255 315.469 205.036 317.666 205.036Z" fill="#12E8A1"/>
<path d="M520.444 319.027C522.641 319.027 524.422 317.245 524.422 315.048C524.422 312.85 522.641 311.069 520.444 311.069C518.247 311.069 516.465 312.85 516.465 315.048C516.465 317.245 518.247 319.027 520.444 319.027Z" fill="#12E8A1"/>
<path d="M522.433 314.392C524.63 314.392 526.412 312.61 526.412 310.413C526.412 308.215 524.63 306.434 522.433 306.434C520.236 306.434 518.455 308.215 518.455 310.413C518.455 312.61 520.236 314.392 522.433 314.392Z" fill="#12E8A1"/>
<path d="M524.422 310.413C526.62 310.413 528.401 308.631 528.401 306.434C528.401 304.236 526.62 302.455 524.422 302.455C522.225 302.455 520.444 304.236 520.444 306.434C520.444 308.631 522.225 310.413 524.422 310.413Z" fill="#12E8A1"/>
<path d="M450.199 146.051C452.396 146.051 454.177 144.27 454.177 142.073C454.177 139.875 452.396 138.094 450.199 138.094C448.001 138.094 446.22 139.875 446.22 142.073C446.22 144.27 448.001 146.051 450.199 146.051Z" fill="#12E8A1"/>
<path d="M460.138 146.051C462.335 146.051 464.117 144.27 464.117 142.073C464.117 139.875 462.335 138.094 460.138 138.094C457.941 138.094 456.16 139.875 456.16 142.073C456.16 144.27 457.941 146.051 460.138 146.051Z" fill="#12E8A1"/>
<path d="M470.084 146.051C472.282 146.051 474.063 144.27 474.063 142.073C474.063 139.875 472.282 138.094 470.084 138.094C467.887 138.094 466.106 139.875 466.106 142.073C466.106 144.27 467.887 146.051 470.084 146.051Z" fill="#12E8A1"/>
<path d="M480.024 146.051C482.221 146.051 484.002 144.27 484.002 142.073C484.002 139.875 482.221 138.094 480.024 138.094C477.826 138.094 476.045 139.875 476.045 142.073C476.045 144.27 477.826 146.051 480.024 146.051Z" fill="#12E8A1"/>
<path d="M450.199 269.319C452.396 269.319 454.177 267.538 454.177 265.34C454.177 263.143 452.396 261.361 450.199 261.361C448.001 261.361 446.22 263.143 446.22 265.34C446.22 267.538 448.001 269.319 450.199 269.319Z" fill="#12E8A1"/>
<path d="M460.138 269.319C462.335 269.319 464.117 267.538 464.117 265.34C464.117 263.143 462.335 261.361 460.138 261.361C457.941 261.361 456.16 263.143 456.16 265.34C456.16 267.538 457.941 269.319 460.138 269.319Z" fill="#12E8A1"/>
<path d="M470.084 269.319C472.282 269.319 474.063 267.538 474.063 265.34C474.063 263.143 472.282 261.361 470.084 261.361C467.887 261.361 466.106 263.143 466.106 265.34C466.106 267.538 467.887 269.319 470.084 269.319Z" fill="#12E8A1"/>
<path d="M480.024 269.319C482.221 269.319 484.002 267.538 484.002 265.34C484.002 263.143 482.221 261.361 480.024 261.361C477.826 261.361 476.045 263.143 476.045 265.34C476.045 267.538 477.826 269.319 480.024 269.319Z" fill="#12E8A1"/>
<path d="M237.475 205.036C239.672 205.036 241.453 203.255 241.453 201.057C241.453 198.86 239.672 197.079 237.475 197.079C235.277 197.079 233.496 198.86 233.496 201.057C233.496 203.255 235.277 205.036 237.475 205.036Z" fill="#FFD037"/>
<path d="M167.23 265.347C169.427 265.347 171.208 263.566 171.208 261.368C171.208 259.171 169.427 257.389 167.23 257.389C165.032 257.389 163.251 259.171 163.251 261.368C163.251 263.566 165.032 265.347 167.23 265.347Z" fill="#FC6681"/>
<path d="M517.01 325.03C521.372 327.606 528.178 329.281 536.798 323.746L536.714 336.003C537.328 344.38 547.721 375.031 547.721 375.031L555.05 400.23C560.301 418.032 563.013 436.487 563.105 455.047C563.105 461.197 563.677 467.535 565.443 472.303C569.345 482.851 563.907 496.441 561.548 501.502C557.577 502.844 553.54 503.981 549.452 504.909C549.084 504.993 548.723 505.103 548.37 505.237L548.321 505.167C548.321 505.167 537.321 509.53 532.435 508.929C528.792 508.483 526.509 513.027 529.364 516.371C526.67 517.069 523.906 517.564 522.042 517.334C517.156 516.734 514.706 525.138 523.878 527.539C533.049 529.941 585.014 527.539 585.014 527.539C586.476 526.808 587.653 525.612 588.361 524.138C589.068 522.665 589.266 520.998 588.923 519.4C592.915 519.247 595.407 519.128 595.407 519.128C595.407 519.128 604.579 514.94 595.407 503.513L594.919 503.883L592.957 498.11V490.313C592.957 490.313 604.572 434.469 600.907 427.866C597.243 421.262 595.407 387.637 595.407 387.637L596.65 351.011C599.965 344.17 601.661 333.448 602.52 325.065C603.767 321.065 604.554 316.936 604.865 312.758C605.011 310.79 605.13 308.724 605.207 306.581C605.238 301.88 604.468 297.209 602.931 292.766C606.421 287.74 612.096 279.971 616.779 275.378C624.115 268.174 622.28 259.763 622.28 259.763L619.222 239.345L611.887 204.52C612.808 194.859 610.791 189.295 608.564 186.154C609.095 183.034 609.59 179.914 609.96 176.78C611.586 163.15 610.861 149.342 607.817 135.958C606.756 131.288 605.312 126.499 602.038 122.96C598.332 118.954 592.315 116.51 590.933 111.261C590.591 109.956 590.577 108.567 590.082 107.31C588.741 103.876 584.498 102.626 580.784 102.18C574.168 101.377 564.598 100.784 558.24 103.366C553.8 105.181 547.686 110.179 545.257 115.54C543.861 118.004 543.212 120.594 543.805 123.03C544.039 123.928 544.394 124.79 544.859 125.592C543.912 128.16 543.43 130.876 543.435 133.613C543.457 138.317 544.895 142.906 547.562 146.782C550.229 150.658 554 153.641 558.386 155.343C558.533 155.803 558.665 156.257 558.777 156.704C559.055 157.779 559.255 158.873 559.377 159.978C559.259 162.072 559.126 164.229 559.028 166.358C558.959 166.651 558.884 166.939 558.805 167.223C553.547 169.551 548.421 172.166 543.449 175.055C547.121 180.458 542.835 203.277 542.835 203.277C533.664 208.68 524.492 222.494 534.278 236.902C544.064 251.31 538.557 266.918 538.557 266.918L537.028 290.393V290.435L536.721 295.133H536.839L536.721 296.913L536.986 296.962V298.874C532.693 300.452 526.419 303.635 522.677 309.519C520.908 312.414 518.755 315.056 516.277 317.372C515.708 317.865 515.264 318.487 514.984 319.186C514.704 319.885 514.596 320.641 514.667 321.39C514.739 322.14 514.989 322.861 515.397 323.495C515.804 324.128 516.357 324.654 517.01 325.03ZM590.828 262.653C590.46 258.591 591.211 254.507 592.999 250.842C594.437 250.87 595.877 250.886 597.32 250.891C597.466 251.903 597.641 252.866 597.85 253.746C599.093 259.037 594.13 261.571 590.821 262.646L590.828 262.653Z" fill="url(#paint1_linear)"/>
<path d="M592.036 495.373L594.388 502.431L586.71 510.109L561.415 515.994L543.177 514.228L544.357 507.757C544.705 506.366 545.43 505.097 546.452 504.091C547.474 503.085 548.754 502.38 550.15 502.054C557.646 500.295 571.941 496.274 574.942 490.697L592.036 495.373Z" fill="#DB8B8B"/>
<path opacity="0.1" d="M592.036 495.373L594.388 502.431L586.71 510.109L561.415 515.994L543.177 514.228L544.357 507.757C544.705 506.366 545.43 505.097 546.452 504.091C547.474 503.085 548.754 502.38 550.15 502.054C557.646 500.295 571.941 496.274 574.942 490.697L592.036 495.373Z" fill="black"/>
<path d="M549.089 512.433L552.621 507.729L549.089 502.277C549.089 502.277 538.501 506.549 533.796 505.963C529.092 505.376 526.74 513.641 535.562 515.965C544.385 518.29 594.388 515.965 594.388 515.965C594.388 515.965 603.211 511.847 594.388 500.671L586.71 506.556C586.71 506.556 573.77 513.613 567.299 512.44L549.089 512.433Z" fill="#2E3037"/>
<path d="M533.203 522.423L551.441 524.189L576.736 518.304L584.414 510.626L583.793 508.755L582.913 506.13L582.034 503.575L564.975 498.871C564.104 500.293 562.908 501.489 561.485 502.361C555.943 506.151 545.99 508.888 540.148 510.256C539.911 510.314 539.678 510.386 539.45 510.472C538.213 510.888 537.1 511.608 536.214 512.567C535.329 513.526 534.699 514.692 534.382 515.959L533.203 522.423Z" fill="#DB8B8B"/>
<path opacity="0.1" d="M533.203 522.423L551.441 524.189L576.736 518.304L584.414 510.626L583.793 508.755L576.771 514.158C576.771 514.158 563.83 521.215 557.36 520.042H539.087L542.619 515.337L539.45 510.451C538.213 510.867 537.1 511.587 536.214 512.546C535.329 513.505 534.699 514.671 534.382 515.938L533.203 522.423Z" fill="black"/>
<path d="M539.087 520.67L542.619 515.966L539.087 510.514C539.087 510.514 528.498 514.786 523.794 514.2C519.09 513.613 516.737 521.878 525.56 524.203C534.382 526.527 584.386 524.203 584.386 524.203C584.386 524.203 593.208 520.084 584.386 508.908L576.708 514.793C576.708 514.793 563.768 521.85 557.297 520.677L539.087 520.67Z" fill="#2E3037"/>
<path d="M553.793 179.446C553.793 179.446 582.034 182.385 577.916 170.623C576.764 167.287 576.464 163.717 577.043 160.236C577.776 155.92 579.483 151.828 582.034 148.271L555.559 152.39C557.146 155.043 558.353 157.905 559.147 160.892C562.302 173.366 553.793 179.446 553.793 179.446Z" fill="#DB8B8B"/>
<path d="M602.031 313.582C602.031 313.582 601.445 338.879 595.561 351.234L594.381 387.121C594.381 387.121 596.147 420.069 599.679 426.539C603.211 433.01 592.001 487.723 592.001 487.723V497.139C592.001 497.139 573.155 504.197 567.879 495.96L573.176 425.946L570.824 328.876L602.031 313.582Z" fill="#474463"/>
<path opacity="0.1" d="M602.031 313.582C602.031 313.582 601.445 338.879 595.561 351.234L594.381 387.121C594.381 387.121 596.147 420.069 599.679 426.539C603.211 433.01 592.001 487.723 592.001 487.723V497.139C592.001 497.139 573.155 504.197 567.879 495.96L573.176 425.946L570.824 328.876L602.031 313.582Z" fill="black"/>
<path d="M613.799 232.393L617.331 241.809L620.269 261.815C620.666 264.602 620.393 267.443 619.471 270.103C618.55 272.763 617.007 275.165 614.972 277.109C607.915 284.166 598.499 298.874 598.499 298.874L587.332 265.368C587.332 265.368 598.499 263.602 596.747 255.952C594.995 248.301 595.561 234.131 595.561 234.131L613.799 232.393Z" fill="#FC6681"/>
<path opacity="0.05" d="M613.799 232.393L617.331 241.809L620.269 261.815C620.666 264.602 620.393 267.443 619.471 270.103C618.55 272.763 617.007 275.165 614.972 277.109C607.915 284.166 598.499 298.874 598.499 298.874L587.332 265.368C587.332 265.368 598.499 263.602 596.747 255.952C594.995 248.301 595.561 234.131 595.561 234.131L613.799 232.393Z" fill="black"/>
<path opacity="0.1" d="M561.513 502.368C569.058 514.235 580.805 507.512 582.885 506.172L582.034 503.575L564.975 498.871C564.112 500.293 562.926 501.491 561.513 502.368Z" fill="black"/>
<path d="M537.914 336.527C538.501 344.764 548.503 374.765 548.503 374.765L555.559 399.455C560.616 416.913 563.226 434.988 563.314 453.163C563.314 459.187 563.865 465.399 565.568 470.069C570.273 483.011 560.864 500.665 560.864 500.665C569.1 515.372 583.199 505.369 583.199 505.369V495.96C583.199 495.96 594.367 444.772 591.436 434.776C588.504 424.78 587.318 397.71 587.318 397.71V348.847C596.741 339.457 602.471 326.989 603.462 313.722C603.601 311.795 603.713 309.771 603.79 307.67C604.265 294.407 595.191 278.833 591.645 273.291C590.794 271.951 590.249 271.197 590.249 271.197L538.305 291.803L538.187 291.852V293.862V298.309L537.914 336.527Z" fill="#474463"/>
<path opacity="0.1" d="M555.559 152.383C557.146 155.036 558.353 157.898 559.147 160.885C562.023 161.976 565.088 162.48 568.161 162.368C571.235 162.255 574.255 161.528 577.043 160.229C577.777 155.916 579.484 151.826 582.034 148.271L555.559 152.383Z" fill="black"/>
<path d="M567.327 161.199C579.998 161.199 590.27 150.926 590.27 138.254C590.27 125.582 579.998 115.31 567.327 115.31C554.656 115.31 544.385 125.582 544.385 138.254C544.385 150.926 554.656 161.199 567.327 161.199Z" fill="#DB8B8B"/>
<path opacity="0.1" d="M537.914 298.288L538.166 298.337C562.832 303.411 593.802 277.695 593.802 277.695C592.972 276.296 592.255 274.832 591.659 273.319C590.807 271.978 590.263 271.225 590.263 271.225L538.319 291.831L538.187 293.89L537.914 298.288Z" fill="black"/>
<path d="M544.385 178.853C544.385 178.853 577.329 158.847 587.918 167.084L602.624 185.931C602.624 185.931 612.04 188.87 610.302 207.696L617.331 241.809L596.154 247.107C596.154 247.107 583.8 258.876 593.802 275.937C593.802 275.937 562.623 301.82 537.914 296.529L539.68 268.879C539.68 268.879 544.978 253.585 535.562 239.464C526.146 225.342 534.976 211.814 543.798 206.516C543.798 206.509 547.909 184.151 544.385 178.853Z" fill="#FC6681"/>
<path d="M542.619 298.874C542.619 298.874 530.264 301.227 524.38 310.643C522.683 313.468 520.612 316.051 518.224 318.322C517.687 318.809 517.271 319.415 517.008 320.091C516.746 320.767 516.645 321.495 516.712 322.217C516.78 322.939 517.015 323.635 517.399 324.251C517.782 324.866 518.304 325.384 518.922 325.763C523.592 328.555 531.207 330.293 540.825 322.391C557.325 308.877 542.619 298.874 542.619 298.874Z" fill="#DB8B8B"/>
<path opacity="0.1" d="M560.857 190.035C560.857 190.035 572.625 188.856 575.563 219.451C578.502 250.046 583.241 257.103 583.241 257.103C583.241 257.103 586.18 272.991 579.123 282.4C572.067 291.81 558.533 311.816 558.533 311.816C558.533 311.816 543.826 315.934 540.888 301.226L559.126 267.106C559.126 267.106 562.065 255.337 555.008 247.1C547.951 238.863 542.619 184.151 560.857 190.035Z" fill="black"/>
<path d="M559.657 188.269C559.657 188.269 571.425 187.09 574.363 217.685C577.302 248.28 582.041 255.337 582.041 255.337C582.041 255.337 584.979 271.225 577.923 280.634C570.866 290.044 557.332 310.05 557.332 310.05C557.332 310.05 542.626 314.168 539.687 299.461L557.926 265.34C557.926 265.34 560.864 253.571 553.807 245.334C546.751 237.097 541.439 182.385 559.657 188.269Z" fill="#FC6681"/>
<path opacity="0.1" d="M549.968 210.327C549.968 210.327 548.796 228.546 554.073 238.57C559.349 248.594 559.37 261.515 554.073 268.586" fill="black"/>
<path opacity="0.1" d="M547.03 187.976C547.03 187.976 551.734 183.271 565.268 182.678C578.802 182.085 584.679 177.973 584.679 177.973" fill="black"/>
<path opacity="0.1" d="M579.751 108.609C583.325 109.048 587.429 110.277 588.7 113.635C589.174 114.87 589.188 116.231 589.516 117.509C590.849 122.646 596.636 125.041 600.202 128.971C603.35 132.461 604.739 137.131 605.786 141.703C608.723 154.814 609.431 168.326 607.88 181.673C606.735 191.445 604.39 201.037 603.734 210.837C603.078 220.638 604.279 230.948 609.632 239.185C611.935 242.724 614.979 245.837 616.612 249.732C613.241 252.468 608.585 252.859 604.237 253.006C599.179 253.178 594.118 253.178 589.056 253.006C586.403 252.915 583.632 252.741 581.343 251.4C579.648 250.316 578.255 248.82 577.295 247.052C574.398 242.165 573.672 236.232 573.805 230.536C573.937 224.84 574.831 219.172 574.935 213.469C574.991 210.362 574.747 207.061 572.96 204.52C571.669 202.684 569.707 201.448 568.032 199.962C561.75 194.377 559.573 185.428 559.363 177.017C559.154 168.605 560.543 160.18 559.831 151.797C559.552 148.516 558.323 144.572 555.099 143.937C554.08 143.734 553.005 143.937 552.028 143.546C549.438 142.547 549.689 138.897 548.949 136.223C548.119 133.222 545.557 130.904 544.838 127.847C543.142 120.727 552.202 112.231 558.142 109.753C564.179 107.227 573.386 107.827 579.751 108.609Z" fill="black"/>
<path d="M580.338 107.436C583.911 107.876 588.015 109.104 589.286 112.462C589.76 113.697 589.774 115.058 590.102 116.336C591.436 121.474 597.222 123.868 600.788 127.798C603.936 131.288 605.325 135.958 606.372 140.53C609.31 153.641 610.017 167.154 608.466 180.5C607.322 190.273 604.976 199.864 604.32 209.664C603.664 219.465 604.865 229.775 610.218 238.012C612.522 241.551 615.565 244.664 617.198 248.559C613.827 251.296 609.171 251.686 604.823 251.833C599.765 252.005 594.704 252.005 589.642 251.833C586.989 251.742 584.218 251.568 581.929 250.228C580.234 249.143 578.841 247.647 577.881 245.879C574.984 240.992 574.258 235.059 574.391 229.363C574.523 223.667 575.417 217.999 575.522 212.296C575.577 209.19 575.333 205.888 573.546 203.347C572.255 201.511 570.294 200.276 568.619 198.789C562.337 193.204 560.159 184.256 559.95 175.844C559.74 167.433 561.129 159.007 560.417 150.624C560.138 147.343 558.91 143.399 555.685 142.764C554.666 142.561 553.591 142.764 552.614 142.373C550.024 141.375 550.276 137.724 549.536 135.05C548.705 132.049 546.143 129.731 545.425 126.674C543.728 119.554 552.788 111.059 558.728 108.581C564.766 106.047 573.972 106.647 580.338 107.436Z" fill="#472727"/>
</g>
<defs>
<linearGradient id="paint0_linear" x1="333.901" y1="485.643" x2="333.901" y2="23.175" gradientUnits="userSpaceOnUse">
<stop stop-color="#808080" stop-opacity="0.25"/>
<stop offset="0.54" stop-color="#808080" stop-opacity="0.12"/>
<stop offset="1" stop-color="#808080" stop-opacity="0.1"/>
</linearGradient>
<linearGradient id="paint1_linear" x1="-196545" y1="344726" x2="-196545" y2="83380" gradientUnits="userSpaceOnUse">
<stop stop-color="#808080" stop-opacity="0.25"/>
<stop offset="0.54" stop-color="#808080" stop-opacity="0.12"/>
<stop offset="1" stop-color="#808080" stop-opacity="0.1"/>
</linearGradient>
<clipPath id="clip0">
<rect width="674" height="559" fill="white"/>
</clipPath>
</defs>
</svg>
