<svg width="709" height="578" viewBox="0 0 709 578" fill="none" xmlns="http://www.w3.org/2000/svg">
<path opacity="0.1" d="M258.001 107.788C231.287 105.056 203.605 104.211 177.716 112.181C139.648 123.896 108.543 155.422 98.9893 192.041C90.8738 223.074 97.4438 255.14 98.8499 286.79C100.59 325.776 94.3736 364.947 86.8916 403.619C82.8761 424.394 78.4718 445.697 82.4051 466.237C87.8701 494.754 109.628 518.801 137.021 531.408C164.413 544.015 196.798 545.865 227.234 540.01C243.43 536.894 259.753 531.391 272.011 520.689C284.981 509.366 292.318 493.216 305.376 481.982C317.476 471.57 333.479 466.282 349.312 462.974C369.984 458.656 391.163 457.273 412.223 458.869C436.081 460.691 459.332 466.361 483.143 468.314C506.953 470.266 532.45 468.087 552.945 455.651C572.213 443.963 584.749 424.752 595.611 405.789C613.385 374.826 628.608 342.465 641.13 309.028C649.509 286.607 656.681 263.4 656.733 239.871C656.838 194.881 628.527 151.739 586.198 132.367C551.127 116.32 509.839 116.334 470.451 120.18C434.534 123.687 394.676 133.982 359.037 127.6C325.046 121.497 292.887 111.363 258.001 107.788Z" fill="black"/>
<path d="M629.773 500.706C639.425 489.726 684.878 435.685 652.572 426.775C628.308 420.084 625.605 456.898 626.419 481.603C622.534 464.958 614.994 445.515 601.746 454.094C582.654 466.457 618.428 493.819 627.773 500.535C627.927 501.901 628.028 502.66 628.028 502.66C628.028 502.66 628.411 502.242 629.095 501.473C629.629 501.847 629.925 502.048 629.925 502.048C629.925 502.048 629.876 501.564 629.773 500.706Z" fill="#FC6681"/>
<path d="M140.428 530.762C151.483 518.186 203.542 456.29 166.541 446.086C138.751 438.422 135.655 480.587 136.587 508.883C132.137 489.819 123.501 467.549 108.328 477.375C86.4604 491.536 127.435 522.873 138.138 530.566C138.314 532.131 138.43 533 138.43 533C138.43 533 138.869 532.522 139.651 531.641C140.263 532.069 140.603 532.299 140.603 532.299C140.603 532.299 140.546 531.744 140.428 530.762Z" fill="#05B962"/>
<path d="M262.265 107.881C261.307 107.882 260.389 108.263 259.711 108.94C259.034 109.617 258.653 110.535 258.652 111.493V497.966C258.653 498.924 259.034 499.842 259.711 500.519C260.389 501.196 261.307 501.577 262.265 501.578H573.681C574.639 501.577 575.558 501.196 576.235 500.519C576.912 499.842 577.293 498.924 577.294 497.966V111.493C577.293 110.535 576.912 109.617 576.235 108.94C575.558 108.263 574.639 107.882 573.681 107.881H262.265Z" fill="white"/>
<path d="M524.187 276.647H311.759C310.322 276.647 308.943 276.076 307.927 275.06C306.911 274.044 306.34 272.666 306.34 271.229C306.34 269.792 306.911 268.414 307.927 267.398C308.943 266.382 310.322 265.812 311.759 265.812H524.187C525.625 265.812 527.003 266.382 528.019 267.398C529.036 268.414 529.606 269.792 529.606 271.229C529.606 272.666 529.036 274.044 528.019 275.06C527.003 276.076 525.625 276.647 524.187 276.647Z" fill="black" fill-opacity="0.5"/>
<path d="M526.011 175.694H385.08C383.094 175.694 381.484 173.269 381.484 170.276C381.484 167.284 383.094 164.859 385.08 164.859H526.011C527.997 164.859 529.606 167.284 529.606 170.276C529.606 173.269 527.997 175.694 526.011 175.694Z" fill="black" fill-opacity="0.5"/>
<path d="M526.011 206.757H385.08C383.094 206.757 381.484 204.331 381.484 201.339C381.484 198.347 383.094 195.921 385.08 195.921H526.011C527.997 195.921 529.606 198.347 529.606 201.339C529.606 204.331 527.997 206.757 526.011 206.757Z" fill="black" fill-opacity="0.5"/>
<path d="M524.187 311.683H311.759C310.322 311.683 308.943 311.112 307.927 310.096C306.911 309.08 306.34 307.702 306.34 306.265C306.34 304.828 306.911 303.45 307.927 302.434C308.943 301.418 310.322 300.847 311.759 300.847H524.187C525.625 300.847 527.003 301.418 528.019 302.434C529.036 303.45 529.606 304.828 529.606 306.265C529.606 307.702 529.036 309.08 528.019 310.096C527.003 311.112 525.625 311.683 524.187 311.683Z" fill="black" fill-opacity="0.5"/>
<path d="M524.187 346.718H311.759C310.322 346.718 308.943 346.147 307.927 345.131C306.911 344.115 306.34 342.737 306.34 341.3C306.34 339.863 306.911 338.485 307.927 337.469C308.943 336.453 310.322 335.882 311.759 335.882H524.187C525.625 335.882 527.003 336.453 528.019 337.469C529.036 338.485 529.606 339.863 529.606 341.3C529.606 342.737 529.036 344.115 528.019 345.131C527.003 346.147 525.625 346.718 524.187 346.718Z" fill="black" fill-opacity="0.5"/>
<path d="M524.187 381.753H311.759C310.322 381.753 308.943 381.183 307.927 380.167C306.911 379.151 306.34 377.773 306.34 376.336C306.34 374.899 306.911 373.521 307.927 372.505C308.943 371.489 310.322 370.918 311.759 370.918H524.187C525.625 370.918 527.003 371.489 528.019 372.505C529.036 373.521 529.606 374.899 529.606 376.336C529.606 377.773 529.036 379.151 528.019 380.167C527.003 381.183 525.625 381.753 524.187 381.753Z" fill="black" fill-opacity="0.5"/>
<path d="M524.187 416.789H311.759C310.322 416.789 308.943 416.218 307.927 415.202C306.911 414.186 306.34 412.808 306.34 411.371C306.34 409.934 306.911 408.556 307.927 407.54C308.943 406.524 310.322 405.953 311.759 405.953H524.187C525.625 405.953 527.003 406.524 528.019 407.54C529.036 408.556 529.606 409.934 529.606 411.371C529.606 412.808 529.036 414.186 528.019 415.202C527.003 416.218 525.625 416.789 524.187 416.789Z" fill="black" fill-opacity="0.5"/>
<path d="M524.187 451.824H311.759C310.322 451.824 308.943 451.254 307.927 450.238C306.911 449.222 306.34 447.844 306.34 446.407C306.34 444.97 306.911 443.592 307.927 442.576C308.943 441.56 310.322 440.989 311.759 440.989H524.187C525.625 440.989 527.003 441.56 528.019 442.576C529.036 443.592 529.606 444.97 529.606 446.407C529.606 447.844 529.036 449.222 528.019 450.238C527.003 451.254 525.625 451.824 524.187 451.824Z" fill="black" fill-opacity="0.5"/>
<path d="M313.28 286.244L270.719 308.866L270.181 290.014C284.072 287.696 297.288 283.659 309.508 277.088L313.96 266.093C314.445 264.895 315.233 263.843 316.247 263.042C317.261 262.241 318.467 261.717 319.745 261.521C321.023 261.326 322.329 261.467 323.536 261.929C324.744 262.391 325.81 263.16 326.63 264.158C327.831 265.62 328.431 267.482 328.309 269.37C328.187 271.257 327.353 273.027 325.974 274.321L313.28 286.244Z" fill="#FFB8B8"/>
<path d="M209.288 416.854C208.978 415.715 208.912 414.524 209.095 413.358C209.278 412.193 209.705 411.079 210.35 410.09L219.699 395.745C221.91 392.352 225.303 389.902 229.22 388.869C233.137 387.836 237.297 388.294 240.895 390.155C236.966 396.841 237.513 402.707 242.252 407.805C234.896 411.395 228.097 416.029 222.067 421.563C220.966 422.313 219.702 422.789 218.379 422.952C217.057 423.115 215.714 422.96 214.464 422.499C213.214 422.039 212.092 421.286 211.192 420.304C210.291 419.322 209.639 418.139 209.288 416.854Z" fill="#2F2E41"/>
<path d="M315.218 398.097C313.803 400.455 311.806 402.409 309.419 403.773C307.031 405.136 304.333 405.863 301.583 405.884L239.473 406.355L236.779 390.735L264.255 382.656L241.089 364.881L266.41 335.258L312.4 378.112C315.088 380.617 316.834 383.968 317.347 387.606C317.86 391.244 317.109 394.947 315.218 398.097Z" fill="#2F2E41"/>
<path d="M229.776 504.921H215.23C202.17 415.42 188.876 325.668 228.159 292.169L274.491 299.709L268.565 339.028L242.705 368.652L229.776 504.921Z" fill="#2F2E41"/>
<path d="M241.117 532.419C239.978 532.73 238.786 532.796 237.62 532.613C236.454 532.43 235.34 532.002 234.351 531.358L220.003 522.012C216.609 519.801 214.157 516.409 213.124 512.494C212.09 508.578 212.548 504.418 214.409 500.821C221.098 504.749 226.965 504.201 232.064 499.464C235.655 506.818 240.29 513.614 245.826 519.643C246.576 520.744 247.053 522.008 247.216 523.33C247.379 524.652 247.224 525.994 246.763 527.244C246.302 528.494 245.55 529.616 244.567 530.516C243.585 531.416 242.402 532.069 241.117 532.419Z" fill="#2F2E41"/>
<path d="M293.267 229.963H224.119C211.348 211.901 209.85 194.629 224.119 178.462C224.119 171.313 233.355 165.518 244.748 165.518H244.748C253.672 165.518 261.585 169.119 264.357 174.442L293.267 229.963Z" fill="#2F2E41"/>
<path d="M264.255 232.383L237.318 225.919C241.792 216.764 242.16 206.577 240.012 195.757L258.329 195.218C258.903 208.673 260.639 221.243 264.255 232.383Z" fill="#FFB8B8"/>
<path d="M271.657 315.927C252.048 329.286 238.193 316.384 227.62 296.478C229.089 284.297 226.711 269.72 222.305 253.881C220.345 246.895 221.077 239.429 224.355 232.956C227.633 226.483 233.219 221.473 240.011 218.917L263.177 228.612C282.847 244.642 286.719 262.006 279.339 280.319L271.657 315.927Z" fill="#B2BEC3"/>
<path d="M215.23 245.848L193.68 257.159L231.93 279.781L237.253 292.906C237.608 293.782 237.781 294.721 237.761 295.666C237.742 296.611 237.53 297.543 237.138 298.403C236.747 299.264 236.184 300.035 235.485 300.671C234.785 301.307 233.964 301.794 233.07 302.102C232.054 302.453 230.97 302.563 229.904 302.425C228.839 302.287 227.819 301.904 226.926 301.306C226.033 300.708 225.29 299.912 224.757 298.979C224.223 298.046 223.912 297.003 223.849 295.93L223.311 286.783L174.695 270.743C173.057 270.203 171.564 269.297 170.328 268.094C169.092 266.891 168.146 265.422 167.562 263.8C166.71 261.435 166.667 258.854 167.438 256.462C168.21 254.07 169.753 252.001 171.827 250.579L210.92 223.765L215.23 245.848Z" fill="#FFB8B8"/>
<path d="M236.779 248.002C227.791 244.065 219.619 248.342 209.303 251.773L207.687 223.226C217.93 217.768 227.696 216.297 236.779 220.533V248.002Z" fill="#B2BEC3"/>
<path d="M291.999 229.963H276.748C267.255 212.456 267.686 181.523 247.284 188.418C234.177 180.64 241.698 211.161 238.438 229.963H225.175C221.57 211.593 221.52 193.185 225.76 178.215C225.801 177.235 226.047 176.273 226.485 175.395C226.922 174.516 227.54 173.739 228.298 173.116C228.955 172.512 229.668 171.971 230.426 171.499C235.113 168.547 238.26 166.866 245.108 166.866C248.94 166.857 252.755 167.382 256.443 168.424C256.922 168.564 257.396 168.715 257.854 168.872C258.485 169.088 259.093 169.325 259.675 169.578C262.671 170.866 265.025 172.609 266.14 174.79C279.048 190.181 285.637 209.6 291.999 229.963Z" fill="#2F2E41"/>
<path d="M247.53 209.358C257.028 209.358 264.728 201.66 264.728 192.164C264.728 182.668 257.028 174.97 247.53 174.97C238.032 174.97 230.332 182.668 230.332 192.164C230.332 201.66 238.032 209.358 247.53 209.358Z" fill="#FFB8B8"/>
<path d="M264.974 185.532C259.8 178.482 246.307 186.892 230.086 192.901V176.198C243.43 170.325 251.211 168.631 260.06 174.724L264.974 185.532Z" fill="#2F2E41"/>
<path d="M567.425 154.304C590.434 154.304 609.086 135.655 609.086 112.652C609.086 89.6483 590.434 71.0002 567.425 71.0002C544.417 71.0002 525.764 89.6483 525.764 112.652C525.764 135.655 544.417 154.304 567.425 154.304Z" fill="#B2BEC3"/>
<path d="M550.067 109.903C549.337 109.903 548.638 110.193 548.123 110.708C547.607 111.224 547.317 111.923 547.317 112.652C547.317 113.381 547.607 114.08 548.123 114.596C548.638 115.111 549.337 115.401 550.067 115.401H564.676V130.007C564.676 130.735 564.966 131.435 565.481 131.95C565.997 132.465 566.696 132.755 567.425 132.755C568.154 132.755 568.854 132.465 569.369 131.95C569.885 131.435 570.174 130.735 570.174 130.007V115.401H584.784C585.513 115.401 586.212 115.111 586.728 114.596C587.244 114.08 587.533 113.381 587.533 112.652C587.533 111.923 587.244 111.224 586.728 110.708C586.212 110.193 585.513 109.903 584.784 109.903H570.174V95.297C570.174 94.5681 569.885 93.869 569.369 93.3536C568.854 92.8381 568.154 92.5486 567.425 92.5486C566.696 92.5486 565.997 92.8381 565.481 93.3536C564.966 93.869 564.676 94.5681 564.676 95.297V109.903H550.067Z" fill="white"/>
<rect x="306" y="157" width="57" height="57" rx="15" fill="#B2BEC3"/>
</svg>
